<?xml version="1.0" encoding="UTF-8"?>
<svg width="120px" height="120px" viewBox="0 0 120 120" version="1.1" xmlns="http://www.w3.org/2000/svg" xmlns:xlink="http://www.w3.org/1999/xlink">
    <!-- Generator: Sketch 56.2 (81672) - https://sketch.com -->
    <title>编组 9</title>
    <desc>Created with Sketch.</desc>
    <g id="页面-1" stroke="none" stroke-width="1" fill="none" fill-rule="evenodd">
        <g id="D3" transform="translate(-542.000000, -722.000000)">
            <g id="编组-5备份-4" transform="translate(40.000000, 640.000000)">
                <g id="编组-9" transform="translate(502.000000, 82.000000)">
                    <rect id="矩形" fill="#FFFFFF" opacity="0" x="0" y="0" width="120" height="120"></rect>
                    <g id="编组-7" transform="translate(11.000000, 11.000000)">
                        <g id="编组-6">
                            <path d="M49,98 C76.0619527,98 98,76.0619527 98,49 C98,21.9380473 76.0619527,0 49,0 C21.9380473,0 0,21.9380473 0,49 C0,76.0619527 21.9380473,98 49,98 Z" id="椭圆形" fill="#78909C" fill-rule="nonzero"></path>
                            <path d="M49,90.5 C26.0801829,90.5 7.5,71.9198171 7.5,49 C7.5,26.0801829 26.0801829,7.5 49,7.5 C71.9198171,7.5 90.5,26.0801829 90.5,49 C90.5,71.9198171 71.9198171,90.5 49,90.5 Z" id="路径" fill="#CFD8DC" fill-rule="nonzero"></path>
                            <path d="M13.0599457,69.75 L84.9400543,28.25 C96.3999628,48.0991439 89.5991439,73.4801457 69.75,84.9400543 C49.9008561,96.3999628 24.5198543,89.5991439 13.0599457,69.75 Z" id="路径" fill="#B0BEC5" fill-rule="nonzero"></path>
                            <g id="编组-5" transform="translate(49.000000, 48.500000) rotate(-30.000000) translate(-49.000000, -48.500000) translate(33.000000, 19.000000)">
                                <g id="编组-4" transform="translate(8.000000, 20.000000)">
                                    <polygon id="矩形" fill="#78909C" points="0 0 16 0 14.4 39 1.6 39"></polygon>
                                    <polygon id="路径" fill="#CFD8DC" points="0 0 13 0 11.4 39 1.6 39"></polygon>
                                </g>
                                <circle id="形状结合" fill="#455A64" cx="16" cy="14" r="14"></circle>
                                <path d="M16,4 C10.4771525,4 6,8.4771525 6,14 L10,14 C10,10.6862915 12.6862915,8 16,8 L16,4 Z" id="形状" fill="#CFD8DC" fill-rule="nonzero"></path>
                                <polygon id="矩形" fill="#455A64" points="0 23 32 23 32 43 0 43"></polygon>
                                <polygon id="矩形备份-2" fill="#607D8B" points="0 23 27 23 27 43 0 43"></polygon>
                            </g>
                        </g>
                    </g>
                </g>
            </g>
        </g>
    </g>
</svg>