<?xml version="1.0" encoding="UTF-8"?>
<svg width="120px" height="120px" viewBox="0 0 120 120" version="1.1" xmlns="http://www.w3.org/2000/svg" xmlns:xlink="http://www.w3.org/1999/xlink">
    <!-- Generator: Sketch 56.2 (81672) - https://sketch.com -->
    <title>编组 26备份 2</title>
    <desc>Created with Sketch.</desc>
    <defs>
        <path d="M41.9871265,23.0306003 L24.8987127,40.1190142 C23.8500826,41.1676442 22.1499174,41.1676442 21.1012873,40.1190142 L4.01287347,23.0306003 C-1.23027674,17.7874501 -1.23027674,9.28662398 4.01287347,4.04347377 C9.25602368,-1.19967644 17.7568498,-1.19967644 23,4.04347377 C28.2431502,-1.19967644 36.7439763,-1.19967644 41.9871265,4.04347377 C47.2302767,9.28662398 47.2302767,17.7874501 41.9871265,23.0306003 Z" id="path-1"></path>
    </defs>
    <g id="页面-1" stroke="none" stroke-width="1" fill="none" fill-rule="evenodd">
        <g id="D3" transform="translate(-542.000000, -414.000000)">
            <g id="编组-5备份-3" transform="translate(40.000000, 332.000000)">
                <g id="编组-26备份-2" transform="translate(502.000000, 82.000000)">
                    <g id="编组-9备份-9" fill="#FFFFFF" opacity="0">
                        <rect id="矩形" x="0" y="0" width="120" height="120"></rect>
                    </g>
                    <g id="编组-25" transform="translate(10.000000, 10.000000)">
                        <g id="编组-23">
                            <path d="M50,4.33012702 L10.4487298,27.1650635 L10.4487298,72.8349365 L50,95.669873 L89.5512702,72.8349365 L89.5512702,27.1650635 L50,4.33012702 Z" id="多边形" stroke="#979797" stroke-width="7.5" fill="#CFD8DC"></path>
                            <path d="M93.3012702,25 L93.3012702,73.5566243 C93.3012702,74.4497883 92.8247729,75.2751058 92.0512702,75.7216878 L51.25,99.2783122 C50.4764973,99.7248942 49.5235027,99.7248942 48.75,99.2783122 L6.69872981,75 L93.3012702,25 Z" id="多边形" fill="#B0BEC5"></path>
                            <path d="M50,4.33012702 L10.4487298,27.1650635 L10.4487298,72.8349365 L50,95.669873 L89.5512702,72.8349365 L89.5512702,27.1650635 L50,4.33012702 Z" id="多边形" stroke="#78909C" stroke-width="7.5"></path>
                        </g>
                        <g id="编组-2" transform="translate(27.000000, 30.962963)">
                            <mask id="mask-2" fill="white">
                                <use xlink:href="#path-1"></use>
                            </mask>
                            <use id="路径" fill="#455A64" xlink:href="#path-1"></use>
                            <path d="M37.4223117,20.0768966 L20.3338978,37.1653105 C19.2852678,38.2139405 17.5851026,38.2139405 16.5364725,37.1653105 L-0.551941347,20.0768966 C-5.79509156,14.8337464 -5.79509156,6.33292028 -0.551941347,1.08977007 C4.69120887,-4.15338015 13.192035,-4.15338015 18.4351852,1.08977007 C23.6783354,-4.15338015 32.1791615,-4.15338015 37.4223117,1.08977007 C42.6654619,6.33292028 42.6654619,14.8337464 37.4223117,20.0768966 Z" id="路径" fill="#607D8B" mask="url(#mask-2)"></path>
                            <path d="M13.4987876,4.39146759 C8.44782903,4.39146759 4.35321812,8.4860785 4.35321812,13.537037 L8.64951441,13.537037 C8.64951441,10.8588574 10.820608,8.68776388 13.4987876,8.68776388 L13.4987876,4.39146759 Z" id="形状" fill="#CFD8DC" fill-rule="nonzero" mask="url(#mask-2)"></path>
                        </g>
                    </g>
                </g>
            </g>
        </g>
    </g>
</svg>