<?xml version="1.0" encoding="UTF-8"?>
<svg width="120px" height="120px" viewBox="0 0 120 120" version="1.1" xmlns="http://www.w3.org/2000/svg" xmlns:xlink="http://www.w3.org/1999/xlink">
    <!-- Generator: Sketch 56.2 (81672) - https://sketch.com -->
    <title>编组 9备份</title>
    <desc>Created with Sketch.</desc>
    <defs>
        <circle id="path-1" cx="11.7391304" cy="11.7391304" r="11.7391304"></circle>
    </defs>
    <g id="页面-1" stroke="none" stroke-width="1" fill="none" fill-rule="evenodd">
        <g id="D3a" transform="translate(-542.000000, -1038.000000)">
            <g id="编组-5备份-5" transform="translate(40.000000, 956.000000)">
                <g id="编组-9备份" transform="translate(502.000000, 82.000000)">
                    <rect id="矩形" fill="#FF8F00" opacity="0" x="0" y="0" width="120" height="120"></rect>
                    <g id="编组-7" transform="translate(11.000000, 11.000000)">
                        <g id="编组-6">
                            <path d="M49,100 C76.0619527,100 98,78.0619527 98,51 C98,23.9380473 76.0619527,2 49,2 C21.9380473,2 0,23.9380473 0,51 C0,78.0619527 21.9380473,100 49,100 Z" id="路径" fill="#FF8F00" fill-rule="nonzero"></path>
                            <path d="M49,98 C76.0619527,98 98,76.0619527 98,49 C98,21.9380473 76.0619527,0 49,0 C21.9380473,0 0,21.9380473 0,49 C0,76.0619527 21.9380473,98 49,98 Z" id="路径" fill="#FFC300" fill-rule="nonzero"></path>
                            <path d="M49,90.5 C26.0801829,90.5 7.5,71.9198171 7.5,49 C7.5,26.0801829 26.0801829,7.5 49,7.5 C71.9198171,7.5 90.5,26.0801829 90.5,49 C90.5,71.9198171 71.9198171,90.5 49,90.5 Z" id="路径" fill="#FFFFFF" fill-rule="nonzero"></path>
                            <g id="编组" transform="translate(7.500000, 7.000000)">
                                <path d="M41.5,83.5 C18.5801829,83.5 0,64.9198171 0,42 C0,19.0801829 18.5801829,0.5 41.5,0.5 C64.4198171,0.5 83,19.0801829 83,42 C83,64.9198171 64.4198171,83.5 41.5,83.5 Z" id="路径" fill="#FFE74F" fill-rule="nonzero"></path>
                                <path d="M32.8238123,82.5916626 L72.3110038,14.1978406 C78.9547836,21.5559808 83,31.3055849 83,42 C83,64.9198171 64.4198171,83.5 41.5,83.5 C38.5244065,83.5 35.6219568,83.1868338 32.8238123,82.5916626 L32.8238123,82.5916626 Z M26.4263059,80.6776234 C23.9161117,79.6986159 21.5246575,78.4822923 19.2795166,77.0562257 L60.750923,5.22564262 C63.1307614,6.47402247 65.3745042,7.94664412 67.4540792,9.61543552 L26.4263059,80.6776234 L26.4263059,80.6776234 Z" id="形状" fill="#FFD91B" fill-rule="nonzero"></path>
                                <g id="编组-9备份-7" transform="translate(13.500000, 19.000000)">
                                    <g id="编组-21">
                                        <g id="编组-20">
                                            <polygon id="矩形" fill="#1B5E20" points="9.08695652 0.196640341 46.9130435 0.196640341 46.9130435 15.1966403 9.08695652 15.1966403"></polygon>
                                            <path d="M54.291549,7.57514588 C56.3290671,9.61266393 56.3290671,12.9161334 54.291549,14.9536514 L30.311406,38.9337944 L19.2436477,27.8660361 L46.9130435,0.196640341 L54.291549,7.57514588 Z" id="矩形备份-26" fill="#388E3C"></path>
                                            <path d="M1.70845098,7.57514588 L9.08695652,0.196640341 L36.7563523,27.8660361 L25.688594,38.9337944 L1.70845098,14.9536514 C-0.329067065,12.9161334 -0.329067065,9.61266393 1.70845098,7.57514588 Z" id="矩形" fill="#00C853"></path>
                                        </g>
                                        <circle id="椭圆形" fill="#FFAB00" cx="28" cy="37.4140316" r="16.3043478"></circle>
                                        <circle id="椭圆形" fill="#FFD500" cx="28" cy="35.4140316" r="16.3043478"></circle>
                                        <g id="椭圆形-2" transform="translate(16.260870, 23.674901)">
                                            <mask id="mask-2" fill="white">
                                                <use xlink:href="#path-1"></use>
                                            </mask>
                                            <use id="椭圆形" fill="#FFE74F" xlink:href="#path-1"></use>
                                            <path d="M20.5381203,0.325098789 L22.6594407,2.44641913 L2.86045078,22.245409 L0.739130435,20.1240887 L20.5381203,0.325098789 Z M23.9774601,3.26443862 L28.2201008,7.5070793 L8.42111095,27.3060692 L4.17847026,23.0634285 L23.9774601,3.26443862 Z" id="形状" fill="#FFFFFF" mask="url(#mask-2)"></path>
                                        </g>
                                    </g>
                                </g>
                                <polygon id="路径" fill="#FFFFFF" transform="translate(26.951067, 45.451067) rotate(-30.000000) translate(-26.951067, -45.451067) " points="29.0759951 44.8816939 33.4021334 48.2774914 32.6243557 49.624642 27.5204396 47.5759951 24.124642 51.9021334 22.7774914 51.1243557 24.8261383 46.0204396 20.5 42.624642 21.2777778 41.2774914 26.3816939 43.3261383 29.7774914 39 31.124642 39.7777778"></polygon>
                            </g>
                            <path d="M7.51181205,50 C7.50395208,49.6676192 7.5,49.3342711 7.5,49 C7.5,26.0801829 26.0801829,7.5 49,7.5 C71.9198171,7.5 90.5,26.0801829 90.5,49 C90.5,49.3342711 90.4960479,49.6676192 90.4881879,50 C89.9571164,27.5421744 71.585546,9.5 49,9.5 C26.414454,9.5 8.04288362,27.5421744 7.51181205,50 Z" id="路径" fill="#FFAB00" fill-rule="nonzero"></path>
                            <path d="M7.51181205,90.5 C7.50395208,90.1676192 7.5,89.8342711 7.5,89.5 C7.5,66.5801829 26.0801829,48 49,48 C71.9198171,48 90.5,66.5801829 90.5,89.5 C90.5,89.8342711 90.4960479,90.1676192 90.4881879,90.5 C89.9571164,68.0421744 71.585546,50 49,50 C26.414454,50 8.04288362,68.0421744 7.51181205,90.5 Z" id="路径备份" fill="#FFE74F" fill-rule="nonzero" transform="translate(49.000000, 69.250000) scale(1, -1) translate(-49.000000, -69.250000) "></path>
                        </g>
                    </g>
                </g>
            </g>
        </g>
    </g>
</svg>