<?xml version="1.0" encoding="UTF-8"?>
<svg width="120px" height="120px" viewBox="0 0 120 120" version="1.1" xmlns="http://www.w3.org/2000/svg" xmlns:xlink="http://www.w3.org/1999/xlink">
    <!-- Generator: Sketch 56.2 (81672) - https://sketch.com -->
    <title>编组 26备份 2</title>
    <desc>Created with Sketch.</desc>
    <defs>
        <polygon id="path-1" points="43.3012702 -4.26325641e-14 7.5 20.669873 7.5 62.0096189 43.3012702 82.6794919 79.1025404 62.0096189 79.1025404 20.669873"></polygon>
        <path d="M41.9871265,23.0306003 L24.8987127,40.1190142 C23.8500826,41.1676442 22.1499174,41.1676442 21.1012873,40.1190142 L4.01287347,23.0306003 C-1.23027674,17.7874501 -1.23027674,9.28662398 4.01287347,4.04347377 C9.25602368,-1.19967644 17.7568498,-1.19967644 23,4.04347377 C28.2431502,-1.19967644 36.7439763,-1.19967644 41.9871265,4.04347377 C47.2302767,9.28662398 47.2302767,17.7874501 41.9871265,23.0306003 Z" id="path-3"></path>
    </defs>
    <g id="页面-1" stroke="none" stroke-width="1" fill="none" fill-rule="evenodd">
        <g id="D3a" transform="translate(-542.000000, -414.000000)">
            <g id="编组-5备份-3" transform="translate(40.000000, 332.000000)">
                <g id="编组-26备份-2" transform="translate(502.000000, 82.000000)">
                    <g id="编组-9备份-9" fill="#FFFFFF" opacity="0">
                        <rect id="矩形" x="0" y="0" width="120" height="120"></rect>
                    </g>
                    <g id="编组-25" transform="translate(10.000000, 10.000000)">
                        <g id="编组-23">
                            <g id="编组-10" transform="translate(0.000000, 3.000000)"></g>
                            <path d="M51.25,3.72168784 L92.0512702,27.2783122 C92.8247729,27.7248942 93.3012702,28.5502117 93.3012702,29.4433757 L93.3012702,76.5566243 C93.3012702,77.4497883 92.8247729,78.2751058 92.0512702,78.7216878 L51.25,102.278312 C50.4764973,102.724894 49.5235027,102.724894 48.75,102.278312 L7.94872981,78.7216878 C7.17522712,78.2751058 6.69872981,77.4497883 6.69872981,76.5566243 L6.69872981,29.4433757 C6.69872981,28.5502117 7.17522712,27.7248942 7.94872981,27.2783122 L48.75,3.72168784 C49.5235027,3.27510585 50.4764973,3.27510585 51.25,3.72168784 Z" id="多边形" fill="#E26500"></path>
                            <path d="M51.25,0.721687836 L92.0512702,24.2783122 C92.8247729,24.7248942 93.3012702,25.5502117 93.3012702,26.4433757 L93.3012702,73.5566243 C93.3012702,74.4497883 92.8247729,75.2751058 92.0512702,75.7216878 L51.25,99.2783122 C50.4764973,99.7248942 49.5235027,99.7248942 48.75,99.2783122 L7.94872981,75.7216878 C7.17522712,75.2751058 6.69872981,74.4497883 6.69872981,73.5566243 L6.69872981,26.4433757 C6.69872981,25.5502117 7.17522712,24.7248942 7.94872981,24.2783122 L48.75,0.721687836 C49.5235027,0.275105849 50.4764973,0.275105849 51.25,0.721687836 Z M50,8.66025404 L14.1987298,29.330127 L14.1987298,70.669873 L50,91.339746 L85.8012702,70.669873 L85.8012702,29.330127 L50,8.66025404 Z" id="形状" fill="#FFA001" fill-rule="nonzero"></path>
                            <g id="编组-11" transform="translate(6.698730, 8.660254)">
                                <mask id="mask-2" fill="white">
                                    <use xlink:href="#path-1"></use>
                                </mask>
                                <use id="路径" fill="#FFD500" fill-rule="nonzero" xlink:href="#path-1"></use>
                                <path d="M86.6025404,16.339746 L86.6025404,64.8963703 C86.6025404,65.7895343 86.1260431,66.6148518 85.3525404,67.0614338 L44.5512702,90.6180581 C43.7777675,91.0646401 42.8247729,91.0646401 42.0512702,90.6180581 L1.84741111e-13,66.339746 L86.6025404,16.339746 Z" id="多边形" fill="#FFC108" mask="url(#mask-2)"></path>
                            </g>
                            <polygon id="路径" fill="#FF7E01" fill-rule="nonzero" points="85.8012702 51.5 85.8012702 32.330127 50 11.660254 14.1987298 32.330127 14.1987298 51.5 14.1987298 29.330127 50 8.66025404 85.8012702 29.330127"></polygon>
                        </g>
                        <g id="编组-2" transform="translate(27.000000, 32.962963)">
                            <mask id="mask-4" fill="white">
                                <use xlink:href="#path-3"></use>
                            </mask>
                            <use id="路径" fill="#D32F2F" xlink:href="#path-3"></use>
                            <path d="M37.4223117,20.0768966 L20.3338978,37.1653105 C19.2852678,38.2139405 17.5851026,38.2139405 16.5364725,37.1653105 L-0.551941347,20.0768966 C-5.79509156,14.8337464 -5.79509156,6.33292028 -0.551941347,1.08977007 C4.69120887,-4.15338015 13.192035,-4.15338015 18.4351852,1.08977007 C23.6783354,-4.15338015 32.1791615,-4.15338015 37.4223117,1.08977007 C42.6654619,6.33292028 42.6654619,14.8337464 37.4223117,20.0768966 Z" id="路径" fill="#F44336" mask="url(#mask-4)"></path>
                            <path d="M13.4987876,4.39146759 C8.44782903,4.39146759 4.35321812,8.4860785 4.35321812,13.537037 L8.64951441,13.537037 C8.64951441,10.8588574 10.820608,8.68776388 13.4987876,8.68776388 L13.4987876,4.39146759 Z" id="形状" fill="#FFFFFF" fill-rule="nonzero" mask="url(#mask-4)"></path>
                        </g>
                    </g>
                </g>
            </g>
        </g>
    </g>
</svg>