<?xml version="1.0" encoding="UTF-8"?>
<svg width="200px" height="200px" viewBox="0 0 200 200" version="1.1" xmlns="http://www.w3.org/2000/svg" xmlns:xlink="http://www.w3.org/1999/xlink">
    <!-- Generator: Sketch 56.2 (81672) - https://sketch.com -->
    <title>编组 6</title>
    <desc>Created with Sketch.</desc>
    <g id="页面-1" stroke="none" stroke-width="1" fill="none" fill-rule="evenodd">
        <g id="C1" transform="translate(-275.000000, -388.000000)">
            <g id="编组-6" transform="translate(275.000000, 388.000000)">
                <rect id="矩形" fill="#FFFFFF" opacity="0" x="0" y="0" width="200" height="200"></rect>
                <g id="编组-2" transform="translate(14.000000, 31.000000)">
                    <path d="M136.126524,121.040168 L136.126524,97.4305577 L107.126524,104.046691 L107.126524,128.491549 L136.126524,121.040168 L136.126524,121.040168 Z M136.126524,126.149133 L86.4710616,137.477655 L85.1265237,134.144322 L95.1265237,131.57488 L95.1265237,92.5262794 L107.126524,92.5262794 L107.126524,100.060991 L136.126524,92.6096097 L136.126524,89.5262794 L148.126524,89.5262794 L148.126524,129.526279 L136.126524,129.526279 L136.126524,126.149133 L136.126524,126.149133 Z M70.1265237,54.2505593 L115.126524,42.336979 L115.126524,28.5262794 L127.126524,28.5262794 L127.126524,39.1600243 L161.626524,30.0262794 L161.626524,37.0262794 L70.1265237,58.7294126 L70.1265237,109.526279 L58.1265237,109.526279 L58.1265237,61.5757252 L41.4710616,65.5262794 L40.1265237,62.1929461 L58.1265237,57.427514 L58.1265237,35.9582246 L44.0494105,40.0201721 L42,35.8521779 L78.21858,14.9981619 L88.6579484,27.1483896 L70.1265237,32.4956276 L70.1265237,54.2505593 Z M33.1265237,53.0528788 L33.1265237,102.526279 L20.1265237,102.526279 L20.1265237,56.8040256 L2.04941054,62.0201721 L1.27897692e-13,57.8521779 L36.21858,36.9981619 L46.6579484,49.1483896 L33.1265237,53.0528788 Z M149.126524,51.8665722 L149.126524,57.2059503 L91.4710616,70.3596128 L90.1265237,67.0262794 L149.126524,51.8665722 Z M149.126524,69.5262794 L149.126524,74.8656575 L91.4710616,88.01932 L90.1265237,84.6859867 L149.126524,69.5262794 Z" id="形状" fill="#282D4B"></path>
                    <path d="M150.045108,20.2846097 L147.702351,18.342384 L162.911133,-1.36601841e-12 L172.437413,5.5 L150.045108,20.2846097 Z M140.193071,15.3488384 L135.865474,16.7167964 L133.278039,3.32602533 L141.71212,0.462449654 L140.193071,15.3488384 Z" id="形状" fill="#FFD100"></path>
                </g>
            </g>
        </g>
    </g>
</svg>