<?xml version="1.0" encoding="UTF-8"?>
<svg width="64px" height="64px" viewBox="0 0 64 64" version="1.1" xmlns="http://www.w3.org/2000/svg" xmlns:xlink="http://www.w3.org/1999/xlink">
    <!-- Generator: Sketch 56.2 (81672) - https://sketch.com -->
    <title>编组 6</title>
    <desc>Created with Sketch.</desc>
    <g id="页面-1" stroke="none" stroke-width="1" fill="none" fill-rule="evenodd">
        <g id="C5" transform="translate(-606.000000, -1284.000000)" fill="#FFFFFF">
            <g id="编组-3" transform="translate(40.000000, 1224.000000)">
                <g id="编组-6" transform="translate(566.000000, 60.000000)">
                    <rect id="矩形" opacity="0" x="0" y="0" width="64" height="64"></rect>
                    <path d="M48,48.3816879 L48,13 L16,13 L16,21.9372435 L48,48.3816879 Z M16,28.4236111 L16,48.3816879 L28.0754751,38.4026495 L16,28.4236111 Z M32,41.6458333 L16.2384633,54.6709921 C14.8761359,55.7968043 12.8591003,55.6050709 11.7332881,54.2427436 C11.259297,53.6691744 11,52.9483563 11,52.2042803 L11,11.2 C11,9.4326888 12.4326888,8 14.2,8 L49.8,8 C51.5673112,8 53,9.4326888 53,11.2 L53,52.2042803 C53,52.9483563 52.740703,53.6691744 52.2667119,54.2427436 C51.1408997,55.6050709 49.1238641,55.7968043 47.7615367,54.6709921 L32,41.6458333 Z" id="形状" fill-rule="nonzero"></path>
                </g>
            </g>
        </g>
    </g>
</svg>