<?xml version="1.0" encoding="UTF-8"?>
<svg width="64px" height="64px" viewBox="0 0 64 64" version="1.1" xmlns="http://www.w3.org/2000/svg" xmlns:xlink="http://www.w3.org/1999/xlink">
    <!-- Generator: Sketch 56.2 (81672) - https://sketch.com -->
    <title>编组 2备份</title>
    <desc>Created with Sketch.</desc>
    <g id="页面-1" stroke="none" stroke-width="1" fill="none" fill-rule="evenodd">
        <g id="C2a" transform="translate(-88.000000, -864.000000)">
            <g id="编组-2" transform="translate(40.000000, 712.000000)">
                <g id="编组-12" transform="translate(40.000000, 144.000000)">
                    <g id="编组-2备份" transform="translate(8.000000, 8.000000)">
                        <circle id="椭圆形" fill="#282D4B" cx="32" cy="32" r="32"></circle>
                        <path d="M41.1213203,43.1213203 C40.5784271,43.6642136 39.8284271,44 39,44 L26,44 C24.3431458,44 23,42.6568542 23,41 C23,39.3431458 24.3431458,38 26,38 L36,38 L36,15 C36,13.3431458 37.3431458,12 39,12 C40.6568542,12 42,13.3431458 42,15 L42,41 C42,41.8284271 41.6642136,42.5784271 41.1213203,43.1213203 Z" id="形状结合" fill="#FFFFFF" transform="translate(32.500000, 28.000000) rotate(-315.000000) translate(-32.500000, -28.000000) "></path>
                    </g>
                </g>
            </g>
        </g>
    </g>
</svg>