<?xml version="1.0" encoding="UTF-8"?>
<svg width="96px" height="96px" viewBox="0 0 96 96" version="1.1" xmlns="http://www.w3.org/2000/svg" xmlns:xlink="http://www.w3.org/1999/xlink">
    <!-- Generator: Sketch 56.2 (81672) - https://sketch.com -->
    <title>编组 13</title>
    <desc>Created with Sketch.</desc>
    <defs>
        <path d="M13.6411948,0 L48.3588052,0 C49.7066558,-1.57986377e-15 50.9638738,0.678807628 51.7032505,1.80576077 L60.4025978,15.0652498 C61.3547398,16.5164986 61.262285,18.4161944 60.1737171,19.7681255 L34.1155646,52.1306697 C32.730083,53.8513486 30.2120424,54.1230796 28.4913635,52.7375979 C28.267871,52.5576428 28.0643904,52.3541623 27.8844354,52.1306697 L1.82628287,19.7681255 C0.73771498,18.4161944 0.645260152,16.5164986 1.59740224,15.0652498 L10.2967495,1.80576077 C11.0361262,0.678807628 12.2933442,-1.96493071e-16 13.6411948,0 Z" id="path-1"></path>
        <path d="M13.6411948,0 L48.3588052,0 C49.7066558,-1.57986377e-15 50.9638738,0.678807628 51.7032505,1.80576077 L60.4025978,15.0652498 C61.3547398,16.5164986 61.262285,18.4161944 60.1737171,19.7681255 L34.1155646,52.1306697 C32.730083,53.8513486 30.2120424,54.1230796 28.4913635,52.7375979 C28.267871,52.5576428 28.0643904,52.3541623 27.8844354,52.1306697 L1.82628287,19.7681255 C0.73771498,18.4161944 0.645260152,16.5164986 1.59740224,15.0652498 L10.2967495,1.80576077 C11.0361262,0.678807628 12.2933442,-1.96493071e-16 13.6411948,0 Z" id="path-3"></path>
    </defs>
    <g id="页面-1" stroke="none" stroke-width="1" fill="none" fill-rule="evenodd">
        <g id="画板" transform="translate(-1374.000000, -703.000000)">
            <g id="编组-13" transform="translate(1374.000000, 703.000000)">
                <rect id="矩形" fill="#FFFFFF" opacity="0" x="0" y="0" width="96" height="96"></rect>
                <g id="编组-13备份">
                    <g id="编组-12" transform="translate(33.000000, 35.000000)">
                        <g id="编组-4备份-3">
                            <g id="编组-2">
                                <mask id="mask-2" fill="white">
                                    <use xlink:href="#path-1"></use>
                                </mask>
                                <use id="矩形" fill="#D8D8D8" xlink:href="#path-1"></use>
                                <rect id="矩形" fill="#90A4AE" mask="url(#mask-2)" x="31" y="0" width="31" height="17"></rect>
                                <rect id="矩形备份-4" fill="#FFD500" mask="url(#mask-2)" x="0" y="0" width="31" height="17"></rect>
                                <rect id="矩形" fill="#78909C" mask="url(#mask-2)" x="31" y="17" width="31" height="40"></rect>
                                <polygon id="路径" fill="#90A4AE" mask="url(#mask-2)" points="0 17 42 17 31 61 30 57 0 57"></polygon>
                                <polygon id="矩形" fill="#CFD8DC" mask="url(#mask-2)" points="12 0 50 0 42 17 20 17"></polygon>
                                <path d="M-12.3588052,0 L22.3588052,0 C23.7066558,-1.57986377e-15 24.9638738,0.678807628 25.7032505,1.80576077 L34.4025978,15.0652498 C35.3547398,16.5164986 35.262285,18.4161944 34.1737171,19.7681255 L8.11556465,52.1306697 C6.73008298,53.8513486 4.21204237,54.1230796 2.49136353,52.7375979 C2.26787097,52.5576428 2.0643904,52.3541623 1.88443535,52.1306697 L-24.1737171,19.7681255 C-25.262285,18.4161944 -25.3547398,16.5164986 -24.4025978,15.0652498 L-15.7032505,1.80576077 C-14.9638738,0.678807628 -13.7066558,-1.96493071e-16 -12.3588052,0 Z" id="矩形" fill="#78909C" opacity="0.5" mask="url(#mask-2)"></path>
                            </g>
                        </g>
                    </g>
                    <g id="编组-12备份">
                        <rect id="矩形" x="0" y="30" width="64" height="64"></rect>
                        <g id="编组-4备份-3">
                            <rect id="矩形" fill="#FFFFFF" opacity="0" x="0" y="30" width="64" height="64"></rect>
                            <g id="编组-2" transform="translate(1.000000, 35.000000)">
                                <mask id="mask-4" fill="white">
                                    <use xlink:href="#path-3"></use>
                                </mask>
                                <use id="矩形" fill="#D8D8D8" xlink:href="#path-3"></use>
                                <rect id="矩形" fill="#90A4AE" mask="url(#mask-4)" x="31" y="0" width="31" height="17"></rect>
                                <polygon id="路径" fill="#CFD8DC" mask="url(#mask-4)" points="0 0 50 0 42 17 0 17"></polygon>
                                <rect id="矩形" fill="#78909C" mask="url(#mask-4)" x="31" y="17" width="31" height="40"></rect>
                                <polygon id="路径" fill="#90A4AE" mask="url(#mask-4)" points="0 17 42 17 31 61 30 57 0 57"></polygon>
                            </g>
                            <polygon id="路径" fill="#FFFFFF" points="45 49 52 50 52 52 45 53 44 60 42 60 41 53 34 52 34 50 41 49 42 42 44 42"></polygon>
                            <polygon id="路径备份-4" fill="#78909C" points="70 7 77 8 77 10 70 11 69 18 67 18 66 11 59 10 59 8 66 7 67 0 69 0"></polygon>
                            <polygon id="路径备份-5" fill="#78909C" points="31 20 38 21 38 23 31 24 30 31 28 31 27 24 20 23 20 21 27 20 28 13 30 13"></polygon>
                        </g>
                    </g>
                </g>
            </g>
        </g>
    </g>
</svg>