<?xml version="1.0" encoding="UTF-8"?>
<svg width="64px" height="64px" viewBox="0 0 64 64" version="1.1" xmlns="http://www.w3.org/2000/svg" xmlns:xlink="http://www.w3.org/1999/xlink">
    <!-- Generator: Sketch 56.2 (81672) - https://sketch.com -->
    <title>编组 16</title>
    <desc>Created with Sketch.</desc>
    <defs>
        <circle id="path-1" cx="28" cy="28" r="28"></circle>
        <path d="M17,17 C26.3888407,17 34,9.38884075 34,0 L0,0 C0,9.38884075 7.61115925,17 17,17 Z" id="path-3"></path>
    </defs>
    <g id="页面-1" stroke="none" stroke-width="1" fill="none" fill-rule="evenodd">
        <g id="D1" transform="translate(-582.000000, -1488.000000)">
            <g id="编组-14" transform="translate(0.000000, 1448.000000)">
                <g id="编组-16" transform="translate(582.000000, 40.000000)">
                    <rect id="矩形备份-2" x="0" y="0" width="64" height="64"></rect>
                    <g id="编组-15" transform="translate(4.000000, 4.000000)">
                        <g id="编组-9">
                            <mask id="mask-2" fill="white">
                                <use xlink:href="#path-1"></use>
                            </mask>
                            <use id="椭圆形" fill="#FBC02E" xlink:href="#path-1"></use>
                            <circle id="椭圆形" fill="#FFD500" mask="url(#mask-2)" cx="28" cy="24" r="28"></circle>
                        </g>
                        <polygon id="路径备份-2" fill="#FFFFFF" points="53 7 60 8 60 10 53 11 52 18 50 18 49 11 42 10 42 8 49 7 50 0 52 0"></polygon>
                        <g id="编组-7" transform="translate(11.000000, 29.000000)">
                            <mask id="mask-4" fill="white">
                                <use xlink:href="#path-3"></use>
                            </mask>
                            <use id="椭圆形" fill="#F57F17" xlink:href="#path-3"></use>
                        </g>
                        <circle id="椭圆形" fill="#F57F17" cx="19" cy="17" r="4"></circle>
                        <circle id="椭圆形备份-3" fill="#F57F17" cx="37" cy="17" r="4"></circle>
                    </g>
                </g>
            </g>
        </g>
    </g>
</svg>