<?xml version="1.0" encoding="UTF-8"?>
<svg width="120px" height="120px" viewBox="0 0 120 120" version="1.1" xmlns="http://www.w3.org/2000/svg" xmlns:xlink="http://www.w3.org/1999/xlink">
    <!-- Generator: Sketch 56.2 (81672) - https://sketch.com -->
    <title>编组 9</title>
    <desc>Created with Sketch.</desc>
    <defs>
        <circle id="path-1" cx="11.7391304" cy="11.7391304" r="11.7391304"></circle>
    </defs>
    <g id="页面-1" stroke="none" stroke-width="1" fill="none" fill-rule="evenodd">
        <g id="D3" transform="translate(-542.000000, -1030.000000)">
            <g id="编组-5备份-5" transform="translate(40.000000, 948.000000)">
                <g id="编组-9" transform="translate(502.000000, 82.000000)">
                    <rect id="矩形" fill="#FFFFFF" opacity="0" x="0" y="0" width="120" height="120"></rect>
                    <g id="编组-7" transform="translate(11.000000, 11.000000)">
                        <g id="编组-6">
                            <path d="M49,98 C76.0619527,98 98,76.0619527 98,49 C98,21.9380473 76.0619527,0 49,0 C21.9380473,0 0,21.9380473 0,49 C0,76.0619527 21.9380473,98 49,98 Z" id="椭圆形" fill="#78909C" fill-rule="nonzero"></path>
                            <path d="M49,90.5 C26.0801829,90.5 7.5,71.9198171 7.5,49 C7.5,26.0801829 26.0801829,7.5 49,7.5 C71.9198171,7.5 90.5,26.0801829 90.5,49 C90.5,71.9198171 71.9198171,90.5 49,90.5 Z" id="路径" fill="#CFD8DC" fill-rule="nonzero"></path>
                            <path d="M13.0599457,69.75 L84.9400543,28.25 C96.3999628,48.0991439 89.5991439,73.4801457 69.75,84.9400543 C49.9008561,96.3999628 24.5198543,89.5991439 13.0599457,69.75 Z" id="路径" fill="#B0BEC5" fill-rule="nonzero"></path>
                            <g id="编组-9备份-7" transform="translate(19.000000, 25.000000)">
                                <g id="编组-21">
                                    <g id="编组-20">
                                        <rect id="矩形" fill="#78909C" x="11.0869565" y="0.196640341" width="37.826087" height="15"></rect>
                                        <path d="M38.0035291,0 L48.4383117,0 L48.4383117,39.1304348 L32.7861378,39.1304348 L32.7861378,5.2173913 C32.7861378,2.33590565 35.1220434,2.30567717e-15 38.0035291,0 Z" id="矩形备份-26" fill="#607D8B" transform="translate(40.612225, 19.565217) scale(-1, 1) rotate(-45.000000) translate(-40.612225, -19.565217) "></path>
                                        <path d="M16.7790796,0 L27.2138622,0 L27.2138622,39.1304348 L11.5616883,39.1304348 L11.5616883,5.2173913 C11.5616883,2.33590565 13.897594,2.30567717e-15 16.7790796,0 Z" id="矩形" fill="#B0BEC5" transform="translate(19.387775, 19.565217) rotate(-45.000000) translate(-19.387775, -19.565217) "></path>
                                    </g>
                                    <circle id="椭圆形" fill="#455A64" cx="30" cy="35.4140316" r="16.3043478"></circle>
                                    <g id="椭圆形-2" transform="translate(18.260870, 23.674901)">
                                        <mask id="mask-2" fill="white">
                                            <use xlink:href="#path-1"></use>
                                        </mask>
                                        <use id="椭圆形" fill="#607D8B" xlink:href="#path-1"></use>
                                        <polygon id="路径" fill="#CFD8DC" mask="url(#mask-2)" points="15.517305 -2.69571649 19.7599457 1.5469242 -0.0390441583 21.3459141 -4.28168485 17.1032734"></polygon>
                                    </g>
                                </g>
                            </g>
                        </g>
                    </g>
                </g>
            </g>
        </g>
    </g>
</svg>