<?xml version="1.0" encoding="UTF-8"?>
<svg width="64px" height="64px" viewBox="0 0 64 64" version="1.1" xmlns="http://www.w3.org/2000/svg" xmlns:xlink="http://www.w3.org/1999/xlink">
    <!-- Generator: Sketch 56.2 (81672) - https://sketch.com -->
    <title>编组 3</title>
    <desc>Created with Sketch.</desc>
    <g id="页面-1" stroke="none" stroke-width="1" fill="none" fill-rule="evenodd">
        <g id="C2" transform="translate(-646.000000, -228.000000)">
            <g id="编组-3" transform="translate(646.000000, 228.000000)">
                <rect id="矩形" fill="#FFFFFF" opacity="0" x="0" y="0" width="64" height="64"></rect>
                <g id="编组-13" transform="translate(8.000000, 13.000000)">
                    <path d="M39.2082527,5.27911948 C38.2111694,4.28203618 38.2111694,2.66544475 39.2082527,1.66836145 C40.205336,0.67127815 41.8219275,0.67127815 42.8190108,1.66836145 C52.3910104,11.2403611 52.3910104,26.7596389 42.8190108,36.3316386 C41.8219275,37.3287218 40.205336,37.3287218 39.2082527,36.3316386 C38.2111694,35.3345553 38.2111694,33.7179638 39.2082527,32.7208805 C46.7860858,25.1430475 46.7860858,12.8569525 39.2082527,5.27911948 Z M35.9585705,29.4711983 C34.9614872,30.4682816 33.3448958,30.4682816 32.3478125,29.4711983 C31.3507292,28.474115 31.3507292,26.8575236 32.3478125,25.8604403 C36.136729,22.0715237 36.136729,15.9284763 32.3478125,12.1395597 C31.3507292,11.1424764 31.3507292,9.52588501 32.3478125,8.52880171 C33.3448958,7.53171841 34.9614872,7.53171841 35.9585705,8.52880171 C41.7416536,14.3118848 41.7416536,23.6881152 35.9585705,29.4711983 Z" id="形状" fill="#3380FF" fill-rule="nonzero"></path>
                    <path d="M14.4510638,9.29787955 L23.3919875,1.16976713 C24.2266924,0.410944475 25.5185017,0.472459205 26.2773244,1.30716413 C26.6191215,1.68314091 26.8085106,2.17301621 26.8085106,2.68113409 L26.8085106,35.3188803 C26.8085106,36.4469513 25.8940284,37.3614335 24.7659574,37.3614335 C24.2578396,37.3614335 23.7679643,37.1720444 23.3919875,36.8302473 L14.4510638,28.7021349 L4.08510638,28.7021349 C1.82896443,28.7021349 2.16640442e-15,26.8731704 0,24.6170285 L0,13.3829859 C-2.76297703e-16,11.126844 1.82896443,9.29787955 4.08510638,9.29787955 L14.4510638,9.29787955 Z" id="形状结合" fill="#16357B"></path>
                </g>
            </g>
        </g>
    </g>
</svg>