<?xml version="1.0" encoding="UTF-8"?>
<svg width="120px" height="120px" viewBox="0 0 120 120" version="1.1" xmlns="http://www.w3.org/2000/svg" xmlns:xlink="http://www.w3.org/1999/xlink">
    <!-- Generator: Sketch 56.2 (81672) - https://sketch.com -->
    <title>编组 9</title>
    <desc>Created with Sketch.</desc>
    <defs>
        <circle id="path-1" cx="14" cy="14.2624954" r="14"></circle>
    </defs>
    <g id="页面-1" stroke="none" stroke-width="1" fill="none" fill-rule="evenodd">
        <g id="D3a" transform="translate(-542.000000, -722.000000)">
            <g id="编组-5备份-4" transform="translate(40.000000, 648.000000)">
                <g id="编组-9" transform="translate(502.000000, 74.000000)">
                    <rect id="矩形" fill="#FFFFFF" opacity="0" x="0" y="0" width="120" height="120"></rect>
                    <g id="编组-7" transform="translate(11.000000, 11.000000)">
                        <g id="编组-6">
                            <path d="M49,100 C76.0619527,100 98,78.0619527 98,51 C98,23.9380473 76.0619527,2 49,2 C21.9380473,2 0,23.9380473 0,51 C0,78.0619527 21.9380473,100 49,100 Z" id="路径" fill="#8F9EA6" fill-rule="nonzero"></path>
                            <path d="M49,98 C76.0619527,98 98,76.0619527 98,49 C98,21.9380473 76.0619527,0 49,0 C21.9380473,0 0,21.9380473 0,49 C0,76.0619527 21.9380473,98 49,98 Z" id="路径" fill="#CFD8DC" fill-rule="nonzero"></path>
                            <path d="M49,90.5 C26.0801829,90.5 7.5,71.9198171 7.5,49 C7.5,26.0801829 26.0801829,7.5 49,7.5 C71.9198171,7.5 90.5,26.0801829 90.5,49 C90.5,71.9198171 71.9198171,90.5 49,90.5 Z" id="路径" fill="#FFFFFF" fill-rule="nonzero"></path>
                            <g id="编组" transform="translate(7.500000, 7.000000)" fill-rule="nonzero">
                                <path d="M41.5,83.5 C18.5801829,83.5 0,64.9198171 0,42 C0,19.0801829 18.5801829,0.5 41.5,0.5 C64.4198171,0.5 83,19.0801829 83,42 C83,64.9198171 64.4198171,83.5 41.5,83.5 Z" id="路径" fill="#FFFFFF"></path>
                                <path d="M32.8238123,82.5916626 L72.3110038,14.1978406 C78.9547836,21.5559808 83,31.3055849 83,42 C83,64.9198171 64.4198171,83.5 41.5,83.5 C38.5244065,83.5 35.6219568,83.1868338 32.8238123,82.5916626 L32.8238123,82.5916626 Z M26.4263059,80.6776234 C23.9161117,79.6986159 21.5246575,78.4822923 19.2795166,77.0562257 L60.750923,5.22564262 C63.1307614,6.47402247 65.3745042,7.94664412 67.4540792,9.61543552 L26.4263059,80.6776234 L26.4263059,80.6776234 Z" id="形状" fill="#ECEFF1"></path>
                            </g>
                            <path d="M7.51181205,50 C7.50395208,49.6676192 7.5,49.3342711 7.5,49 C7.5,26.0801829 26.0801829,7.5 49,7.5 C71.9198171,7.5 90.5,26.0801829 90.5,49 C90.5,49.3342711 90.4960479,49.6676192 90.4881879,50 C89.9571164,27.5421744 71.585546,9.5 49,9.5 C26.414454,9.5 8.04288362,27.5421744 7.51181205,50 Z" id="路径" fill="#B0BEC5" fill-rule="nonzero"></path>
                            <path d="M7.51181205,90.5 C7.50395208,90.1676192 7.5,89.8342711 7.5,89.5 C7.5,66.5801829 26.0801829,48 49,48 C71.9198171,48 90.5,66.5801829 90.5,89.5 C90.5,89.8342711 90.4960479,90.1676192 90.4881879,90.5 C89.9571164,68.0421744 71.585546,50 49,50 C26.414454,50 8.04288362,68.0421744 7.51181205,90.5 Z" id="路径备份" fill="#FFFFFF" fill-rule="nonzero" transform="translate(49.000000, 69.250000) scale(1, -1) translate(-49.000000, -69.250000) "></path>
                            <g id="编组-5" transform="translate(48.750000, 48.066987) rotate(-30.000000) translate(-48.750000, -48.066987) translate(32.750000, 18.066987)">
                                <g id="编组-4" transform="translate(8.000000, 21.000000)">
                                    <polygon id="矩形" fill="#16357B" points="0 0 16 0 14.4 39 1.6 39"></polygon>
                                    <polygon id="路径" fill="#2265D5" points="0 0 13 0 11.4 39 1.6 39"></polygon>
                                </g>
                                <g id="编组-12" transform="translate(2.000000, 0.737505)">
                                    <mask id="mask-2" fill="white">
                                        <use xlink:href="#path-1"></use>
                                    </mask>
                                    <use id="形状结合" fill="#16357B" xlink:href="#path-1"></use>
                                    <circle id="形状结合备份-2" fill="#2265D5" mask="url(#mask-2)" cx="10.7237206" cy="13.4371778" r="14"></circle>
                                </g>
                                <path d="M16,5 C10.4771525,5 6,9.4771525 6,15 L10,15 C10,11.6862915 12.6862915,9 16,9 L16,5 Z" id="形状" fill="#FFFFFF" fill-rule="nonzero"></path>
                                <polygon id="矩形" fill="#388E3C" points="0 24 32 24 32 44 0 44"></polygon>
                                <polygon id="矩形备份-2" fill="#00C853" points="0 24 27 24 27 44 0 44"></polygon>
                                <polygon id="矩形备份-10" fill="#2265D5" points="3.40192379 37.8923048 11.4019238 37.8923048 11.4019238 40.8923048 3.40192379 40.8923048"></polygon>
                                <polygon id="路径" fill="#FFFFFF" points="24.9730046 24.0694112 29.2991429 27.4652088 28.5213651 28.8123594 23.4174491 26.7637125 20.0216515 31.0898508 18.6745009 30.312073 20.7231478 25.2081569 16.3970095 21.8123594 17.1747873 20.4652088 22.2787034 22.5138557 25.6745009 18.1877174 27.0216515 18.9654951"></polygon>
                            </g>
                        </g>
                    </g>
                </g>
            </g>
        </g>
    </g>
</svg>