<?xml version="1.0" encoding="UTF-8"?>
<svg width="96px" height="96px" viewBox="0 0 96 96" version="1.1" xmlns="http://www.w3.org/2000/svg" xmlns:xlink="http://www.w3.org/1999/xlink">
    <!-- Generator: Sketch 56.2 (81672) - https://sketch.com -->
    <title>编组 9备份</title>
    <desc>Created with Sketch.</desc>
    <defs>
        <path d="M25,50 C11.1928813,50 0,38.8071187 0,25 C0,11.1928813 11.1928813,0 25,0 C38.8071187,0 50,11.1928813 50,25 C50,38.8071187 38.8071187,50 25,50 Z" id="path-1"></path>
    </defs>
    <g id="页面-1" stroke="none" stroke-width="1" fill="none" fill-rule="evenodd">
        <g id="画板" transform="translate(-1073.000000, -415.000000)">
            <g id="编组-7" transform="translate(1017.000000, 359.000000)">
                <g id="编组-9备份" transform="translate(56.000000, 56.000000)">
                    <rect id="矩形" fill="#FFFFFF" opacity="0" x="0" y="0" width="96" height="96"></rect>
                    <polygon id="矩形" fill="#00C853" points="12 9 84 9 84 31.5306122 48 55 12 31.5306122"></polygon>
                    <rect id="矩形" fill="#FFFFFF" x="36" y="9" width="24" height="40"></rect>
                    <path d="M48,92 C64.0162577,92 77,79.0162577 77,63 C77,46.9837423 64.0162577,34 48,34 C31.9837423,34 19,46.9837423 19,63 C19,79.0162577 31.9837423,92 48,92 Z" id="椭圆形" fill="#B0BEC5" fill-rule="nonzero"></path>
                    <g id="编组-6" transform="translate(23.000000, 38.000000)">
                        <mask id="mask-2" fill="white">
                            <use xlink:href="#path-1"></use>
                        </mask>
                        <use id="路径" fill="#ECEFF1" fill-rule="nonzero" xlink:href="#path-1"></use>
                        <path d="M53.9868603,-5.57883832 L67.8432667,2.42116168 L34.8432667,59.5788383 L20.9868603,51.5788383 L53.9868603,-5.57883832 Z M42.5,-7.76185103 L46.830127,-5.26185103 L13.330127,52.761851 L9,50.261851 L42.5,-7.76185103 Z" id="形状" fill="#CFD8DC" mask="url(#mask-2)"></path>
                    </g>
                    <path d="M39.09,74.62 L39.09,49.54 C39.09,49.312 39.242,49.16 39.47,49.16 L49.996,49.16 C55.772,49.16 58.432,51.934 58.432,56.038 C58.432,58.698 57.216,60.56 55.278,61.586 L55.278,61.662 C57.178,62.384 58.888,64.55 58.888,67.552 C58.888,72.606 55.316,75 49.882,75 L39.47,75 C39.242,75 39.09,74.848 39.09,74.62 Z M46.006,59.534 L48.704,59.534 C50.718,59.534 51.782,58.66 51.782,56.874 C51.782,55.05 50.756,54.214 48.704,54.214 L46.006,54.214 C45.854,54.214 45.778,54.29 45.778,54.442 L45.778,59.306 C45.778,59.458 45.854,59.534 46.006,59.534 Z M45.778,69.718 C45.778,69.87 45.854,69.946 46.006,69.946 L49.046,69.946 C51.136,69.946 52.2,68.92 52.2,67.02 C52.2,65.234 51.136,64.132 49.046,64.132 L46.006,64.132 C45.854,64.132 45.778,64.208 45.778,64.36 L45.778,69.718 Z" id="B" fill="#455A64" fill-rule="nonzero"></path>
                </g>
            </g>
        </g>
    </g>
</svg>