<?xml version="1.0" encoding="UTF-8"?>
<svg width="96px" height="96px" viewBox="0 0 96 96" version="1.1" xmlns="http://www.w3.org/2000/svg" xmlns:xlink="http://www.w3.org/1999/xlink">
    <!-- Generator: Sketch 56.2 (81672) - https://sketch.com -->
    <title>编组 34</title>
    <desc>Created with Sketch.</desc>
    <g id="页面-1" stroke="none" stroke-width="1" fill="none" fill-rule="evenodd">
        <g id="画板" transform="translate(-1222.000000, -703.000000)">
            <g id="编组-34" transform="translate(1222.000000, 703.000000)">
                <rect id="矩形" fill="#FFFFFF" opacity="0" x="0" y="0" width="96" height="96"></rect>
                <g id="编组-33" transform="translate(6.000000, 7.000000)">
                    <path d="M2,24 L42,24 L42,77 L2,77 C0.8954305,77 0,76.1045695 0,75 L0,26 C0,24.8954305 0.8954305,24 2,24 Z" id="矩形" fill="#90A4AE"></path>
                    <path d="M42,24 L82,24 C83.1045695,24 84,24.8954305 84,26 L84,75 C84,76.1045695 83.1045695,77 82,77 L42,77 L42,24 Z" id="矩形备份-25" fill="#78909C"></path>
                    <polygon id="矩形备份-28" fill="#CFD8DC" points="8 11 42 23.6 42 77 8 64.4"></polygon>
                    <polygon id="矩形备份-29" fill="#B0BEC5" points="76 11 76 64.4 42 77 42 23.6"></polygon>
                    <path d="M72,20 L72,25.55 L46,35 L46,29.45 L72,20 Z M72,31 L72,36.55 L46,46 L46,40.45 L72,31 Z" id="形状" fill="#90A4AE"></path>
                    <path d="M34,22.3946137 L34,33 L28,30 L22,33 L22,22.3946137 C18.4131918,20.3197571 16,16.4416941 16,12 C16,5.372583 21.372583,0 28,0 C34.627417,0 40,5.372583 40,12 C40,16.4416941 37.5868082,20.3197571 34,22.3946137 L34,22.3946137 Z" id="路径" fill="#78909C"></path>
                    <circle id="椭圆形" fill="#CFD8DC" cx="28" cy="12" r="8"></circle>
                </g>
            </g>
        </g>
    </g>
</svg>