<?xml version="1.0" encoding="UTF-8"?>
<svg width="184px" height="184px" viewBox="0 0 184 184" version="1.1" xmlns="http://www.w3.org/2000/svg" xmlns:xlink="http://www.w3.org/1999/xlink">
    <!-- Generator: Sketch 56.2 (81672) - https://sketch.com -->
    <title>编组 5备份 6</title>
    <desc>Created with Sketch.</desc>
    <defs>
        <rect id="path-1" x="0" y="0" width="184" height="184" rx="92"></rect>
    </defs>
    <g id="页面-1" stroke="none" stroke-width="1" fill="none" fill-rule="evenodd">
        <g id="画板" transform="translate(-88.000000, -623.000000)">
            <g id="编组-5备份-6" transform="translate(88.000000, 623.000000)">
                <mask id="mask-2" fill="white">
                    <use xlink:href="#path-1"></use>
                </mask>
                <use id="矩形" fill="#FFD100" xlink:href="#path-1"></use>
                <g id="编组-4" mask="url(#mask-2)">
                    <g transform="translate(13.000000, 16.000000)">
                        <g id="编组-2">
                            <path d="M99.9601791,1.13828688 C109.173426,3.49141845 116.307385,13.0623154 115,25.8231941 C114.102485,34.5834955 112.080863,45.4755536 110.901505,51.9693785 C111.394195,51.8562995 111.905668,51.7991575 112.435458,51.7991575 C117.549781,51.7991575 121.111958,54.5299578 119.712158,59.375855 C118.228735,64.5112408 115.804495,69.30852 113.262081,71.5088828 C111.895573,72.6915442 109.991166,73.3525284 108.184259,73.5026116 C108.111425,73.9322177 108.037006,74.3607864 107.961,74.7883178 C106.727981,81.7240495 103.880776,88.9310934 99.7587976,94.4740233 C97.7897445,97.1218596 95.5739226,99.3481724 93.1230347,101.096147 C93.0768686,101.227657 93.0293665,101.358921 92.9805564,101.489922 C92.9704079,104.526879 92.9626292,107.263846 92.9572204,109.700823 L92.9567028,109.874165 C92.9437667,115.824952 92.9451897,119.958125 92.9609717,122.273684 C93,128 98.771498,131.873684 106.097814,134.652632 C113.42413,137.431579 132.118866,137.431579 149.045182,159.410526 C157.129393,170.357895 159.739919,176.252632 156.876761,177.094737 L79,177.007 L1.12323887,177.094737 C-1.73991903,176.252632 0.870607287,170.357895 8.95481781,159.410526 C25.8811336,137.431579 44.5758704,137.431579 51.9021862,134.652632 C59.228502,131.873684 65,128 65.0390283,122.273684 C65.0543838,120.020708 65.0561458,116.047039 65.0443146,110.352678 L65.042915,109.762113 C65.0391907,108.075082 65.034326,106.243751 65.028321,104.268089 L65.0279523,104.084754 C65.0273719,103.894712 65.0267811,103.703343 65.0261797,103.510647 L65.0236035,102.75928 C65.0219597,102.247323 65.0202446,101.726344 65.0184583,101.196344 C62.5112932,99.4335447 60.2480778,97.1727203 58.2412024,94.4740233 C54.1192244,88.9310934 51.272019,81.7240495 50.039,74.7883178 C49.9629944,74.3607864 49.8885748,73.9322177 49.8157409,73.5026116 C48.0088342,73.3525284 46.1044273,72.6915442 44.7379187,71.5088828 C42.1955047,69.30852 39.7712654,64.5112408 38.2878422,59.375855 C36.8880416,54.5299578 40.4502194,51.7991575 45.5645422,51.7991575 C46.1962709,51.7991575 46.8019562,51.8804048 47.380806,52.0408567 C45.793602,42.2552043 45,34.5986903 45,29.0713144 C45,20.1389836 47,17.0623154 52,13.0623154 C57,9.06231541 69.6444535,7.31667437 77.0128746,3.79787738 C84.3812956,0.279080385 90.746932,-1.2148447 99.9601791,1.13828688 Z" id="路径" fill="#282D4B" fill-rule="nonzero"></path>
                            <path d="M44.7337649,137.841188 C38.4607567,139.35782 33.8963323,140.924402 28.8840652,143.635334 C22.0213833,147.34708 15.7289904,152.684452 9.97094405,160.160896 C5.97931588,165.566226 3.34807849,169.709907 2.08873283,172.553591 C1.50700517,173.86717 1.24153022,174.857076 1.26445691,175.468454 C1.27285161,175.692313 1.2904311,175.780937 1.35907914,175.831315 L79.0014099,175.744656 L156.640921,175.831315 C156.709569,175.780937 156.727148,175.692313 156.735543,175.468454 C156.75847,174.857076 156.492995,173.86717 155.911267,172.553591 C154.651922,169.709907 152.020684,165.566226 148.044401,160.181243 C142.27101,152.684452 135.978617,147.34708 129.115935,143.635334 C124.103668,140.924402 119.539243,139.35782 113.266235,137.841188 C102.44139,142.067026 90.8718477,144.263158 79,144.263158 C67.1281523,144.263158 55.5586096,142.067026 44.7337649,137.841188 Z" id="形状结合" stroke="#282D4B" stroke-width="2.52631579" fill="#EAEDF2"></path>
                            <path d="M48.128,176.32 C47.9679992,176.32 47.9039998,176.240001 47.936,176.08 L50.216,163.144 C50.2320001,163.048 50.1920005,163 50.096,163 L46.112,163 C45.9359991,163 45.8639998,162.920001 45.896,162.76 L46.352,160.24 C46.3840002,160.079999 46.4719993,160 46.616,160 L58.256,160 C58.4320009,160 58.5040002,160.079999 58.472,160.24 L58.016,162.76 C57.9839998,162.920001 57.8960007,163 57.752,163 L53.744,163 C53.6479995,163 53.5920001,163.048 53.576,163.144 L51.296,176.08 C51.2639998,176.240001 51.1760007,176.32 51.032,176.32 L48.128,176.32 Z M64.064,176.32 C63.9039992,176.32 63.8399998,176.240001 63.872,176.08 L63.992,175.288 L63.968,175.288 C63.6319983,175.672002 63.1920027,175.983999 62.648,176.224 C62.1039973,176.464001 61.4400039,176.584 60.656,176.584 C60.2239978,176.584 59.8160019,176.516001 59.432,176.38 C59.0479981,176.243999 58.7120014,176.052001 58.424,175.804 C58.1359986,175.555999 57.9120008,175.248002 57.752,174.88 C57.5919992,174.511998 57.512,174.096002 57.512,173.632 C57.512,172.223993 57.9799953,171.156004 58.916,170.428 C59.8520047,169.699996 61.1679915,169.336 62.864,169.336 L64.88,169.336 C64.9760005,169.336 65.0399998,169.288 65.072,169.192 L65.168,168.664 C65.2640005,168.103997 65.1800013,167.692001 64.916,167.428 C64.6519987,167.163999 64.0560046,167.032 63.128,167.032 C62.5519971,167.032 62.0440022,167.107999 61.604,167.26 C61.1639978,167.412001 60.7920015,167.591999 60.488,167.8 C60.3439993,167.896 60.2480002,167.872001 60.2,167.728 L59.48,165.928 C59.4319998,165.783999 59.4719994,165.672 59.6,165.592 C60.1280026,165.239998 60.7759962,164.960001 61.544,164.752 C62.3120038,164.543999 63.1199958,164.44 63.968,164.44 C65.6800086,164.44 66.8839965,164.755997 67.58,165.388 C68.2760035,166.020003 68.4880014,167.095992 68.216,168.616 L66.872,176.08 C66.8399998,176.240001 66.7520007,176.32 66.608,176.32 L64.064,176.32 Z M62.072,174.184 C62.7600034,174.184 63.3159979,174.044001 63.74,173.764 C64.1640021,173.483999 64.4159996,173.064003 64.496,172.504 L64.64,171.616 C64.6560001,171.52 64.6160005,171.472 64.52,171.472 L62.888,171.472 C62.087996,171.472 61.5120018,171.611999 61.16,171.892 C60.8079982,172.172001 60.632,172.575997 60.632,173.104 C60.632,173.424002 60.7519988,173.683999 60.992,173.884 C61.2320012,174.084001 61.5919976,174.184 62.072,174.184 Z M73.088,176.464 C72.4479968,176.464 71.924002,176.392001 71.516,176.248 C71.107998,176.103999 70.7960011,175.880002 70.58,175.576 C70.3639989,175.271998 70.2360002,174.896002 70.196,174.448 C70.1559998,174 70.1919994,173.464003 70.304,172.84 L72.56,160.24 C72.5920002,160.079999 72.6719994,160 72.8,160 L75.56,160 C75.7360009,160 75.8080002,160.079999 75.776,160.24 L73.52,172.648 C73.4559997,173.016002 73.4839994,173.283999 73.604,173.452 C73.7240006,173.620001 73.9599982,173.704 74.312,173.704 L74.768,173.704 C74.9280008,173.704 74.9920002,173.783999 74.96,173.944 L74.576,176.224 C74.5439998,176.384001 74.4480008,176.464 74.288,176.464 L73.088,176.464 Z M84.128,176.32 C83.9679992,176.32 83.8640002,176.240001 83.816,176.08 L82.064,171.112 L80.552,172.816 L79.976,176.08 C79.9439998,176.240001 79.8560007,176.32 79.712,176.32 L76.952,176.32 C76.7919992,176.32 76.7279998,176.240001 76.76,176.08 L79.544,160.24 C79.5760002,160.079999 79.6639993,160 79.808,160 L82.544,160 C82.7200009,160 82.7920002,160.079999 82.76,160.24 L81.248,168.88 L85.016,164.92 C85.1440006,164.775999 85.303999,164.704 85.496,164.704 L88.52,164.704 C88.6000004,164.704 88.6519999,164.728 88.676,164.776 C88.7000001,164.824 88.6880001,164.88 88.64,164.944 L84.464,169.168 L87.152,176.08 C87.2160003,176.240001 87.1600009,176.32 86.984,176.32 L84.128,176.32 Z M91.664,162.76 C91.5039992,162.76 91.4399998,162.680001 91.472,162.52 L91.904,160.24 C91.9360002,160.079999 92.0239993,160 92.168,160 L94.928,160 C95.0880008,160 95.1520002,160.079999 95.12,160.24 L94.712,162.52 C94.6799998,162.680001 94.5920007,162.76 94.448,162.76 L91.664,162.76 Z M89.312,176.32 C89.1359991,176.32 89.0639998,176.240001 89.096,176.08 L91.064,164.944 C91.0960002,164.783999 91.1839993,164.704 91.328,164.704 L94.088,164.704 C94.2480008,164.704 94.3120002,164.783999 94.28,164.944 L92.312,176.08 C92.2799998,176.240001 92.2000006,176.32 92.072,176.32 L89.312,176.32 Z M97.784,162.76 C97.6239992,162.76 97.5599998,162.680001 97.592,162.52 L98.024,160.24 C98.0560002,160.079999 98.1439993,160 98.288,160 L101.048,160 C101.208001,160 101.272,160.079999 101.24,160.24 L100.832,162.52 C100.8,162.680001 100.712001,162.76 100.568,162.76 L97.784,162.76 Z M95.432,176.32 C95.2559991,176.32 95.1839998,176.240001 95.216,176.08 L97.184,164.944 C97.2160002,164.783999 97.3039993,164.704 97.448,164.704 L100.208,164.704 C100.368001,164.704 100.432,164.783999 100.4,164.944 L98.432,176.08 C98.3999998,176.240001 98.3200006,176.32 98.192,176.32 L95.432,176.32 Z M108.272,176.32 C108.111999,176.32 108.048,176.240001 108.08,176.08 L109.256,169.408 C109.368001,168.719997 109.316001,168.176002 109.1,167.776 C108.883999,167.375998 108.488003,167.176 107.912,167.176 C107.351997,167.176 106.880002,167.371998 106.496,167.764 C106.111998,168.156002 105.856001,168.687997 105.728,169.36 L104.552,176.08 C104.52,176.240001 104.440001,176.32 104.312,176.32 L101.552,176.32 C101.375999,176.32 101.304,176.240001 101.336,176.08 L103.304,164.944 C103.336,164.783999 103.423999,164.704 103.568,164.704 L106.328,164.704 C106.488001,164.704 106.552,164.783999 106.52,164.944 L106.352,165.808 L106.376,165.808 C106.712002,165.423998 107.143997,165.100001 107.672,164.836 C108.200003,164.571999 108.823996,164.44 109.544,164.44 C110.168003,164.44 110.699998,164.547999 111.14,164.764 C111.580002,164.980001 111.923999,165.279998 112.172,165.664 C112.420001,166.048002 112.58,166.503997 112.652,167.032 C112.724,167.560003 112.704001,168.135997 112.592,168.76 L111.272,176.08 C111.24,176.240001 111.152001,176.32 111.008,176.32 L108.272,176.32 Z" id="Talkiin" fill="#282D4B" fill-rule="nonzero"></path>
                        </g>
                        <g id="编组-4备份" transform="translate(40.000000, 33.000000)">
                            <g id="编组">
                                <g id="编组-3备份-4" transform="translate(9.000000, 73.000000)"></g>
                                <path d="M25.0072409,65.0054185 C28.7339866,68.0742366 33.3577224,70.0605362 39,70.0605362 C44.6422776,70.0605362 49.2660134,68.0742366 52.9927591,65.0054185 C60.2790451,59.0054692 64.136544,48.8675419 65.4736842,41.3461283 C65.5325519,41.0149975 65.5904551,40.6832238 65.6473938,40.3508071 C65.7884772,39.5271378 65.9236242,38.6996163 66.052851,37.8681479 C66.6469251,34.0457678 67.1158825,30.1399771 67.4597233,26.1507753 C67.6183033,24.3109479 67.7502701,22.4533783 67.8556237,20.5780665 C67.8606512,20.4885768 67.8656181,20.3990467 67.8705243,20.3094762 C64.8629734,14.2325763 62.5544236,9.03852766 61.1286691,0.123915739 C56.9409909,1.87120795 48.6027637,3.06231541 39,3.06231541 C29.3972363,3.06231541 21.0590091,1.87120795 16.8713309,0.123915739 C15.4455764,9.03852766 13.1370266,14.2325763 10.1294757,20.3094762 C10.1343819,20.3990467 10.1393488,20.4885768 10.1443763,20.5780665 C10.2497299,22.4533783 10.3816967,24.3109479 10.5402767,26.1507753 C10.8841175,30.1399771 11.3530749,34.0457678 11.9471489,37.8681475 C12.0763758,38.6996163 12.2115228,39.5271378 12.35259,40.3507126 C12.4095449,40.6832238 12.4674481,41.0149975 12.5263158,41.3461283 C13.863456,48.8675419 17.7209549,59.0054692 25.0072409,65.0054185 L25.0072409,65.0054185 Z" id="路径" fill="#FFF2F1" fill-rule="nonzero"></path>
                                <path d="M20.0229367,13.1090926 L34.0462871,14.4884386 C34.5635782,14.5393197 34.9578947,14.9743243 34.9578947,15.4941117 L34.9578947,16.5991575 C34.9578947,17.1572558 34.5054667,17.6096838 33.9473684,17.6096838 L16.2198132,17.6096838 C15.940764,17.6096838 15.71455,17.3834698 15.71455,17.1044207 C15.71455,16.9704166 15.7677829,16.8419009 15.8625382,16.7471457 L19.209468,13.4002158 C19.4233791,13.1863048 19.7218737,13.0794799 20.0229367,13.1090926 Z" id="路径" fill="#282D4B" fill-rule="nonzero"></path>
                                <path d="M57.9770633,13.1090926 C58.2781263,13.0794799 58.5766209,13.1863048 58.790532,13.4002158 L62.1374618,16.7471457 C62.2322171,16.8419009 62.28545,16.9704166 62.28545,17.1044207 C62.28545,17.3834698 62.059236,17.6096838 61.7801868,17.6096838 L44.0526316,17.6096838 C43.4945333,17.6096838 43.0421053,17.1572558 43.0421053,16.5991575 L43.0421053,15.4941117 C43.0421053,14.9743243 43.4364218,14.5393197 43.9537129,14.4884386 L57.9770633,13.1090926 Z" id="路径" fill="#282D4B" fill-rule="nonzero"></path>
                                <path d="M25.3918219,27.2096838 C23.7175271,27.2096838 22.360243,25.8523997 22.360243,24.1781049 C22.360243,22.5038101 23.7175271,21.1465259 25.3918219,21.1465259 C27.0661168,21.1465259 28.4234009,22.5038101 28.4234009,24.1781049 C28.4234009,25.8523997 27.0661168,27.2096838 25.3918219,27.2096838 Z" id="路径" fill="#282D4B" fill-rule="nonzero"></path>
                                <path d="M52.6760325,27.2096838 C51.0017377,27.2096838 49.6444535,25.8523997 49.6444535,24.1781049 C49.6444535,22.5038101 51.0017377,21.1465259 52.6760325,21.1465259 C54.3503273,21.1465259 55.7076114,22.5038101 55.7076114,24.1781049 C55.7076114,25.8523997 54.3503273,27.2096838 52.6760325,27.2096838 Z" id="路径" fill="#282D4B" fill-rule="nonzero"></path>
                                <path d="M35.7497167,24.9359996 L38.2760325,24.9359996 L38.2760325,38.112291 C38.2760325,39.088963 39.0677815,39.8807121 40.0444535,39.8807121 C40.1690031,39.8807121 40.2932043,39.8675541 40.4149892,39.8414574 L43.8218905,39.1114071 L44.3512271,41.5816448 L40.9443258,42.3116951 C40.6485625,42.3750729 40.3469312,42.4070278 40.0444535,42.4070278 C37.6725359,42.4070278 35.7497167,40.4842087 35.7497167,38.112291 L35.7497167,24.9359996 Z" id="路径" fill="#282D4B" fill-rule="nonzero"></path>
                                <path d="M31.6450318,51.1450863 L32.3214618,48.7110128 C34.4882369,49.3131604 36.7399585,49.6216871 39.0339272,49.6216871 C41.8590357,49.6216871 44.6186149,49.1536723 47.2310653,48.2478149 L48.0587125,50.6347107 C45.180974,51.6325558 42.1417172,52.1480029 39.0339272,52.1480029 C36.5108005,52.1480029 34.0315499,51.8083006 31.6450318,51.1450863 Z" id="路径" fill="#282D4B" fill-rule="nonzero"></path>
                                <path d="M7.69192481,21.8995211 C7.03087751,21.5124066 6.32346191,21.3254733 5.56454215,21.3254733 C1.88994522,21.3254733 -0.100620594,22.8514605 0.714926324,25.6747601 C2.07462382,30.3818264 4.30290228,34.7913225 6.39116559,36.5986351 C7.19137395,37.2911851 8.31062227,37.7196271 9.39715149,37.9085155 C8.60200141,32.720514 8.03366786,27.3841409 7.69192463,21.8995255 L7.69192481,21.8995211 Z" id="路径" fill="#FFF2F1" fill-rule="nonzero"></path>
                                <path d="M68.6028485,37.9085155 C69.6893777,37.7196271 70.8086261,37.2911851 71.6088344,36.5986351 C73.6970977,34.7913225 75.9253762,30.3818264 77.2850737,25.6747601 C78.1006206,22.8514605 76.1100548,21.3254733 72.4354578,21.3254733 C71.7058377,21.3254733 71.0238216,21.4982513 70.3848459,21.8555795 C70.3423954,22.0996528 70.3029586,22.3296104 70.2667911,22.5446039 C69.921372,27.8027852 69.3667914,32.9241273 68.6028485,37.9085155 Z" id="路径" fill="#FFF2F1" fill-rule="nonzero"></path>
                                <path d="M9.11915349,105.157942 C18.4973532,108.337866 28.5472933,110.062315 39,110.062315 C49.4527067,110.062315 59.5026468,108.337866 68.8808465,105.157942 C68.6376821,105.099401 68.4546958,105.054828 68.3540271,105.029259 C67.0618221,104.701046 66.0681893,104.405659 65.2018452,104.077046 C55.8633876,100.534872 50.479383,95.9070604 50.4347145,89.3532176 C50.4159809,86.6045768 50.417396,81.3158967 50.4389338,73.482214 C45.8856686,80.5088442 38.1724975,85.8259733 32.8666994,85.8259733 C30.4932715,85.8259733 28.7939635,85.7199372 27.5777992,85.2670551 C27.5763765,86.975888 27.5722057,88.3378588 27.5652855,89.3532176 C27.520617,95.9070604 22.1366124,100.534872 12.7981548,104.077046 C11.9318107,104.405659 10.9381779,104.701046 9.64597286,105.029259 C9.5453042,105.054828 9.3623179,105.099401 9.11915349,105.157942 Z" id="路径" fill="#FFF2F1" fill-rule="nonzero"></path>
                            </g>
                        </g>
                    </g>
                </g>
            </g>
        </g>
    </g>
</svg>