<?xml version="1.0" encoding="UTF-8"?>
<svg width="184px" height="184px" viewBox="0 0 184 184" version="1.1" xmlns="http://www.w3.org/2000/svg" xmlns:xlink="http://www.w3.org/1999/xlink">
    <!-- Generator: Sketch 56.2 (81672) - https://sketch.com -->
    <title>编组 4备份 2</title>
    <desc>Created with Sketch.</desc>
    <defs>
        <rect id="path-1" x="0" y="0" width="184" height="184" rx="92"></rect>
    </defs>
    <g id="页面-1" stroke="none" stroke-width="1" fill="none" fill-rule="evenodd">
        <g id="画板" transform="translate(-312.000000, -359.000000)">
            <g id="编组-4备份-2" transform="translate(312.000000, 359.000000)">
                <mask id="mask-2" fill="white">
                    <use xlink:href="#path-1"></use>
                </mask>
                <use id="矩形备份" fill="#3380FF" xlink:href="#path-1"></use>
                <g id="编组-3" mask="url(#mask-2)">
                    <g transform="translate(13.000000, 18.000000)">
                        <polygon id="矩形" fill="#FFF2F1" points="43 45.2935729 87.9164278 26.9820443 117.208138 54.4782574 112 105.469365 43 105.469365"></polygon>
                        <path d="M61.7378687,171.413918 L65.5049008,171.409726 C65.5432336,171.293 65.5718884,171.168421 65.5908652,171.035987 L65.7348652,170.150687 C65.7508652,170.054978 65.7108656,170.007125 65.6148652,170.007125 L63.9828652,170.007125 C63.1828612,170.007125 62.6068669,170.146697 62.2548652,170.425848 C61.9536788,170.664699 61.7813478,170.994053 61.7378687,171.413918 L61.7378687,171.413918 Z M81.6379083,171.39764 L83.7785346,171.400022 L83.1588652,169.648219 L81.6468652,171.347038 L81.6379083,171.39764 L81.6379083,171.39764 Z M106.204384,171.424977 L109.735701,171.428906 L110.350865,167.9494 C110.462866,167.263488 110.410866,166.721148 110.194865,166.322362 C109.978864,165.923576 109.582868,165.724186 109.006865,165.724186 C108.446862,165.724186 107.974867,165.919588 107.590865,166.310398 C107.206863,166.701208 106.950866,167.231586 106.822865,167.901546 L106.204384,171.424977 L106.204384,171.424977 Z M12.3341507,130.958206 C12.3341507,118.91661 20.6789159,108.820668 29.5651475,89.1018553 C38.4513791,69.3830429 42,55.7036785 42,41.2005392 C42,-8.70494342 87.8642872,-2.43688284 99.5257453,5.07695702 C111.187203,12.5907969 115.938997,21.1465733 117.891882,51.0916771 C119.844767,81.036781 134.100671,90.3032613 138.446557,101.578643 C142.792443,112.854024 139.995305,123.305544 128.967121,133.008126 C127.456123,134.3375 125.593605,135.68479 124.212604,136.947305 C131.862184,140.050149 140.670156,145.527585 149.045182,156.369556 C157.129393,167.28364 159.739919,173.160455 156.876761,174 L79,173.913341 L1.12323887,174 C-1.73991903,173.160455 0.870607287,167.28364 8.95481781,156.369556 C11.4575568,153.129611 13.9989585,150.368727 16.536556,148.007114 C13.7349525,142.062124 12.3341507,136.379154 12.3341507,130.958206 Z M68.9164119,49.389165 L71.3697642,49.6879 C71.7767407,49.737456 72.0863839,50.0759503 72.0984911,50.4845263 C72.1097797,50.8654796 71.8091655,51.1834266 71.4270505,51.1946809 C71.4202391,51.1948815 71.413425,51.1949819 71.4066106,51.1949819 L65.3225897,51.1949819 C59.9148822,53.6777871 54.4410867,55.1706833 50.2406368,55.3771658 C50.6678691,61.9713849 51.4297621,68.3431751 52.5263158,74.4925366 C54.5473684,85.8263936 64.3263158,103.119643 79,103.119643 C93.6736842,103.119643 103.452632,85.8263936 105.473684,74.4925366 C106.698211,67.625518 107.505405,60.4811243 107.895269,53.0593555 C104.30944,46.4773451 92.962508,44.8600009 88.1915617,29.6998982 C86.9517288,32.5610379 84.6807415,35.8893678 80.5497167,40.4856245 C77.4183264,43.9696689 73.2911146,46.992734 68.9164119,49.389165 L68.9164119,49.389165 Z M49.0522261,68.7105402 C48.4076798,64.082797 47.941584,59.3386733 47.6537803,54.4782574 C44.4153163,54.5921453 42.7198467,55.9775475 43.4505933,58.4253919 C44.759448,62.8097745 46.9042097,66.916612 48.9088785,68.5954146 C48.955707,68.6346309 49.0035018,68.6730082 49.0522261,68.7105402 Z M110.344612,54.5053702 C110.043438,59.5794439 109.547917,64.5267557 108.857869,69.3472032 C109.313459,69.1482178 109.731256,68.8967824 110.091121,68.5954146 C112.09579,66.916612 114.240552,62.8097745 115.549407,58.4253919 C116.31276,55.8683231 114.428547,54.4706255 110.903575,54.4706255 C110.712881,54.4706255 110.526676,54.4821719 110.344612,54.5053702 L110.344612,54.5053702 Z M98.060617,48.2960675 C98.2390317,48.2743427 98.4200298,48.3004531 98.5849496,48.3717068 L102.883883,50.2290632 C103.068655,50.3088942 103.188236,50.4904901 103.188236,50.6912549 C103.188236,50.9694556 102.962022,51.1949819 102.682973,51.1949819 L86.5933894,51.1949819 C86.586575,51.1949819 86.5797609,51.1948815 86.5729495,51.1946809 C86.1908345,51.1834266 85.8902203,50.8654796 85.9015089,50.4845263 C85.9136161,50.0759503 86.2232593,49.737456 86.6302358,49.6879 L98.060617,48.2960675 Z M65.3421053,60.2215085 C63.685251,60.2215085 62.3421053,58.8824464 62.3421053,57.2306296 C62.3421053,55.5788127 63.685251,54.2397506 65.3421053,54.2397506 C66.9989595,54.2397506 68.3421053,55.5788127 68.3421053,57.2306296 C68.3421053,58.8824464 66.9989595,60.2215085 65.3421053,60.2215085 Z M92.6263158,60.2529914 C90.952021,60.2529914 89.5947368,58.8998339 89.5947368,57.2306296 C89.5947368,55.5614252 90.952021,54.2082677 92.6263158,54.2082677 C94.3006106,54.2082677 95.6578947,55.5614252 95.6578947,57.2306296 C95.6578947,58.8998339 94.3006106,60.2529914 92.6263158,60.2529914 Z M75.7497167,61.1869852 L78.2760325,61.1869852 L78.2760325,73.3262564 C78.2760325,74.2999589 79.0677815,75.0893008 80.0444535,75.0893008 C80.1690031,75.0893008 80.2932043,75.0761829 80.4149892,75.0501655 L83.8218905,74.3223348 L84.3512271,76.7850621 L80.9443258,77.5128927 C80.6485625,77.5760779 80.3469312,77.6079357 80.0444535,77.6079357 C77.6725359,77.6079357 75.7497167,75.6909626 75.7497167,73.3262564 L75.7497167,61.1869852 Z M87.5748227,85.559031 L86.6665427,86.2334047 C83.8499721,88.3246336 81.7574822,89.1285867 78.8253108,89.1285867 C76.7116269,89.1285867 74.7169882,88.1338196 72.8551797,86.176632 L72.7756644,86.0930431 C72.6670919,86.0428762 72.563436,85.9916236 72.4646894,85.93928 C71.3342266,85.3400441 71.1826827,85.2487292 71.0861263,84.9728597 C70.9659195,84.6294195 71.1833764,84.3634544 71.4565496,84.2878898 C71.5424858,84.2641183 71.6233815,84.258918 71.7284618,84.2611872 C71.7923726,84.2625674 71.8647227,84.2670697 71.965073,84.2751847 C72.0135807,84.2791074 72.0947273,84.2861311 72.2372032,84.2983499 C72.6400763,84.3319636 72.9304492,84.3422973 73.2182285,84.323437 C73.3479327,84.3149365 73.4685614,84.300332 73.5797613,84.2792425 C73.8955129,84.2193588 74.1947375,84.1359129 74.6030984,84.0006554 C74.7121213,83.9645447 75.1248272,83.8244082 75.0902762,83.8360675 C76.3214375,83.4206115 77.1766947,83.2464268 78.4752166,83.2464268 C79.8313682,83.2464268 81.0044648,83.3871578 82.9701434,83.7242454 C85.9317969,84.2321294 86.8001641,84.3159663 87.9464092,84.0630224 C88.1802264,84.0114255 88.3529831,83.9807781 88.4769076,83.9707632 C88.5869923,83.9618669 88.672375,83.964598 88.7717164,83.9969674 C89.1095479,84.1070465 89.2400751,84.4997167 89.0369224,84.7891975 C88.908803,84.9717602 88.6565834,85.099676 87.9856791,85.3868993 C87.861972,85.43986 87.7250236,85.4972356 87.5748227,85.559031 Z" id="形状" fill="#282D4B"></path>
                        <path d="M108.880847,135.119461 C108.637682,135.061098 108.454696,135.016661 108.354027,134.991169 C107.061822,134.663954 106.068189,134.369465 105.201845,134.041851 C95.8633876,130.510447 90.479383,125.896705 90.4347145,119.362788 C90.4185418,116.997105 90.4173856,112.744723 90.4312259,106.602165 C85.5569976,113.455998 77.9298754,118.837147 72.8666994,118.837147 C70.4889204,118.837147 68.7877352,118.731045 67.5711154,118.277442 C67.5694571,118.675049 67.5675138,119.036828 67.5652855,119.362788 C67.520617,125.896705 62.1366124,130.510447 52.7981548,134.041851 C51.9318107,134.369465 50.9381779,134.663954 49.6459729,134.991169 C49.5453042,135.016661 49.3623179,135.061098 49.1191535,135.119461 C58.4973532,138.289717 68.5472933,140.008923 79,140.008923 C89.4527067,140.008923 99.5026468,138.289717 108.880847,135.119461 L108.880847,135.119461 Z" id="路径" fill="#FFF2F1"></path>
                        <path d="M49.5919398,171.427433 L51.3108652,161.704445 C51.3268652,161.608736 51.2868656,161.560882 51.1908652,161.560882 L47.2068652,161.560882 C47.0308643,161.560882 46.958865,161.481126 46.9908652,161.321612 L47.4468652,158.809274 C47.4788653,158.649759 47.5668644,158.570003 47.7108652,158.570003 L59.3508652,158.570003 C59.526866,158.570003 59.5988653,158.649759 59.5668652,158.809274 L59.1108652,161.321612 C59.078865,161.481126 58.9908659,161.560882 58.8468652,161.560882 L54.8388652,161.560882 C54.7428647,161.560882 54.6868652,161.608736 54.6708652,161.704445 L52.9526009,171.423693 L58.654774,171.417348 C58.7957362,170.375028 59.2477641,169.558017 60.0108652,168.966299 C60.9468698,168.240508 62.2628567,167.877619 63.9588652,167.877619 L65.9748652,167.877619 C66.0708656,167.877619 66.134865,167.829765 66.1668652,167.734057 L66.2628652,167.207662 C66.3588656,166.649362 66.2748665,166.238618 66.0108652,165.97542 C65.7468638,165.712221 65.1508698,165.580624 64.2228652,165.580624 C63.6468623,165.580624 63.1388674,165.656392 62.6988652,165.80793 C62.258863,165.959469 61.8868667,166.13892 61.5828652,166.346289 C61.4388644,166.441997 61.3428654,166.418071 61.2948652,166.274508 L60.5748652,164.47998 C60.5268649,164.336417 60.5668645,164.224759 60.6948652,164.145002 C61.2228678,163.79407 61.8708613,163.514924 62.6388652,163.307556 C63.406869,163.100187 64.2148609,162.996504 65.0628652,162.996504 C66.7748737,162.996504 67.9788617,163.31154 68.6748652,163.941622 C69.3708686,164.571704 69.5828665,165.644422 69.3108652,167.159808 L68.5438835,171.406345 L71.3931204,171.403175 C71.3950126,171.392464 71.3969275,171.381728 71.3988652,171.370965 L73.6548652,158.809274 C73.6868653,158.649759 73.7668645,158.570003 73.8948652,158.570003 L76.6548652,158.570003 C76.830866,158.570003 76.9028653,158.649759 76.8708652,158.809274 L74.6148652,171.179549 C74.6012854,171.257395 74.5918477,171.330752 74.5865519,171.399621 L78.4200198,171.395356 L80.6388652,158.809274 C80.6708653,158.649759 80.7588644,158.570003 80.9028652,158.570003 L83.6388652,158.570003 C83.814866,158.570003 83.8868653,158.649759 83.8548652,158.809274 L82.3428652,167.423005 L86.1108652,163.475045 C86.2388658,163.331482 86.3988642,163.259702 86.5908652,163.259702 L89.6148652,163.259702 C89.6948656,163.259702 89.746865,163.283628 89.7708652,163.331483 C89.7948653,163.379337 89.7828652,163.435166 89.7348652,163.498972 L85.5588652,167.710129 L86.9995974,171.403606 L90.7569242,171.407787 L92.1588652,163.498972 C92.1908653,163.339458 92.2788644,163.259702 92.4228652,163.259702 L95.1828652,163.259702 C95.342866,163.259702 95.4068653,163.339458 95.3748652,163.498972 L93.97229,171.411365 L96.8757173,171.414596 L98.2788652,163.498972 C98.3108653,163.339458 98.3988644,163.259702 98.5428652,163.259702 L101.302865,163.259702 C101.462866,163.259702 101.526865,163.339458 101.494865,163.498972 L100.091083,171.418174 L102.99451,171.421405 L104.398865,163.498972 C104.430865,163.339458 104.518864,163.259702 104.662865,163.259702 L107.422865,163.259702 C107.582866,163.259702 107.646865,163.339458 107.614865,163.498972 L107.446865,164.360345 L107.470865,164.360345 C107.806867,163.977511 108.238863,163.654499 108.766865,163.3913 C109.294868,163.128102 109.918862,162.996504 110.638865,162.996504 C111.262868,162.996504 111.794863,163.104175 112.234865,163.319519 C112.674867,163.534864 113.018864,163.833948 113.266865,164.216783 C113.514866,164.599617 113.674865,165.054226 113.746865,165.580624 C113.818866,166.107021 113.798866,166.681264 113.686865,167.30337 L112.940002,171.432472 L155.321571,171.479633 C155.2049,171.077958 155.019001,170.573985 154.7563,169.982591 C153.542871,167.250923 150.954081,163.186482 147.043619,157.906303 C141.378654,150.572667 135.222678,145.366884 128.515008,141.750008 C126.417272,140.618877 124.398183,139.691621 122.290189,138.884171 L122.281519,138.893817 C120.714609,138.29201 119.144659,137.766864 117.486831,137.280645 C116.475437,136.985958 115.424196,136.702367 114.31933,136.422961 C114.038065,136.353233 113.706872,136.272454 113.346779,136.185393 C102.485203,140.359373 90.8913189,142.527558 79,142.527558 C67.1086811,142.527558 55.514797,140.359373 44.6532206,136.185393 C44.2931281,136.272454 43.9619352,136.353233 43.6806697,136.422961 C42.5758038,136.702367 41.5245628,136.985958 40.5131692,137.280645 C38.7652642,137.793283 37.1150458,138.349191 35.4630835,138.992599 C33.8300517,139.628633 32.2325157,140.338038 30.6663562,141.130322 C30.2746213,141.329988 29.8812098,141.536361 29.4849925,141.750008 C27.1037547,143.034007 24.7920451,144.51825 22.5485217,146.225036 C20.9087058,147.475469 19.2988905,148.850651 17.7133248,150.363856 L17.7106763,150.358831 C15.3914044,152.572127 13.1507686,155.06502 10.9870703,157.865733 C7.0459192,163.186482 4.45712864,167.250923 3.24370048,169.982591 C2.98099874,170.573985 2.79510042,171.077958 2.6784294,171.479633 L49.5919398,171.427433 L49.5919398,171.427433 Z" id="路径" fill="#EAEDF2"></path>
                        <path d="M92.7588652,161.321612 C92.5988644,161.321612 92.534865,161.241856 92.5668652,161.082342 L92.9988652,158.809274 C93.0308653,158.649759 93.1188644,158.570003 93.2628652,158.570003 L96.0228652,158.570003 C96.182866,158.570003 96.2468653,158.649759 96.2148652,158.809274 L95.8068652,161.082342 C95.774865,161.241856 95.6868659,161.321612 95.5428652,161.321612 L92.7588652,161.321612 Z" id="路径" fill="#282D4B"></path>
                        <path d="M98.8788652,161.321612 C98.7188644,161.321612 98.654865,161.241856 98.6868652,161.082342 L99.1188652,158.809274 C99.1508653,158.649759 99.2388644,158.570003 99.3828652,158.570003 L102.142865,158.570003 C102.302866,158.570003 102.366865,158.649759 102.334865,158.809274 L101.926865,161.082342 C101.894865,161.241856 101.806866,161.321612 101.662865,161.321612 L98.8788652,161.321612 Z" id="路径" fill="#282D4B"></path>
                    </g>
                </g>
            </g>
        </g>
    </g>
</svg>