<?xml version="1.0" encoding="UTF-8"?>
<svg width="64px" height="64px" viewBox="0 0 64 64" version="1.1" xmlns="http://www.w3.org/2000/svg" xmlns:xlink="http://www.w3.org/1999/xlink">
    <!-- Generator: Sketch 56.2 (81672) - https://sketch.com -->
    <title>编组 7</title>
    <desc>Created with Sketch.</desc>
    <g id="页面-1" stroke="none" stroke-width="1" fill="none" fill-rule="evenodd">
        <g id="B1" transform="translate(-343.000000, -1488.000000)">
            <g id="编组-14" transform="translate(0.000000, 1448.000000)">
                <g id="编组-7" transform="translate(343.000000, 40.000000)">
                    <rect id="矩形备份" fill="#FFFFFF" opacity="0" x="0" y="0" width="64" height="64"></rect>
                    <path d="M5,23 L59,23 L59,52 C59,54.209139 57.209139,56 55,56 L9,56 C6.790861,56 5,54.209139 5,52 L5,23 Z" id="矩形" fill="#FFD500"></path>
                    <rect id="矩形" fill="#F57F17" x="35" y="32" width="16" height="16"></rect>
                    <path d="M9,8 L55,8 C57.209139,8 59,9.790861 59,12 L59,24 L5,24 L5,12 C5,9.790861 6.790861,8 9,8 Z" id="矩形备份-3" fill="#FBC02E"></path>
                    <polygon id="路径" fill="#FFFFFF" points="57 7 64 8 64 10 57 11 56 18 54 18 53 11 46 10 46 8 53 7 54 0 56 0"></polygon>
                </g>
            </g>
        </g>
    </g>
</svg>