<?xml version="1.0" encoding="UTF-8"?>
<svg width="96px" height="96px" viewBox="0 0 96 96" version="1.1" xmlns="http://www.w3.org/2000/svg" xmlns:xlink="http://www.w3.org/1999/xlink">
    <!-- Generator: Sketch 56.2 (81672) - https://sketch.com -->
    <title>编组 9备份 3</title>
    <desc>Created with Sketch.</desc>
    <defs>
        <polygon id="path-1" points="0 0 72 0 72 22.5306122 36 46 0 22.5306122"></polygon>
        <path d="M25,50 C11.1928813,50 0,38.8071187 0,25 C0,11.1928813 11.1928813,0 25,0 C38.8071187,0 50,11.1928813 50,25 C50,38.8071187 38.8071187,50 25,50 Z" id="path-3"></path>
    </defs>
    <g id="页面-1" stroke="none" stroke-width="1" fill="none" fill-rule="evenodd">
        <g id="画板" transform="translate(-1313.000000, -151.000000)">
            <g id="编组-9备份-3" transform="translate(1313.000000, 151.000000)">
                <rect id="矩形" fill="#FFFFFF" opacity="0" x="0" y="0" width="96" height="96"></rect>
                <g id="编组-3" transform="translate(12.000000, 9.000000)">
                    <mask id="mask-2" fill="white">
                        <use xlink:href="#path-1"></use>
                    </mask>
                    <use id="矩形" fill="#78909C" xlink:href="#path-1"></use>
                    <rect id="矩形" fill="#CFD8DC" mask="url(#mask-2)" x="24" y="0" width="24" height="40"></rect>
                    <rect id="矩形备份-7" fill="#CFD8DC" mask="url(#mask-2)" x="13" y="0" width="6" height="40"></rect>
                    <rect id="矩形备份-8" fill="#CFD8DC" mask="url(#mask-2)" x="53" y="0" width="6" height="40"></rect>
                </g>
                <rect id="矩形" fill="#90A4AE" x="8" y="5" width="80" height="4"></rect>
                <path d="M48,92 C64.0162577,92 77,79.0162577 77,63 C77,46.9837423 64.0162577,34 48,34 C31.9837423,34 19,46.9837423 19,63 C19,79.0162577 31.9837423,92 48,92 Z" id="椭圆形" fill="#90A4AE" fill-rule="nonzero"></path>
                <g id="编组-6" transform="translate(23.000000, 38.000000)">
                    <mask id="mask-4" fill="white">
                        <use xlink:href="#path-3"></use>
                    </mask>
                    <use id="路径" fill="#ECEFF1" fill-rule="nonzero" xlink:href="#path-3"></use>
                    <path d="M53.9868603,-5.57883832 L67.8432667,2.42116168 L34.8432667,59.5788383 L20.9868603,51.5788383 L53.9868603,-5.57883832 Z M42.5,-7.76185103 L46.830127,-5.26185103 L13.330127,52.761851 L9,50.261851 L42.5,-7.76185103 Z" id="形状" fill="#CFD8DC" mask="url(#mask-4)"></path>
                </g>
                <path d="M35.38,72.62 L44.31,47.54 C44.386,47.312 44.538,47.16 44.804,47.16 L50.998,47.16 C51.264,47.16 51.416,47.312 51.492,47.54 L60.232,72.62 C60.308,72.848 60.194,73 59.966,73 L53.696,73 C53.43,73 53.278,72.848 53.202,72.62 L51.986,68.63 L43.588,68.63 L42.372,72.62 C42.296,72.848 42.144,73 41.878,73 L35.646,73 C35.418,73 35.304,72.848 35.38,72.62 Z M45.298,63.082 L50.314,63.082 L47.92,55.026 L47.806,55.026 L45.298,63.082 Z" id="A" fill="#78909C" fill-rule="nonzero"></path>
            </g>
        </g>
    </g>
</svg>