<?xml version="1.0" encoding="UTF-8"?>
<svg width="96px" height="96px" viewBox="0 0 96 96" version="1.1" xmlns="http://www.w3.org/2000/svg" xmlns:xlink="http://www.w3.org/1999/xlink">
    <!-- Generator: Sketch 56.2 (81672) - https://sketch.com -->
    <title>编组 9备份 11</title>
    <desc>Created with Sketch.</desc>
    <g id="页面-1" stroke="none" stroke-width="1" fill="none" fill-rule="evenodd">
        <g id="画板" transform="translate(-1781.000000, -415.000000)">
            <g id="编组-7备份-3" transform="translate(1725.000000, 359.000000)">
                <g id="编组-9备份-11" transform="translate(56.000000, 56.000000)">
                    <rect id="矩形" fill="#FFFFFF" opacity="0" x="0" y="0" width="96" height="96"></rect>
                    <g id="编组-27" transform="translate(14.000000, 8.000000)">
                        <path d="M5.66666667,10.2 L62.3333333,10.2 L54.9484917,80.7027977 C54.8276034,81.8569138 53.8545882,82.7333333 52.6941581,82.7333333 L15.3058419,82.7333333 C14.1454118,82.7333333 13.1723966,81.8569138 13.0515083,80.7027977 L5.66666667,10.2 Z" id="矩形" fill="#EAEDF2"></path>
                        <path d="M48.7333333,10.2 L62.3333333,10.2 L54.9484917,80.7027977 C54.8276034,81.8569138 53.8545882,82.7333333 52.6941581,82.7333333 L27.2,82.7333333 L39.0941581,82.7333333 C40.2545882,82.7333333 41.2276034,81.8569138 41.3484917,80.7027977 L48.7333333,10.2 Z" id="路径" fill="#CFD8DC"></path>
                        <path d="M15.6,10.2 L22.9848417,80.7027977 C23.10573,81.8569138 24.0787451,82.7333333 25.2391752,82.7333333 L19.6391752,82.7333333 C18.4787451,82.7333333 17.50573,81.8569138 17.3848417,80.7027977 L10,10.2 L15.6,10.2 Z" id="路径" fill="#FFFFFF"></path>
                        <polygon id="路径" fill="#00C853" points="62.3333333 36.2666667 59.3342466 63.4666667 8.66575339 63.4666667 5.66666667 36.2666667"></polygon>
                        <polygon id="路径" fill="#388E3C" points="25.9485731 63.4666667 41.2009133 63.4666667 44.2 36.2666667 26.198497 36.2666667 62.3333333 36.2666667 59.3342466 63.4666667"></polygon>
                        <rect id="矩形" fill="#43A047" x="0" y="7.93333333" width="68" height="11.3333333"></rect>
                        <polygon id="矩形备份-32" fill="#388E3C" points="11.1916667 0 56.8083333 0 60.0666667 7.93333333 7.93333333 7.93333333"></polygon>
                    </g>
                </g>
            </g>
        </g>
    </g>
</svg>