<?xml version="1.0" encoding="UTF-8"?>
<svg width="64px" height="64px" viewBox="0 0 64 64" version="1.1" xmlns="http://www.w3.org/2000/svg" xmlns:xlink="http://www.w3.org/1999/xlink">
    <!-- Generator: Sketch 56.2 (81672) - https://sketch.com -->
    <title>编组 6</title>
    <desc>Created with Sketch.</desc>
    <defs>
        <polygon id="path-1" points="28 0 47.7989899 8.20101013 56 28 47.7989899 47.7989899 28 56 8.20101013 47.7989899 0 28 8.20101013 8.20101013"></polygon>
        <polygon id="path-3" points="28 12 39.3137085 16.6862915 44 28 39.3137085 39.3137085 28 44 16.6862915 39.3137085 12 28 16.6862915 16.6862915"></polygon>
    </defs>
    <g id="页面-1" stroke="none" stroke-width="1" fill="none" fill-rule="evenodd">
        <g id="D2" transform="translate(-360.000000, -104.000000)">
            <g id="编组-6" transform="translate(360.000000, 104.000000)">
                <rect id="矩形" fill="#FFFFFF" opacity="0" x="0" y="0" width="64" height="64"></rect>
                <g id="编组-10" transform="translate(4.000000, 4.000000)">
                    <g id="编组-36备份">
                        <mask id="mask-2" fill="white">
                            <use xlink:href="#path-1"></use>
                        </mask>
                        <use id="多边形" fill="#D8D8D8" xlink:href="#path-1"></use>
                        <path d="M56,0 L56,56 L28,28 L56,0 Z M0,56 L0,28 L28,28 L0,56 Z" id="形状" fill="#449C80" mask="url(#mask-2)"></path>
                        <path d="M0,0 L28,0 L28,28 L0,28 L0,0 Z" id="形状结合" fill="#60D818" mask="url(#mask-2)"></path>
                        <polygon id="矩形" fill="#2C6484" mask="url(#mask-2)" points="28 0 56 0 28 28"></polygon>
                        <path d="M28,56 L0,56 L28,28 L56,56 L28,56 Z" id="形状结合" fill="#2C6484" mask="url(#mask-2)"></path>
                        <mask id="mask-4" fill="white">
                            <use xlink:href="#path-3"></use>
                        </mask>
                        <use id="多边形" fill="#C0F424" xlink:href="#path-3"></use>
                    </g>
                    <polygon id="路径" fill="#FFFFFF" points="19 15 26 16 26 18 19 19 18 26 16 26 15 19 8 18 8 16 15 15 16 8 18 8"></polygon>
                </g>
            </g>
        </g>
    </g>
</svg>