<?xml version="1.0" encoding="UTF-8"?>
<svg width="32px" height="32px" viewBox="0 0 32 32" version="1.1" xmlns="http://www.w3.org/2000/svg" xmlns:xlink="http://www.w3.org/1999/xlink">
    <!-- Generator: Sketch 56.2 (81672) - https://sketch.com -->
    <title>编组 2备份</title>
    <desc>Created with Sketch.</desc>
    <g id="页面-1" stroke="none" stroke-width="1" fill="none" fill-rule="evenodd">
        <g id="A2b" transform="translate(-512.000000, -208.000000)">
            <g id="编组-11" transform="translate(40.000000, 188.000000)">
                <g id="编组-2备份" transform="translate(472.000000, 20.000000)">
                    <circle id="椭圆形" fill="#3380FF" cx="16" cy="16" r="16"></circle>
                    <path d="M20.5606602,21.5606602 C20.2892136,21.8321068 19.9142136,22 19.5,22 L13,22 C12.1715729,22 11.5,21.3284271 11.5,20.5 C11.5,19.6715729 12.1715729,19 13,19 L18,19 L18,7.5 C18,6.67157288 18.6715729,6 19.5,6 C20.3284271,6 21,6.67157288 21,7.5 L21,20.5 C21,20.9142136 20.8321068,21.2892136 20.5606602,21.5606602 Z" id="形状结合" fill="#FFFFFF" transform="translate(16.250000, 14.000000) rotate(-315.000000) translate(-16.250000, -14.000000) "></path>
                </g>
            </g>
        </g>
    </g>
</svg>