<?xml version="1.0" encoding="UTF-8"?>
<svg width="96px" height="96px" viewBox="0 0 96 96" version="1.1" xmlns="http://www.w3.org/2000/svg" xmlns:xlink="http://www.w3.org/1999/xlink">
    <!-- Generator: Sketch 56.2 (81672) - https://sketch.com -->
    <title>编组 9备份 6</title>
    <desc>Created with Sketch.</desc>
    <defs>
        <path d="M22.5708242,0 L27.4535661,0 C28.5581356,0 29.4535661,0.8954305 29.4535661,2 C29.4535661,2.15967817 29.4344435,2.31878177 29.3966067,2.47391236 L10.3722165,80.4739124 C10.1537376,81.369676 9.35119839,82 8.42917582,82 L3.54643394,82 C2.44186444,82 1.54643394,81.1045695 1.54643394,80 C1.54643394,79.8403218 1.56555653,79.6812182 1.60339326,79.5260876 L20.6277835,1.52608764 C20.8462624,0.630323961 21.6488016,0 22.5708242,0 Z" id="path-1"></path>
    </defs>
    <g id="页面-1" stroke="none" stroke-width="1" fill="none" fill-rule="evenodd">
        <g id="画板" transform="translate(-1545.000000, -415.000000)">
            <g id="编组-7备份-2" transform="translate(1489.000000, 359.000000)">
                <g id="编组-9备份-6" transform="translate(56.000000, 56.000000)">
                    <rect id="矩形" fill="#FFFFFF" opacity="0" x="0" y="0" width="96" height="96"></rect>
                    <g id="编组-8" transform="translate(2.000000, 7.000000)">
                        <g id="编组-3"></g>
                        <polygon id="路径备份" fill="#C62828" points="93.195122 14 81 64 44 64 56.195122 14"></polygon>
                        <polygon id="路径" fill="#FFFFFF" points="89.2926829 30 84.902439 48 47.902439 48 52.2926829 30"></polygon>
                        <polygon id="路径" fill="#F44336" points="65.195122 5 53 55 16 55 28.195122 5"></polygon>
                        <polygon id="路径" fill="#FFFFFF" points="61.2926829 21 56.902439 39 19.902439 39 24.2926829 21 61.2926829 21"></polygon>
                        <mask id="mask-2" fill="white">
                            <use xlink:href="#path-1"></use>
                        </mask>
                        <use id="矩形" fill="#ECEFF1" xlink:href="#path-1"></use>
                    </g>
                </g>
            </g>
        </g>
    </g>
</svg>