<?xml version="1.0" encoding="UTF-8"?>
<svg width="96px" height="96px" viewBox="0 0 96 96" version="1.1" xmlns="http://www.w3.org/2000/svg" xmlns:xlink="http://www.w3.org/1999/xlink">
    <!-- Generator: Sketch 56.2 (81672) - https://sketch.com -->
    <title>编组 35</title>
    <desc>Created with Sketch.</desc>
    <defs>
        <circle id="path-1" cx="46" cy="46" r="46"></circle>
        <circle id="path-3" cx="46" cy="46" r="46"></circle>
        <path d="M47.6761134,69.2315404 L23.7450371,83.9078116 C22.8097883,84.481374 21.5866552,84.1881692 21.0130928,83.2529204 C20.7374117,82.8033957 20.6517747,82.2627049 20.7750522,81.7499913 L27.3379064,54.4549681 L5.98483372,36.2303793 C5.15033572,35.5181453 5.0512211,34.2642713 5.76345504,33.4297733 C6.10578829,33.0286742 6.59355254,32.7801459 7.11926699,32.7389527 L35.1064102,30.5459718 L45.8405618,4.60628526 C46.2600624,3.59253811 47.4219393,3.11080614 48.4356865,3.5303068 C48.9229412,3.73193862 49.3100331,4.11903053 49.511665,4.60628526 L60.2458166,30.5459718 L88.2329597,32.7389527 C89.3267234,32.8246564 90.1439174,33.7808036 90.0582137,34.8745673 C90.0170204,35.4002818 89.7684921,35.888046 89.367393,36.2303793 L68.0143204,54.4549681 L74.5771745,81.7499913 C74.833657,82.8167063 74.1768337,83.8893697 73.1101187,84.1458522 C72.5974052,84.2691298 72.0567143,84.1834928 71.6071896,83.9078116 L47.6761134,69.2315404 Z" id="path-5"></path>
    </defs>
    <g id="页面-1" stroke="none" stroke-width="1" fill="none" fill-rule="evenodd">
        <g id="画板" transform="translate(-2021.000000, -152.000000)">
            <g id="编组-9备份-5" transform="translate(1969.000000, 99.000000)">
                <g id="编组-35" transform="translate(52.000000, 53.000000)">
                    <g id="编组-26备份" fill="#FFFFFF" opacity="0">
                        <g id="编组-9备份-9">
                            <rect id="矩形" x="0" y="0" width="96" height="96"></rect>
                        </g>
                    </g>
                    <g id="编组-32" transform="translate(2.000000, 2.000000)">
                        <mask id="mask-2" fill="white">
                            <use xlink:href="#path-1"></use>
                        </mask>
                        <g id="椭圆形"></g>
                        <mask id="mask-4" fill="white">
                            <use xlink:href="#path-3"></use>
                        </mask>
                        <g id="椭圆形"></g>
                    </g>
                    <g id="编组-31">
                        <mask id="mask-6" fill="white">
                            <use xlink:href="#path-5"></use>
                        </mask>
                        <use id="星形" fill="#78909C" xlink:href="#path-5"></use>
                        <polygon id="路径-12" fill="#78909C" mask="url(#mask-6)" points="79.2023442 4.45454984 47.6761134 -5.78894351 47.6761134 47.846684"></polygon>
                        <polygon id="路径-12" fill="#90A4AE" mask="url(#mask-6)" points="98.6866264 31.2723636 47.6761134 47.846684 79.2023442 4.45454984"></polygon>
                        <polygon id="路径-12" fill="#78909C" mask="url(#mask-6)" points="98.6866264 64.4210044 47.6761134 47.846684 98.6866264 31.2723636"></polygon>
                        <polygon id="路径-12" fill="#78909C" mask="url(#mask-6)" points="79.2023442 91.2388182 47.6761134 47.846684 98.6866264 64.4210044"></polygon>
                        <polygon id="路径-12" fill="#90A4AE" mask="url(#mask-6)" points="47.6761134 101.482312 47.6761134 47.846684 79.2023442 91.2388182"></polygon>
                        <polygon id="路径-12" fill="#78909C" mask="url(#mask-6)" points="16.1498825 91.2388182 47.6761134 47.846684 47.6761134 101.482312"></polygon>
                        <polygon id="路径-12" fill="#CFD8DC" mask="url(#mask-6)" points="-3.33439971 64.4210044 47.6761134 47.846684 16.1498825 91.2388182"></polygon>
                        <polygon id="路径-12" fill="#78909C" mask="url(#mask-6)" points="-3.33439971 31.2723636 47.6761134 47.846684 -3.33439971 64.4210044"></polygon>
                        <polygon id="路径-12" fill="#90A4AE" mask="url(#mask-6)" points="16.1498825 4.45454984 47.6761134 47.846684 -3.33439971 31.2723636"></polygon>
                        <polygon id="路径-12" fill="#CFD8DC" mask="url(#mask-6)" points="47.6761134 -5.78894351 47.6761134 47.846684 16.1498825 4.45454984"></polygon>
                    </g>
                </g>
            </g>
        </g>
    </g>
</svg>