<?xml version="1.0" encoding="UTF-8"?>
<svg width="97px" height="96px" viewBox="0 0 97 96" version="1.1" xmlns="http://www.w3.org/2000/svg" xmlns:xlink="http://www.w3.org/1999/xlink">
    <!-- Generator: Sketch 56.2 (81672) - https://sketch.com -->
    <title>编组 9备份 7</title>
    <desc>Created with Sketch.</desc>
    <g id="页面-1" stroke="none" stroke-width="1" fill="none" fill-rule="evenodd">
        <g id="I1" transform="translate(-327.000000, -295.000000)">
            <g id="编组-9备份-7" transform="translate(327.000000, 295.000000)">
                <rect id="矩形" fill="#FFFFFF" opacity="0" x="0" y="0" width="96" height="96"></rect>
                <g id="编组-21" transform="translate(2.000000, 8.698485)">
                    <g id="编组-20">
                        <rect id="矩形" fill="#282D4B" x="17" y="0.30151519" width="58" height="23"></rect>
                        <path d="M58.2720779,0 L74.2720779,0 L74.2720779,60 L50.2720779,60 L50.2720779,8 C50.2720779,3.581722 53.8537999,8.11624501e-16 58.2720779,0 Z" id="矩形备份-26" fill="#51556D" transform="translate(62.272078, 30.000000) scale(-1, 1) rotate(-45.000000) translate(-62.272078, -30.000000) "></path>
                        <path d="M25.7279221,0 L41.7279221,0 L41.7279221,60 L17.7279221,60 L17.7279221,8 C17.7279221,3.581722 21.3096441,8.11624501e-16 25.7279221,0 Z" id="矩形" fill="#7A7D90" transform="translate(29.727922, 30.000000) rotate(-45.000000) translate(-29.727922, -30.000000) "></path>
                    </g>
                    <circle id="椭圆形" fill="#F9A825" cx="46" cy="54.3015152" r="25"></circle>
                    <circle id="椭圆形" fill="#FFD500" cx="46" cy="54.3015152" r="18"></circle>
                    <polygon id="矩形" fill="#FFFFFF" transform="translate(45.885533, 50.948648) scale(1, -1) rotate(-45.000000) translate(-45.885533, -50.948648) " points="39.3490007 40.2854036 52.4220645 39.6637658 51.5995006 62.2335303 48.2111338 62.0212481 47.2662948 44.8195355 39.3528755 43.6572963"></polygon>
                </g>
            </g>
        </g>
    </g>
</svg>