<?xml version="1.0" encoding="UTF-8"?>
<svg width="64px" height="64px" viewBox="0 0 64 64" version="1.1" xmlns="http://www.w3.org/2000/svg" xmlns:xlink="http://www.w3.org/1999/xlink">
    <!-- Generator: Sketch 56.2 (81672) - https://sketch.com -->
    <title>编组 6</title>
    <desc>Created with Sketch.</desc>
    <g id="页面-1" stroke="none" stroke-width="1" fill="none" fill-rule="evenodd">
        <g id="C5b" transform="translate(-606.000000, -1284.000000)">
            <g id="编组-3" transform="translate(40.000000, 1224.000000)">
                <g id="编组-6" transform="translate(566.000000, 60.000000)">
                    <rect id="矩形" fill="#FFFFFF" opacity="0" x="0" y="0" width="64" height="64"></rect>
                    <path d="M14.2,8 L49.8,8 C51.5673112,8 53,9.4326888 53,11.2 L53,24.2916667 L16.2384633,54.6709921 C14.8761359,55.7968043 12.8591003,55.6050709 11.7332881,54.2427436 C11.259297,53.6691744 11,52.9483563 11,52.2042803 L11,11.2 C11,9.4326888 12.4326888,8 14.2,8 Z" id="矩形备份-4" fill="#01E675"></path>
                    <path d="M14.2,8 L49.8,8 C51.5673112,8 53,9.4326888 53,11.2 L53,24.2916667 L16.2384633,54.6709921 C14.8761359,55.7968043 12.8591003,55.6050709 11.7332881,54.2427436 C11.259297,53.6691744 11,52.9483563 11,52.2042803 L11,11.2 C11,9.4326888 12.4326888,8 14.2,8 Z" id="矩形备份-3" fill="#00C853" transform="translate(32.000000, 33.500000) scale(-1, 1) translate(-32.000000, -33.500000) "></path>
                </g>
            </g>
        </g>
    </g>
</svg>