<?xml version="1.0" encoding="UTF-8"?>
<svg width="64px" height="64px" viewBox="0 0 64 64" version="1.1" xmlns="http://www.w3.org/2000/svg" xmlns:xlink="http://www.w3.org/1999/xlink">
    <!-- Generator: Sketch 56.2 (81672) - https://sketch.com -->
    <title>编组 3备份</title>
    <desc>Created with Sketch.</desc>
    <g id="页面-1" stroke="none" stroke-width="1" fill="none" fill-rule="evenodd">
        <g id="E3-C5a备份" transform="translate(-606.000000, -1284.000000)" fill="#FFFFFF">
            <g id="编组-3" transform="translate(40.000000, 1224.000000)">
                <g id="编组-3备份" transform="translate(566.000000, 60.000000)">
                    <rect id="矩形" opacity="0" x="0" y="0" width="64" height="64"></rect>
                    <path d="M47,49 L47,58.1618555 C47,58.7141402 46.5522847,59.1618555 46,59.1618555 C45.8072387,59.1618555 45.6185854,59.1061435 45.4567487,59.0014256 L30,49 L13,49 C9.6862915,49 7,46.3137085 7,43 L7,16 C7,12.6862915 9.6862915,10 13,10 L51,10 C54.3137085,10 57,12.6862915 57,16 L57,43 C57,46.3137085 54.3137085,49 51,49 L47,49 Z M42,44 L51,44 C51.5522847,44 52,43.5522847 52,43 L52,16 C52,15.4477153 51.5522847,15 51,15 L13,15 C12.4477153,15 12,15.4477153 12,16 L12,43 C12,43.5522847 12.4477153,44 13,44 L31.4765712,44 L42,50.8092774 L42,44 Z M39.8389474,21.2634366 C40.8568629,20.2455211 42.5072299,20.2455211 43.5251454,21.2634366 C44.5430609,22.2813521 44.5430609,23.9317191 43.5251454,24.9496346 L30.6157502,37.8590298 C30.1205871,38.3541928 29.4590272,38.6224664 28.7726512,38.6224664 C28.0862752,38.6224664 27.4247153,38.3541928 26.9295522,37.8590298 L20.4748546,31.4043322 C19.4569391,30.3864167 19.4569391,28.7360497 20.4748546,27.7181342 C21.4927701,26.7002187 23.1431371,26.7002187 24.1610526,27.7181342 L28.7726512,32.3297328 L39.8389474,21.2634366 Z" id="形状" fill-rule="nonzero"></path>
                </g>
            </g>
        </g>
    </g>
</svg>