<?xml version="1.0" encoding="UTF-8"?>
<svg width="64px" height="64px" viewBox="0 0 64 64" version="1.1" xmlns="http://www.w3.org/2000/svg" xmlns:xlink="http://www.w3.org/1999/xlink">
    <!-- Generator: Sketch 56.2 (81672) - https://sketch.com -->
    <title>编组 3备份 2</title>
    <desc>Created with Sketch.</desc>
    <g id="页面-1" stroke="none" stroke-width="1" fill="none" fill-rule="evenodd">
        <g id="C2" transform="translate(-646.000000, -372.000000)">
            <g id="编组-3备份-2" transform="translate(646.000000, 372.000000)">
                <rect id="矩形" fill="#FFFFFF" opacity="0" x="0" y="0" width="64" height="64"></rect>
                <g id="编组-13" transform="translate(8.000000, 13.000000)" fill="#16357B">
                    <path d="M14.4510638,9.29787955 L23.3919875,1.16976713 C24.2266924,0.410944475 25.5185017,0.472459205 26.2773244,1.30716413 C26.6191215,1.68314091 26.8085106,2.17301621 26.8085106,2.68113409 L26.8085106,35.3188803 C26.8085106,36.4469513 25.8940284,37.3614335 24.7659574,37.3614335 C24.2578396,37.3614335 23.7679643,37.1720444 23.3919875,36.8302473 L14.4510638,28.7021349 L4.08510638,28.7021349 C1.82896443,28.7021349 2.16640442e-15,26.8731704 0,24.6170285 L0,13.3829859 C-2.76297703e-16,11.126844 1.82896443,9.29787955 4.08510638,9.29787955 L14.4510638,9.29787955 Z" id="形状结合"></path>
                </g>
            </g>
        </g>
    </g>
</svg>