<?xml version="1.0" encoding="UTF-8"?>
<svg width="227px" height="128px" viewBox="0 0 227 128" version="1.1" xmlns="http://www.w3.org/2000/svg" xmlns:xlink="http://www.w3.org/1999/xlink">
    <!-- Generator: Sketch 56.2 (81672) - https://sketch.com -->
    <title>编组</title>
    <desc>Created with Sketch.</desc>
    <g id="页面-1" stroke="none" stroke-width="1" fill="none" fill-rule="evenodd">
        <g id="I1" transform="translate(-262.000000, -607.000000)">
            <g id="编组" transform="translate(262.000000, 607.000000)">
                <g id="编组备份" transform="translate(48.500000, 0.000000)">
                    <rect id="矩形" fill="#FFFFFF" opacity="0" x="0" y="0" width="128" height="128"></rect>
                    <path d="M96.6666667,95.6759256 L96.6666667,79.9361855 L77.3333333,84.3469409 L77.3333333,100.643513 L96.6666667,95.6759256 L96.6666667,95.6759256 Z M96.6666667,99.0819021 L63.5630252,106.63425 L62.6666667,104.412028 L69.3333333,102.699067 L69.3333333,76.6666667 L77.3333333,76.6666667 L77.3333333,81.6898079 L96.6666667,76.7222202 L96.6666667,74.6666667 L104.666667,74.6666667 L104.666667,101.333333 L96.6666667,101.333333 L96.6666667,99.0819021 L96.6666667,99.0819021 Z M52.6666667,51.1495199 L82.6666667,43.2071331 L82.6666667,34 L90.6666667,34 L90.6666667,41.0891632 L113.666667,35 L113.666667,39.6666667 L52.6666667,54.1354221 L52.6666667,88 L44.6666667,88 L44.6666667,56.0329638 L33.5630252,58.6666667 L32.6666667,56.4444444 L44.6666667,53.2674897 L44.6666667,38.9546301 L35.2819245,41.6625951 L33.9156508,38.8839323 L58.0613709,24.981255 L65.0209498,33.0814068 L52.6666667,36.6462321 L52.6666667,51.1495199 Z M28,50.3510663 L28,83.3333333 L19.3333333,83.3333333 L19.3333333,52.8518308 L7.28192453,56.3292618 L5.91565084,53.550599 L30.0613709,39.6479217 L37.0209498,47.7480735 L28,50.3510663 Z M105.333333,49.5601952 L105.333333,53.1197806 L66.8963585,61.8888889 L66,59.6666667 L105.333333,49.5601952 Z M105.333333,61.3333333 L105.333333,64.8929187 L66.8963585,73.662027 L66,71.4398048 L105.333333,61.3333333 Z" id="形状" fill="#E0E7EA"></path>
                    <path d="M105.945723,28.5055535 L104.383885,27.2107363 L114.523073,14.9824804 L120.873926,18.649147 L105.945723,28.5055535 Z M99.3776982,25.2150393 L96.4926336,26.1270113 L94.7676768,17.1998306 L100.390397,15.2907801 L99.3776982,25.2150393 Z" id="形状" fill="#E0E7EA"></path>
                </g>
                <path d="M28.238415,31.8616913 C31.5015393,31.4447847 34.03045,30.6939653 35.8388883,29.5072014 C34.6107565,33.5485036 32.2021777,36.2868427 28.1649971,37.8178305 C25.7157381,38.7466434 25.3394085,38.5058788 21.879326,38.1759678 C20.3116586,38.0264943 19.6088905,38.0983052 19.1082412,38.5122857 C18.6742212,38.8711712 17.5756866,39.9254178 17.0553839,41.6799535 C16.8865144,42.2494058 16.8916346,42.3485762 16.736921,42.4282328 C16.5458707,42.5265978 15.8952883,42.095719 15.8086319,41.9570142 C15.682598,41.7552806 15.5639721,41.5094012 15.6832531,41.1838566 C16.1017114,40.0417898 17.4874745,38.4473099 17.9652648,37.4559326 C18.443055,36.4645553 15.2442122,33.0750031 15.576555,28.4282913 C15.9088978,23.7815796 18.4733242,20.6281261 22.4761861,18.3927147 C21.675274,20.5785839 21.5268313,23.4243622 21.9253298,26.9682484 C22.1992874,29.4045799 21.9063126,32.3124938 21.3344121,34.2560366 C22.9155861,33.2287409 25.7670786,32.1774368 28.238415,31.8616913 Z M19.6974615,44.9267382 C22.8245645,43.4071253 25.0992971,41.8052572 26.4999511,40.0152893 C26.6740209,44.4394199 25.2112189,47.9715441 21.6954113,50.8584007 C19.5624565,52.6097863 19.1013523,52.4985885 15.5170027,53.3443399 C13.8930334,53.7275264 13.2133073,54.0369725 12.8552643,54.6172362 C12.5448716,55.1202751 11.809985,56.5381746 11.8984851,58.4545454 C11.9272087,59.076523 11.9668349,59.1731357 11.8394004,59.3045782 C11.682036,59.4668918 10.8798017,59.260124 10.7446647,59.1519443 C10.5481201,58.9946068 10.3436499,58.7909781 10.3500334,58.4276966 C10.3724279,57.1532428 11.2074382,55.1022201 11.3417382,53.957094 C11.4760383,52.8119678 7.08949163,50.5348789 5.80660361,45.8140187 C4.52371559,41.0931584 5.99841554,37.0965296 9.23480858,33.5227213 C9.19194651,35.961974 10.0328688,38.834487 11.6650422,42.2139151 C12.7871199,44.5371859 13.5047232,47.5203141 13.6072209,49.6416165 C14.8354489,48.0868352 17.3291412,46.0776213 19.6974615,44.9267382 Z M16.669599,62.0343786 C19.4819496,59.5430546 21.3802188,57.2203123 22.3103018,54.9637642 C23.806439,59.4611959 23.3291036,63.5275825 20.5172737,67.5402294 C18.8114051,69.9746045 18.2970998,69.9972166 14.807297,71.9314456 C13.2261641,72.8077911 12.6086549,73.3278646 12.407358,74.0308651 C12.2328508,74.6403062 11.8871022,76.3165351 12.5488462,78.2607665 C12.7636219,78.8917866 12.8336855,78.9793597 12.7397315,79.1523652 C12.6237111,79.3660034 11.7249641,79.3916637 11.5517765,79.3205643 C11.299891,79.2171566 11.0259795,79.0685038 10.9247074,78.6930621 C10.5694275,77.3759479 10.8315702,75.0189698 10.6315139,73.8016006 C10.4314576,72.5842313 5.17655067,71.545645 2.43494771,67.0724278 C-0.306655244,62.5992106 0.0450892589,58.0516614 2.36118583,53.4156417 C3.04117721,55.9365446 4.77232481,58.6404579 7.47993299,61.6306009 C9.34134462,63.6862481 10.9766459,66.5405288 11.7138869,68.6913248 C12.5338804,66.7278202 14.5396572,63.9211899 16.669599,62.0343786 Z M17.9700516,79.3658951 C19.7968257,75.876243 20.7897274,72.8953209 20.8573159,70.3436207 C24.0098921,74.1676643 25.0644173,78.3144597 23.8079211,83.2880626 C23.0456355,86.3054263 22.5494043,86.5211872 19.8491866,89.7225048 C18.6257929,91.172933 18.2145948,91.9128683 18.2803455,92.6745038 C18.3373458,93.3347763 18.6258369,95.1002622 20.0033768,96.7477524 C20.4504713,97.2824621 20.5520244,97.3415074 20.5246192,97.5456708 C20.4907776,97.7977849 19.6184261,98.1613107 19.4218448,98.1571758 C19.1359352,98.151162 18.8114659,98.1093042 18.5714745,97.7811789 C17.7295433,96.6300586 17.1040533,94.2319471 16.4518033,93.1196729 C15.7995533,92.0073987 10.2538163,92.9733327 5.88810394,89.641988 C1.52239154,86.3106434 0.164415567,81.7417443 0.700970924,76.3467084 C2.31239284,78.5499057 5.02388052,80.5357472 8.8007911,82.4330624 C11.3973209,83.7374183 14.071068,85.9060511 15.6000576,87.7266239 C15.6693637,85.5022689 16.586539,82.0087931 17.9700516,79.3658951 Z M26.881793,94.4188088 C27.1026186,90.3042829 26.7445196,87.0257069 25.6843489,84.5446939 C30.4076009,86.9090868 33.2521291,90.4565932 34.235063,95.7603541 C34.8313851,98.9780165 34.4485138,99.3918716 33.2591459,103.592609 C32.7202763,105.495847 32.6504741,106.378203 33.0496868,107.082992 C33.39577,107.693984 34.4522386,109.271085 36.505754,110.281679 C37.1722433,110.609678 37.296108,110.624187 37.359743,110.831846 C37.4383235,111.088277 36.7582983,111.800654 36.5671078,111.878464 C36.2890387,111.991631 35.9580181,112.086384 35.5821336,111.870809 C34.2634657,111.114533 32.6033829,109.069506 31.4845659,108.271659 C30.365749,107.473811 25.4495033,110.709555 19.774912,109.323488 C14.1003206,107.937421 10.7773338,104.110402 8.91503154,98.7010458 C11.438908,100.148526 14.926627,100.929403 19.4016297,101.181929 C22.47808,101.355535 26.0100529,102.327826 28.285788,103.441792 C27.3716282,101.274735 26.7145501,97.5349567 26.881793,94.4188088 Z M40.5,16.1510642 C38.7568679,17.150776 37.0423266,18.8846244 35.2691239,21.3258291 C33.3241819,24.0034707 31.3471307,25.5054889 28.7455831,26.4158632 C27.6542817,26.7977486 26.2876986,27.5143857 26.676467,26.8308051 C28.1441738,24.250102 27.642281,21.9705478 30.4976737,19.1829342 C33.3530664,16.3953206 36.7419983,15.6342478 40.5,16.1510642 Z" id="形状结合" fill="#E0E7EA"></path>
                <path d="M213.238415,31.8616913 C216.501539,31.4447847 219.03045,30.6939653 220.838888,29.5072014 C219.610757,33.5485036 217.202178,36.2868427 213.164997,37.8178305 C210.715738,38.7466434 210.339409,38.5058788 206.879326,38.1759678 C205.311659,38.0264943 204.608891,38.0983052 204.108241,38.5122857 C203.674221,38.8711712 202.575687,39.9254178 202.055384,41.6799535 C201.886514,42.2494058 201.891635,42.3485762 201.736921,42.4282328 C201.545871,42.5265978 200.895288,42.095719 200.808632,41.9570142 C200.682598,41.7552806 200.563972,41.5094012 200.683253,41.1838566 C201.101711,40.0417898 202.487475,38.4473099 202.965265,37.4559326 C203.443055,36.4645553 200.244212,33.0750031 200.576555,28.4282913 C200.908898,23.7815796 203.473324,20.6281261 207.476186,18.3927147 C206.675274,20.5785839 206.526831,23.4243622 206.92533,26.9682484 C207.199287,29.4045799 206.906313,32.3124938 206.334412,34.2560366 C207.915586,33.2287409 210.767079,32.1774368 213.238415,31.8616913 Z M204.697462,44.9267382 C207.824565,43.4071253 210.099297,41.8052572 211.499951,40.0152893 C211.674021,44.4394199 210.211219,47.9715441 206.695411,50.8584007 C204.562457,52.6097863 204.101352,52.4985885 200.517003,53.3443399 C198.893033,53.7275264 198.213307,54.0369725 197.855264,54.6172362 C197.544872,55.1202751 196.809985,56.5381746 196.898485,58.4545454 C196.927209,59.076523 196.966835,59.1731357 196.8394,59.3045782 C196.682036,59.4668918 195.879802,59.260124 195.744665,59.1519443 C195.54812,58.9946068 195.34365,58.7909781 195.350033,58.4276966 C195.372428,57.1532428 196.207438,55.1022201 196.341738,53.957094 C196.476038,52.8119678 192.089492,50.5348789 190.806604,45.8140187 C189.523716,41.0931584 190.998416,37.0965296 194.234809,33.5227213 C194.191947,35.961974 195.032869,38.834487 196.665042,42.2139151 C197.78712,44.5371859 198.504723,47.5203141 198.607221,49.6416165 C199.835449,48.0868352 202.329141,46.0776213 204.697462,44.9267382 Z M201.669599,62.0343786 C204.48195,59.5430546 206.380219,57.2203123 207.310302,54.9637642 C208.806439,59.4611959 208.329104,63.5275825 205.517274,67.5402294 C203.811405,69.9746045 203.2971,69.9972166 199.807297,71.9314456 C198.226164,72.8077911 197.608655,73.3278646 197.407358,74.0308651 C197.232851,74.6403062 196.887102,76.3165351 197.548846,78.2607665 C197.763622,78.8917866 197.833686,78.9793597 197.739732,79.1523652 C197.623711,79.3660034 196.724964,79.3916637 196.551777,79.3205643 C196.299891,79.2171566 196.02598,79.0685038 195.924707,78.6930621 C195.569427,77.3759479 195.83157,75.0189698 195.631514,73.8016006 C195.431458,72.5842313 190.176551,71.545645 187.434948,67.0724278 C184.693345,62.5992106 185.045089,58.0516614 187.361186,53.4156417 C188.041177,55.9365446 189.772325,58.6404579 192.479933,61.6306009 C194.341345,63.6862481 195.976646,66.5405288 196.713887,68.6913248 C197.53388,66.7278202 199.539657,63.9211899 201.669599,62.0343786 Z M202.970052,79.3658951 C204.796826,75.876243 205.789727,72.8953209 205.857316,70.3436207 C209.009892,74.1676643 210.064417,78.3144597 208.807921,83.2880626 C208.045636,86.3054263 207.549404,86.5211872 204.849187,89.7225048 C203.625793,91.172933 203.214595,91.9128683 203.280346,92.6745038 C203.337346,93.3347763 203.625837,95.1002622 205.003377,96.7477524 C205.450471,97.2824621 205.552024,97.3415074 205.524619,97.5456708 C205.490778,97.7977849 204.618426,98.1613107 204.421845,98.1571758 C204.135935,98.151162 203.811466,98.1093042 203.571474,97.7811789 C202.729543,96.6300586 202.104053,94.2319471 201.451803,93.1196729 C200.799553,92.0073987 195.253816,92.9733327 190.888104,89.641988 C186.522392,86.3106434 185.164416,81.7417443 185.700971,76.3467084 C187.312393,78.5499057 190.023881,80.5357472 193.800791,82.4330624 C196.397321,83.7374183 199.071068,85.9060511 200.600058,87.7266239 C200.669364,85.5022689 201.586539,82.0087931 202.970052,79.3658951 Z M211.881793,94.4188088 C212.102619,90.3042829 211.74452,87.0257069 210.684349,84.5446939 C215.407601,86.9090868 218.252129,90.4565932 219.235063,95.7603541 C219.831385,98.9780165 219.448514,99.3918716 218.259146,103.592609 C217.720276,105.495847 217.650474,106.378203 218.049687,107.082992 C218.39577,107.693984 219.452239,109.271085 221.505754,110.281679 C222.172243,110.609678 222.296108,110.624187 222.359743,110.831846 C222.438324,111.088277 221.758298,111.800654 221.567108,111.878464 C221.289039,111.991631 220.958018,112.086384 220.582134,111.870809 C219.263466,111.114533 217.603383,109.069506 216.484566,108.271659 C215.365749,107.473811 210.449503,110.709555 204.774912,109.323488 C199.100321,107.937421 195.777334,104.110402 193.915032,98.7010458 C196.438908,100.148526 199.926627,100.929403 204.40163,101.181929 C207.47808,101.355535 211.010053,102.327826 213.285788,103.441792 C212.371628,101.274735 211.71455,97.5349567 211.881793,94.4188088 Z M225.5,16.1510642 C223.756868,17.150776 222.042327,18.8846244 220.269124,21.3258291 C218.324182,24.0034707 216.347131,25.5054889 213.745583,26.4158632 C212.654282,26.7977486 211.287699,27.5143857 211.676467,26.8308051 C213.144174,24.250102 212.642281,21.9705478 215.497674,19.1829342 C218.353066,16.3953206 221.741998,15.6342478 225.5,16.1510642 Z" id="形状结合备份" fill="#E0E7EA" transform="translate(205.500000, 64.000000) scale(-1, 1) translate(-205.500000, -64.000000) "></path>
            </g>
        </g>
    </g>
</svg>