<?xml version="1.0" encoding="UTF-8"?>
<svg width="240px" height="240px" viewBox="0 0 240 240" version="1.1" xmlns="http://www.w3.org/2000/svg" xmlns:xlink="http://www.w3.org/1999/xlink">
    <!-- Generator: Sketch 56.2 (81672) - https://sketch.com -->
    <title>编组备份</title>
    <desc>Created with Sketch.</desc>
    <g id="页面-1" stroke="none" stroke-width="1" fill="none" fill-rule="evenodd">
        <g id="画板" transform="translate(-40.000000, -224.000000)">
            <g id="编组备份" transform="translate(40.000000, 224.000000)">
                <rect id="矩形" fill="#FFFFFF" opacity="0" x="0" y="0" width="240" height="240"></rect>
                <path d="M42.4666667,201.52 L41.7466667,205.16 L34.3866667,205.16 L29.3866667,230 L25.2666667,230 L30.2666667,205.16 L22.7466667,205.16 L23.5066667,201.52 L42.4666667,201.52 Z M58.1866667,214.96 C58.1866667,215.48 58.1066667,216.04 57.9866667,216.64 L55.3066667,230 L51.5466667,230 L51.9466667,228.12 C50.6266667,229.44 49.0266667,230.24 46.6266667,230.24 C43.2666667,230.24 40.6666667,228.44 40.6666667,225.08 C40.6666667,223.2 41.2666667,221.56 42.5066667,220.32 C44.0666667,218.76 46.0666667,218.2 48.4266667,218.2 L53.7866667,218.2 L54.1466667,216.56 C54.2266667,216.2 54.2666667,215.8 54.2666667,215.36 C54.2666667,213.72 53.0666667,212.76 50.7866667,212.76 C48.5466667,212.76 47.1066667,213.52 45.8666667,214.92 L43.7466667,212.32 C45.4666667,210.52 47.5466667,209.48 51.1866667,209.48 C54.2666667,209.48 58.1866667,210.64 58.1866667,214.96 Z M53.2666667,220.92 L48.7866667,220.92 C46.1866667,220.92 44.5066667,222.36 44.5066667,224.76 C44.5066667,226.2 45.4666667,227.04 47.7466667,227.04 C49.3066667,227.04 50.5866667,226.56 51.5066667,225.64 C52.2666667,224.88 52.6266667,223.96 52.9066667,222.72 L53.2666667,220.92 Z M70.6666667,201.52 L66.1466667,224.2 C66.0266667,224.68 65.9866667,224.84 65.9866667,225.28 C65.9866667,226.2 66.4666667,226.72 67.8666667,226.72 L69.7066667,226.72 L69.0266667,230 L66.6266667,230 C64.2666667,230 62.1066667,228.76 62.1066667,225.88 C62.1066667,225.28 62.1466667,224.72 62.2666667,224.2 L66.7866667,201.52 L70.6666667,201.52 Z M93.2666667,209.72 L84.9466667,217.88 L90.3466667,230 L85.9066667,230 L81.9866667,220.32 L78.2666667,223.84 L77.0266667,230 L73.1466667,230 L78.8266667,201.52 L82.7066667,201.52 L79.2666667,219 L88.5466667,209.72 L93.2666667,209.72 Z M102.026667,209.72 L97.9466667,230 L94.0666667,230 L98.1466667,209.72 L102.026667,209.72 Z M103.706667,201.68 L102.986667,205.2 L98.8666667,205.2 L99.5466667,201.68 L103.706667,201.68 Z M112.066667,209.72 L107.986667,230 L104.106667,230 L108.186667,209.72 L112.066667,209.72 Z M113.746667,201.68 L113.026667,205.2 L108.906667,205.2 L109.586667,201.68 L113.746667,201.68 Z M132.546667,215.16 C132.546667,215.8 132.466667,216.64 132.346667,217.28 L129.786667,230 L125.906667,230 L128.386667,217.56 C128.506667,216.96 128.586667,216.44 128.586667,215.96 C128.586667,213.88 127.186667,212.92 125.546667,212.92 C124.186667,212.92 121.266667,213.6 120.506667,217.64 L118.026667,230 L114.146667,230 L118.186667,209.72 L121.946667,209.72 L121.546667,211.8 C122.866667,210.36 124.786667,209.48 127.186667,209.48 C129.906667,209.48 132.546667,211.28 132.546667,215.16 Z M55.0666667,148.853333 L42.5066667,177.333333 L38.9466667,177.333333 L37.4266667,157.173333 L27.7866667,177.333333 L24.2266667,177.333333 L22.7466667,148.853333 L26.9866667,148.853333 L27.6666667,169.453333 L37.2666667,148.853333 L40.5466667,148.853333 L41.9866667,169.453333 L50.6666667,148.853333 L55.0666667,148.853333 Z M70.7066667,163.893333 C70.7066667,165.133333 70.4666667,166.733333 70.1066667,168.293333 L57.5466667,168.293333 C57.4266667,168.933333 57.3466667,169.573333 57.3466667,170.253333 C57.3466667,172.613333 58.5066667,174.293333 61.2266667,174.293333 C63.4266667,174.293333 64.9066667,173.493333 66.4666667,172.053333 L68.6266667,174.613333 C66.5466667,176.573333 63.9466667,177.573333 60.8666667,177.573333 C57.1066667,177.573333 53.6266667,175.493333 53.6266667,170.493333 C53.6266667,164.093333 56.7466667,156.813333 63.7866667,156.813333 C68.1066667,156.813333 70.7066667,159.733333 70.7066667,163.893333 Z M66.9866667,163.893333 C66.9866667,161.293333 65.5066667,160.013333 63.5866667,160.013333 C61.0666667,160.013333 59.1066667,161.733333 58.0266667,165.613333 L66.8266667,165.613333 C66.9466667,165.013333 66.9866667,164.533333 66.9866667,163.893333 Z M82.9866667,148.853333 L78.4666667,171.533333 C78.3466667,172.013333 78.3066667,172.173333 78.3066667,172.613333 C78.3066667,173.533333 78.7866667,174.053333 80.1866667,174.053333 L82.0266667,174.053333 L81.3466667,177.333333 L78.9466667,177.333333 C76.5866667,177.333333 74.4266667,176.093333 74.4266667,173.213333 C74.4266667,172.613333 74.4666667,172.053333 74.5866667,171.533333 L79.1066667,148.853333 L82.9866667,148.853333 Z M102.666667,159.733333 L99.7466667,162.253333 C98.8266667,160.933333 97.8266667,160.253333 96.3466667,160.253333 C95.0666667,160.253333 93.7866667,160.773333 92.7066667,161.893333 C91.4266667,163.213333 90.6666667,165.213333 90.3066667,167.173333 C90.1066667,168.093333 90.0266667,169.053333 90.0266667,170.013333 C90.0266667,172.773333 91.5466667,174.133333 93.6266667,174.133333 C95.2666667,174.133333 96.5466667,173.493333 97.8666667,172.093333 L100.066667,174.893333 C98.1866667,176.653333 95.8666667,177.573333 93.3066667,177.573333 C88.9866667,177.573333 86.1466667,174.733333 86.1466667,170.293333 C86.1466667,169.373333 86.2266667,168.253333 86.4266667,167.173333 C87.8266667,159.653333 92.0266667,156.813333 96.7466667,156.813333 C99.6266667,156.813333 101.426667,158.013333 102.666667,159.733333 Z M121.426667,163.493333 C121.426667,164.733333 121.226667,166.253333 121.066667,167.173333 C120.186667,171.573333 119.066667,173.693333 117.346667,175.293333 C115.706667,176.813333 113.666667,177.573333 111.306667,177.573333 C107.986667,177.573333 104.626667,175.653333 104.626667,170.893333 C104.626667,169.653333 104.826667,168.093333 104.986667,167.173333 C105.826667,162.813333 106.986667,160.693333 108.706667,159.093333 C110.346667,157.573333 112.346667,156.813333 114.746667,156.813333 C118.066667,156.813333 121.426667,158.733333 121.426667,163.493333 Z M117.586667,163.853333 C117.586667,161.293333 116.186667,160.253333 114.386667,160.253333 C113.146667,160.253333 112.106667,160.693333 111.266667,161.533333 C110.186667,162.613333 109.466667,164.293333 108.866667,167.173333 C108.546667,168.813333 108.466667,169.893333 108.466667,170.493333 C108.466667,173.053333 109.906667,174.133333 111.666667,174.133333 C112.906667,174.133333 113.986667,173.653333 114.786667,172.853333 C115.866667,171.773333 116.586667,170.213333 117.186667,167.173333 C117.506667,165.533333 117.586667,164.493333 117.586667,163.853333 Z M154.386667,162.493333 C154.386667,163.173333 154.266667,164.013333 154.146667,164.613333 L151.586667,177.333333 L147.706667,177.333333 L150.226667,164.893333 C150.346667,164.213333 150.426667,163.693333 150.426667,163.293333 C150.426667,161.213333 149.066667,160.253333 147.346667,160.253333 C145.986667,160.253333 143.106667,160.933333 142.346667,164.973333 L139.866667,177.333333 L135.986667,177.333333 L138.466667,164.893333 C138.586667,164.213333 138.666667,163.693333 138.666667,163.293333 C138.666667,161.213333 137.266667,160.253333 135.626667,160.253333 C134.266667,160.253333 131.346667,160.933333 130.586667,164.973333 L128.106667,177.333333 L124.226667,177.333333 L128.266667,157.053333 L132.026667,157.053333 L131.626667,159.133333 C132.946667,157.693333 134.866667,156.813333 137.266667,156.813333 C139.146667,156.813333 140.906667,157.693333 141.986667,159.773333 C143.546667,158.013333 145.346667,156.813333 148.706667,156.813333 C151.666667,156.813333 154.386667,158.773333 154.386667,162.493333 Z M175.306667,163.893333 C175.306667,165.133333 175.066667,166.733333 174.706667,168.293333 L162.146667,168.293333 C162.026667,168.933333 161.946667,169.573333 161.946667,170.253333 C161.946667,172.613333 163.106667,174.293333 165.826667,174.293333 C168.026667,174.293333 169.506667,173.493333 171.066667,172.053333 L173.226667,174.613333 C171.146667,176.573333 168.546667,177.573333 165.466667,177.573333 C161.706667,177.573333 158.226667,175.493333 158.226667,170.493333 C158.226667,164.093333 161.346667,156.813333 168.386667,156.813333 C172.706667,156.813333 175.306667,159.733333 175.306667,163.893333 Z M171.586667,163.893333 C171.586667,161.293333 170.106667,160.013333 168.186667,160.013333 C165.666667,160.013333 163.706667,161.733333 162.626667,165.613333 L171.426667,165.613333 C171.546667,165.013333 171.586667,164.533333 171.586667,163.893333 Z M199.346667,157.053333 L198.786667,160.013333 L195.106667,160.013333 L192.826667,171.573333 C192.706667,172.013333 192.666667,172.253333 192.666667,172.573333 C192.666667,173.493333 193.186667,174.053333 194.586667,174.053333 L196.266667,174.053333 L195.626667,177.333333 L193.306667,177.333333 C190.946667,177.333333 188.786667,176.093333 188.786667,173.213333 C188.786667,172.573333 188.826667,171.973333 188.946667,171.533333 L191.226667,160.013333 L188.946667,160.013333 L189.546667,157.053333 L191.826667,157.053333 L192.986667,151.253333 L196.866667,151.253333 L195.706667,157.053333 L199.346667,157.053333 Z M217.866667,163.493333 C217.866667,164.733333 217.666667,166.253333 217.506667,167.173333 C216.626667,171.573333 215.506667,173.693333 213.786667,175.293333 C212.146667,176.813333 210.106667,177.573333 207.746667,177.573333 C204.426667,177.573333 201.066667,175.653333 201.066667,170.893333 C201.066667,169.653333 201.266667,168.093333 201.426667,167.173333 C202.266667,162.813333 203.426667,160.693333 205.146667,159.093333 C206.786667,157.573333 208.786667,156.813333 211.186667,156.813333 C214.506667,156.813333 217.866667,158.733333 217.866667,163.493333 Z M214.026667,163.853333 C214.026667,161.293333 212.626667,160.253333 210.826667,160.253333 C209.586667,160.253333 208.546667,160.693333 207.706667,161.533333 C206.626667,162.613333 205.906667,164.293333 205.306667,167.173333 C204.986667,168.813333 204.906667,169.893333 204.906667,170.493333 C204.906667,173.053333 206.346667,174.133333 208.106667,174.133333 C209.346667,174.133333 210.426667,173.653333 211.226667,172.853333 C212.306667,171.773333 213.026667,170.213333 213.626667,167.173333 C213.946667,165.533333 214.026667,164.493333 214.026667,163.853333 Z" id="形状" fill="#FFD100" fill-rule="nonzero"></path>
                <path d="M100.666667,95.6759256 L100.666667,79.9361855 L81.3333333,84.3469409 L81.3333333,100.643513 L100.666667,95.6759256 L100.666667,95.6759256 Z M100.666667,99.0819021 L67.5630252,106.63425 L66.6666667,104.412028 L73.3333333,102.699067 L73.3333333,76.6666667 L81.3333333,76.6666667 L81.3333333,81.6898079 L100.666667,76.7222202 L100.666667,74.6666667 L108.666667,74.6666667 L108.666667,101.333333 L100.666667,101.333333 L100.666667,99.0819021 L100.666667,99.0819021 Z M56.6666667,51.1495199 L86.6666667,43.2071331 L86.6666667,34 L94.6666667,34 L94.6666667,41.0891632 L117.666667,35 L117.666667,39.6666667 L56.6666667,54.1354221 L56.6666667,88 L48.6666667,88 L48.6666667,56.0329638 L37.5630252,58.6666667 L36.6666667,56.4444444 L48.6666667,53.2674897 L48.6666667,38.9546301 L39.2819245,41.6625951 L37.9156508,38.8839323 L62.0613709,24.981255 L69.0209498,33.0814068 L56.6666667,36.6462321 L56.6666667,51.1495199 Z M32,50.3510663 L32,83.3333333 L23.3333333,83.3333333 L23.3333333,52.8518308 L11.2819245,56.3292618 L9.91565084,53.550599 L34.0613709,39.6479217 L41.0209498,47.7480735 L32,50.3510663 Z M109.333333,49.5601952 L109.333333,53.1197806 L70.8963585,61.8888889 L70,59.6666667 L109.333333,49.5601952 Z M109.333333,61.3333333 L109.333333,64.8929187 L70.8963585,73.662027 L70,71.4398048 L109.333333,61.3333333 Z" id="形状" fill="#282D4B"></path>
                <path d="M109.945723,28.5055535 L108.383885,27.2107363 L118.523073,14.9824804 L124.873926,18.649147 L109.945723,28.5055535 Z M103.377698,25.2150393 L100.492634,26.1270113 L98.7676768,17.1998306 L104.390397,15.2907801 L103.377698,25.2150393 Z" id="形状" fill="#FFD100"></path>
            </g>
        </g>
    </g>
</svg>