<?xml version="1.0" encoding="UTF-8"?>
<svg width="670px" height="130px" viewBox="0 0 670 130" version="1.1" xmlns="http://www.w3.org/2000/svg" xmlns:xlink="http://www.w3.org/1999/xlink">
    <!-- Generator: Sketch 56.2 (81672) - https://sketch.com -->
    <title>编组 14备份</title>
    <desc>Created with Sketch.</desc>
    <g id="页面-1" stroke="none" stroke-width="1" fill="none" fill-rule="evenodd">
        <g id="编组-14备份">
            <path d="M20,0 L650,0 C661.045695,-2.02906125e-15 670,8.954305 670,20 L670,110 C670,121.045695 661.045695,130 650,130 L20,130 C8.954305,130 1.3527075e-15,121.045695 0,110 L0,20 C-1.3527075e-15,8.954305 8.954305,2.02906125e-15 20,0 Z" id="矩形" fill="#282D4B"></path>
            <path d="M356.24,52.356 L352.064,56.028 C350.948,54.696 349.58,54.372 347.888,54.372 C345.44,54.372 344.036,55.884 344.036,57.18 C344.036,58.512 345.188,58.836 346.232,59.124 L348.176,59.628 C352.64,60.78 354.152,62.868 354.152,66.54 C354.152,72.732 349.004,75.216 343.532,75.216 C339.248,75.216 336.656,74.244 334.46,71.688 L338.78,67.908 C340.04,69.348 341.804,69.924 344.072,69.924 C346.412,69.924 348.14,68.628 348.14,67.152 C348.14,65.748 347.384,65.352 345.98,64.956 L344.036,64.452 C338.852,63.12 338.06,60.132 338.06,58.152 C338.06,52.536 342.416,49.152 348.572,49.152 C351.776,49.152 354.62,50.232 356.24,52.356 Z M364.844,56.46 L361.136,75 L355.52,75 L359.228,56.46 L364.844,56.46 Z M366.248,49.368 L365.384,53.724 L359.768,53.724 L360.632,49.368 L366.248,49.368 Z M382.124,58.008 L377.876,61.752 C377.3,60.996 376.688,60.492 375.824,60.492 C375.068,60.492 374.42,60.78 373.88,61.356 C373.052,62.22 372.476,63.552 372.152,65.316 C372.008,66.072 371.9,66.756 371.9,67.584 C371.9,68.988 372.296,70.14 373.844,70.14 C374.852,70.14 375.68,69.672 376.508,68.844 L379.604,72.912 C378.056,74.316 375.824,75.216 373.232,75.216 C370.064,75.216 366.248,73.272 366.248,68.34 C366.248,67.368 366.356,66.36 366.536,65.316 C368.084,56.676 373.016,55.416 376.364,55.416 C379.244,55.416 381.008,56.604 382.124,58.008 Z M400.124,60.744 C400.124,61.572 400.016,62.292 399.872,62.976 L397.46,75 L391.844,75 L394.184,63.3 C394.256,62.976 394.292,62.652 394.292,62.328 C394.292,61.032 393.392,60.492 392.672,60.492 C391.376,60.492 390.116,61.14 389.684,63.3 L387.344,75 L381.728,75 L386.84,49.368 L392.456,49.368 L390.944,56.892 C392.132,55.92 393.68,55.416 395.264,55.416 C397.28,55.416 400.124,56.712 400.124,60.744 Z M420.932,55.632 L417.08,75 L411.716,75 L412.04,73.308 C410.78,74.568 408.98,75.216 407.288,75.216 C405.38,75.216 402.536,73.92 402.536,69.888 C402.536,69.06 402.644,68.34 402.788,67.656 L405.2,55.632 L410.816,55.632 L408.476,67.332 C408.404,67.656 408.368,67.98 408.368,68.304 C408.368,69.6 409.268,70.14 409.988,70.14 C411.284,70.14 412.544,69.492 412.976,67.332 L415.316,55.632 L420.932,55.632 Z M438.536,60.996 C438.536,61.572 438.428,62.256 438.32,62.796 L435.872,75 L430.472,75 L430.796,73.416 C429.896,74.316 428.564,75.18 426.584,75.18 C423.02,75.18 421.184,72.516 421.184,69.888 C421.184,67.836 421.796,66.288 422.912,65.244 C424.316,63.912 426.296,63.3 428.564,63.3 L432.596,63.3 L432.74,62.616 C432.812,62.328 432.848,62.04 432.848,61.788 C432.848,60.816 432.236,60.096 430.544,60.096 C428.924,60.096 427.664,60.816 426.944,61.644 L424.136,57.9 C425.612,56.496 427.664,55.416 431.444,55.416 C434.972,55.416 438.536,56.964 438.536,60.996 Z M431.84,67.044 L429.104,67.044 C427.484,67.044 426.692,68.124 426.692,69.24 C426.692,70.068 427.268,70.68 428.384,70.68 C429.428,70.68 430.256,70.212 430.796,69.672 C431.336,69.132 431.588,68.412 431.732,67.584 L431.84,67.044 Z M458.192,60.744 C458.192,61.572 458.084,62.292 457.94,62.976 L455.528,75 L449.912,75 L452.252,63.3 C452.324,62.976 452.36,62.652 452.36,62.328 C452.36,61.032 451.46,60.492 450.74,60.492 C449.444,60.492 448.184,61.14 447.752,63.3 L445.412,75 L439.796,75 L443.648,55.632 L449.012,55.632 L448.688,57.324 C449.948,56.064 451.748,55.416 453.44,55.416 C455.348,55.416 458.192,56.712 458.192,60.744 Z M485.156,71.76 L484.508,75 L468.956,75 L474.104,49.368 L477.812,49.368 L473.348,71.76 L485.156,71.76 Z M503.732,61.464 C503.732,61.932 503.66,62.436 503.552,62.976 L501.14,75 L497.756,75 L498.116,73.308 C496.928,74.496 495.488,75.216 493.328,75.216 C490.304,75.216 487.964,73.596 487.964,70.572 C487.964,68.88 488.504,67.404 489.62,66.288 C491.024,64.884 492.824,64.38 494.948,64.38 L499.772,64.38 L500.096,62.904 C500.168,62.58 500.204,62.22 500.204,61.824 C500.204,60.348 499.124,59.484 497.072,59.484 C495.056,59.484 493.76,60.168 492.644,61.428 L490.736,59.088 C492.284,57.468 494.156,56.532 497.432,56.532 C500.204,56.532 503.732,57.576 503.732,61.464 Z M499.304,66.828 L495.272,66.828 C492.932,66.828 491.42,68.124 491.42,70.284 C491.42,71.58 492.284,72.336 494.336,72.336 C495.74,72.336 496.892,71.904 497.72,71.076 C498.404,70.392 498.728,69.564 498.98,68.448 L499.304,66.828 Z M523.028,61.644 C523.028,62.22 522.956,62.976 522.848,63.552 L520.544,75 L517.052,75 L519.284,63.804 C519.392,63.264 519.464,62.796 519.464,62.364 C519.464,60.492 518.204,59.628 516.728,59.628 C515.504,59.628 512.876,60.24 512.192,63.876 L509.96,75 L506.468,75 L510.104,56.748 L513.488,56.748 L513.128,58.62 C514.316,57.324 516.044,56.532 518.204,56.532 C520.652,56.532 523.028,58.152 523.028,61.644 Z M542.792,56.748 L539.192,74.856 C538.04,80.76 534.116,82.596 530.516,82.596 C527.924,82.596 526.124,81.804 524.684,80.112 L527.132,77.988 C527.816,78.816 528.716,79.644 530.552,79.644 C533.036,79.644 535.052,78.096 535.736,74.82 L536.204,72.516 C535.16,73.776 533.828,74.568 531.668,74.568 C528.644,74.568 526.556,72.696 526.556,69.204 C526.556,68.304 526.7,67.08 526.988,65.532 C527.6,62.184 528.32,59.952 529.868,58.404 C531.272,57 532.964,56.532 534.656,56.532 C536.492,56.532 538.076,57.144 538.976,58.836 L539.408,56.748 L542.792,56.748 Z M537.932,62.688 C537.932,60.636 537.032,59.628 535.196,59.628 C532.28,59.628 531.164,62.076 530.48,65.568 C530.228,66.72 530.12,67.692 530.12,68.412 C530.12,70.14 530.696,71.472 532.82,71.472 C535.736,71.472 536.888,68.988 537.572,65.532 C537.824,64.38 537.932,63.408 537.932,62.688 Z M562.196,56.748 L558.56,75 L555.176,75 L555.536,73.128 C554.348,74.424 552.62,75.216 550.46,75.216 C548.012,75.216 545.636,73.596 545.636,70.104 C545.636,69.528 545.708,68.772 545.816,68.196 L548.12,56.748 L551.612,56.748 L549.38,67.944 C549.272,68.484 549.2,68.952 549.2,69.384 C549.2,71.256 550.46,72.12 551.936,72.12 C553.232,72.12 555.716,71.508 556.472,67.872 L558.704,56.748 L562.196,56.748 Z M579.584,61.464 C579.584,61.932 579.512,62.436 579.404,62.976 L576.992,75 L573.608,75 L573.968,73.308 C572.78,74.496 571.34,75.216 569.18,75.216 C566.156,75.216 563.816,73.596 563.816,70.572 C563.816,68.88 564.356,67.404 565.472,66.288 C566.876,64.884 568.676,64.38 570.8,64.38 L575.624,64.38 L575.948,62.904 C576.02,62.58 576.056,62.22 576.056,61.824 C576.056,60.348 574.976,59.484 572.924,59.484 C570.908,59.484 569.612,60.168 568.496,61.428 L566.588,59.088 C568.136,57.468 570.008,56.532 573.284,56.532 C576.056,56.532 579.584,57.576 579.584,61.464 Z M575.156,66.828 L571.124,66.828 C568.784,66.828 567.272,68.124 567.272,70.284 C567.272,71.58 568.136,72.336 570.188,72.336 C571.592,72.336 572.744,71.904 573.572,71.076 C574.256,70.392 574.58,69.564 574.832,68.448 L575.156,66.828 Z M599.204,56.748 L595.604,74.856 C594.452,80.76 590.528,82.596 586.928,82.596 C584.336,82.596 582.536,81.804 581.096,80.112 L583.544,77.988 C584.228,78.816 585.128,79.644 586.964,79.644 C589.448,79.644 591.464,78.096 592.148,74.82 L592.616,72.516 C591.572,73.776 590.24,74.568 588.08,74.568 C585.056,74.568 582.968,72.696 582.968,69.204 C582.968,68.304 583.112,67.08 583.4,65.532 C584.012,62.184 584.732,59.952 586.28,58.404 C587.684,57 589.376,56.532 591.068,56.532 C592.904,56.532 594.488,57.144 595.388,58.836 L595.82,56.748 L599.204,56.748 Z M594.344,62.688 C594.344,60.636 593.444,59.628 591.608,59.628 C588.692,59.628 587.576,62.076 586.892,65.568 C586.64,66.72 586.532,67.692 586.532,68.412 C586.532,70.14 587.108,71.472 589.232,71.472 C592.148,71.472 593.3,68.988 593.984,65.532 C594.236,64.38 594.344,63.408 594.344,62.688 Z M617.06,62.904 C617.06,64.02 616.844,65.46 616.52,66.864 L605.216,66.864 C605.108,67.44 605.036,68.016 605.036,68.628 C605.036,70.752 606.08,72.264 608.528,72.264 C610.508,72.264 611.84,71.544 613.244,70.248 L615.188,72.552 C613.316,74.316 610.976,75.216 608.204,75.216 C604.82,75.216 601.688,73.344 601.688,68.844 C601.688,63.084 604.496,56.532 610.832,56.532 C614.72,56.532 617.06,59.16 617.06,62.904 Z M613.712,62.904 C613.712,60.564 612.38,59.412 610.652,59.412 C608.384,59.412 606.62,60.96 605.648,64.452 L613.568,64.452 C613.676,63.912 613.712,63.48 613.712,62.904 Z" id="SichuanLanguage" fill="#FFFFFF" fill-rule="nonzero"></path>
            <g id="编组-3" transform="translate(46.000000, 21.000000)">
                <polygon id="路径-4" fill="#FFD100" transform="translate(121.252559, 11.692820) rotate(-150.000000) translate(-121.252559, -11.692820) " points="124.852559 2.09282032 127.252559 2.50133096 124.052559 21.2928203 115.252559 21.2928203"></polygon>
                <polygon id="路径-5" fill="#FFD100" transform="translate(103.356922, 8.288973) rotate(-150.000000) translate(-103.356922, -8.288973) " points="98.5569219 4.16776062 103.45905 15.0889727 108.156922 9.73139699 101.007986 1.48897275"></polygon>
                <path d="M40.944,22.7834296 L40.944,65.7914296 L0,72.0470273 L0,29.0390273 L40.944,22.7834296 Z M32.736,60.3734826 L32.736,53.6054826 L21.84,55.2702196 L21.84,32.4222196 L18.576,32.9209073 C18.4799995,35.8475893 18.2960014,38.5556745 18.024,41.0452442 C17.7519986,43.534814 17.4400018,45.7664604 17.088,47.7402503 C16.7359982,49.7140402 16.360002,51.4354699 15.96,52.9045909 C15.559998,54.3737119 15.1840018,55.5351472 14.832,56.3889315 L7.824,57.4596434 L7.824,64.1796434 L32.736,60.3734826 Z M28.56,31.3955096 L28.56,47.8115096 L32.736,47.1734826 L32.736,30.7574826 L28.56,31.3955096 Z M7.824,56.5956434 C8.81600496,53.7560673 9.711996,50.411206 10.512,46.5609594 C11.312004,42.7107128 11.824,38.4965292 12.048,33.9182828 L7.824,34.5636434 L7.824,56.5956434 Z M46.896,64.8820578 C47.6640038,63.5487129 48.2799977,62.1346119 48.744,60.6397126 C49.2080023,59.1448132 49.5679987,57.6258261 49.824,56.0827056 C50.0800013,54.5395851 50.2559995,52.9927106 50.352,51.4420355 C50.4480005,49.8913605 50.496,48.380042 50.496,46.9080346 L50.496,20.8920346 L58.128,19.7259853 L58.128,45.8379853 C58.128,47.5019937 58.096,49.1628662 58.032,50.8206526 C57.9679997,52.4784391 57.8480009,54.0727573 57.672,55.6036549 C57.4959991,57.1345526 57.2480016,58.5804287 56.928,59.9413264 C56.6079984,61.3022242 56.1920026,62.5017704 55.68,63.5400011 L46.896,64.8820578 Z M79.584,16.3998468 L87.312,15.2191303 L87.312,58.7071303 L79.584,59.8878468 L79.584,16.3998468 Z M64.896,19.9879416 L72.528,18.8218924 L72.528,58.3258924 L64.896,59.4919416 L64.896,19.9879416 Z" id="四川" fill="#FFFFFF" fill-rule="nonzero"></path>
            </g>
        </g>
    </g>
</svg>