<?xml version="1.0" encoding="UTF-8"?>
<svg width="64px" height="64px" viewBox="0 0 64 64" version="1.1" xmlns="http://www.w3.org/2000/svg" xmlns:xlink="http://www.w3.org/1999/xlink">
    <!-- Generator: Sketch 56.2 (81672) - https://sketch.com -->
    <title>编组 4</title>
    <desc>Created with Sketch.</desc>
    <g id="页面-1" stroke="none" stroke-width="1" fill="none" fill-rule="evenodd">
        <g id="A2d" transform="translate(-40.000000, -104.000000)">
            <g id="编组-4" transform="translate(40.000000, 104.000000)">
                <circle id="椭圆形" fill="#282D4B" cx="32" cy="32" r="32"></circle>
                <path d="M35,29 L45,29 C46.6568542,29 48,30.3431458 48,32 C48,33.6568542 46.6568542,35 45,35 L35,35 L35,45 C35,46.6568542 33.6568542,48 32,48 C30.3431458,48 29,46.6568542 29,45 L29,35 L19,35 C17.3431458,35 16,33.6568542 16,32 C16,30.3431458 17.3431458,29 19,29 L29,29 L29,19 C29,17.3431458 30.3431458,16 32,16 C33.6568542,16 35,17.3431458 35,19 L35,29 Z" id="形状结合" fill="#FFFFFF" transform="translate(32.000000, 32.000000) rotate(-315.000000) translate(-32.000000, -32.000000) "></path>
            </g>
        </g>
    </g>
</svg>