<?xml version="1.0" encoding="UTF-8"?>
<svg width="64px" height="64px" viewBox="0 0 64 64" version="1.1" xmlns="http://www.w3.org/2000/svg" xmlns:xlink="http://www.w3.org/1999/xlink">
    <!-- Generator: Sketch 56.2 (81672) - https://sketch.com -->
    <title>编组 4备份 4</title>
    <desc>Created with Sketch.</desc>
    <g id="页面-1" stroke="none" stroke-width="1" fill="none" fill-rule="evenodd">
        <g id="A2" transform="translate(-352.000000, -104.000000)">
            <g id="编组-4备份-4" transform="translate(352.000000, 104.000000)">
                <rect id="矩形" fill="#FFFFFF" opacity="0" x="0" y="0" width="64" height="64"></rect>
                <g id="编组-9" transform="translate(32.000000, 30.000000) rotate(-360.000000) translate(-32.000000, -30.000000) translate(2.000000, 5.000000)">
                    <path d="M3.69230769,16.6153846 L55.3846154,16.6153846 C57.4238206,16.6153846 59.0769231,18.2684871 59.0769231,20.3076923 L59.0769231,46.1538462 C59.0769231,48.1930514 57.4238206,49.8461538 55.3846154,49.8461538 L3.69230769,49.8461538 C1.65310246,49.8461538 0,48.1930514 0,46.1538462 L0,20.3076923 C0,18.2684871 1.65310246,16.6153846 3.69230769,16.6153846 Z" id="矩形备份-4" fill="#16357B"></path>
                    <path d="M3.69230769,13.8461538 L55.3846154,13.8461538 C57.4238206,13.8461538 59.0769231,15.4992563 59.0769231,17.5384615 L59.0769231,43.3846154 C59.0769231,45.4238206 57.4238206,47.0769231 55.3846154,47.0769231 L3.69230769,47.0769231 C1.65310246,47.0769231 0,45.4238206 0,43.3846154 L0,17.5384615 C0,15.4992563 1.65310246,13.8461538 3.69230769,13.8461538 Z" id="矩形备份-4" fill="#2265D5"></path>
                    <path d="M3.69230769,11.0769231 L55.3846154,11.0769231 C57.4238206,11.0769231 59.0769231,12.7300255 59.0769231,14.7692308 L59.0769231,40.6153846 C59.0769231,42.6545898 57.4238206,44.3076923 55.3846154,44.3076923 L3.69230769,44.3076923 C1.65310246,44.3076923 0,42.6545898 0,40.6153846 L0,14.7692308 C0,12.7300255 1.65310246,11.0769231 3.69230769,11.0769231 Z" id="矩形备份-3" fill="#16357B"></path>
                    <path d="M3.69230769,8.30769231 L55.3846154,8.30769231 C57.4238206,8.30769231 59.0769231,9.96079477 59.0769231,12 L59.0769231,37.8461538 C59.0769231,39.8853591 57.4238206,41.5384615 55.3846154,41.5384615 L3.69230769,41.5384615 C1.65310246,41.5384615 0,39.8853591 0,37.8461538 L0,12 C0,9.96079477 1.65310246,8.30769231 3.69230769,8.30769231 Z" id="矩形备份-2" fill="#2265D5"></path>
                    <g id="编组-5" transform="translate(0.000000, 5.538462)">
                        <path d="M3.69230769,0 L53.5384615,0 L53.5384615,27.6923077 C53.5384615,30.7511155 51.0588078,33.2307692 48,33.2307692 L3.69230769,33.2307692 C1.65310246,33.2307692 0,31.5776668 0,29.5384615 L0,3.69230769 C0,1.65310246 1.65310246,0 3.69230769,0 Z" id="矩形" fill="#3480FF"></path>
                        <path d="M29.5384615,5.88743304 C28.6533602,5.6596237 27.725445,5.53846154 26.7692308,5.53846154 C20.6516151,5.53846154 15.6923077,10.4977689 15.6923077,16.6153846 C15.6923077,22.7330003 20.6516151,27.6923077 26.7692308,27.6923077 C27.725445,27.6923077 28.6533602,27.5711455 29.5384615,27.3433362 C30.4235629,27.5711455 31.3514781,27.6923077 32.3076923,27.6923077 C38.425308,27.6923077 43.3846154,22.7330003 43.3846154,16.6153846 C43.3846154,10.4977689 38.425308,5.53846154 32.3076923,5.53846154 C31.3514781,5.53846154 30.4235629,5.6596237 29.5384615,5.88743304 L29.5384615,5.88743304 Z M2.76923077,25.1557246 L2.76923077,8.07504464 C5.36419807,7.40714622 7.40714622,5.36419807 8.07504464,2.76923077 L53.5384615,2.76923077 L53.5384615,27.6923077 C53.5384615,29.2217116 52.2986347,30.4615385 50.7692308,30.4615385 L8.07504464,30.4615385 C7.40714622,27.8665712 5.36419807,25.823623 2.76923077,25.1557246 Z" id="形状" fill="#2265D5" fill-rule="nonzero"></path>
                    </g>
                    <path d="M24.0576923,29.6647844 C23.3950044,29.4985885 22.806845,29.3213273 22.2931996,29.1329967 C21.7231484,28.9239846 21.0613193,28.6195586 20.3076923,28.2197094 L22.0468227,25.2753803 C22.6651833,25.6025296 23.1869172,25.8478879 23.6120401,26.0114626 C24.037163,26.1750372 24.5492352,26.3204347 25.148272,26.4476595 C25.5540711,26.5567092 25.9791877,26.6112333 26.4236343,26.6112333 C26.9260523,26.6112333 27.3608306,26.5567092 27.7279822,26.4476595 C28.1144575,26.3204347 28.3801554,26.1523189 28.5250836,25.9433068 C28.6700119,25.7342947 28.7424749,25.5207421 28.7424749,25.3026426 C28.7424749,25.0481931 28.6555193,24.8073785 28.4816054,24.5801915 C28.3076923,24.3530044 28.0564862,24.1939759 27.7279822,24.1031011 L24.1627648,23.0671334 C23.0999575,22.7581591 22.2593862,22.203831 21.6410256,21.4041327 C21.0613126,20.6407843 20.7714604,19.7865739 20.7714604,18.8414759 C20.7907842,17.841853 21.1192833,16.9558369 21.7569677,16.183401 C22.3438423,15.4725116 23.1107439,14.9656001 24.0576923,14.6626539 L24.0576923,12.9230769 L27.8076923,12.9230769 L27.8076923,14.4217471 C28.0422592,14.451003 28.2668966,14.4884311 28.4816054,14.5340314 C29.5250888,14.752131 30.5782184,15.070188 31.6410256,15.4882122 L30.2207358,18.5688528 C29.3511662,18.2235285 28.5105949,17.9690829 27.6989967,17.8055082 C27.4091401,17.7328084 27.0130088,17.696459 26.5105909,17.696459 C25.9888491,17.696459 25.5830561,17.7418957 25.2931996,17.8327705 C24.926048,17.9236453 24.6748427,18.0690429 24.5395764,18.2689674 C24.40431,18.468892 24.3366778,18.6597263 24.3366778,18.8414759 C24.3366778,19.0232255 24.3946482,19.2140597 24.5105909,19.4139843 C24.6265335,19.6139089 24.8584152,19.7593064 25.206243,19.8501812 L28.7424749,20.8588866 C29.8052822,21.1678609 30.6651769,21.7267326 31.3221851,22.5355184 C31.9791932,23.3443043 32.3076923,24.2575824 32.3076923,25.2753803 C32.3076923,26.2931782 31.9888549,27.197369 31.3511706,27.9879798 C30.7134862,28.7785907 29.8535914,29.328375 28.7714604,29.6373494 C28.466873,29.7328426 28.1456176,29.80743 27.8076923,29.8611119 L27.8076923,31.3846154 L24.0576923,31.3846154 L24.0576923,29.6647863 L24.0576923,29.6647844 Z" id="路径" fill-rule="nonzero"></path>
                    <polygon id="矩形" fill="#FFFFFF" points="22.1538462 5.53846154 36.9230769 5.53846154 36.9230769 38.7692308 22.1538462 38.7692308"></polygon>
                    <polygon id="矩形备份-5" fill="#E3EDFF" points="22.1538462 38.7692308 36.9230769 38.7692308 36.9230769 49.8461538 22.1538462 49.8461538"></polygon>
                    <polygon id="矩形备份-5" fill="#95BCFE" points="21.2307692 38.7692308 24.9230769 38.7692308 24.9230769 49.8461538 21.2307692 49.8461538"></polygon>
                    <polygon id="矩形备份-7" fill="#E3EDFF" points="21.2307692 5.53846154 24.9230769 5.53846154 24.9230769 38.7692308 21.2307692 38.7692308"></polygon>
                    <polygon id="矩形备份-6" fill="#95BCFE" points="34.1538462 38.7692308 37.8461538 38.7692308 37.8461538 49.8461538 34.1538462 49.8461538"></polygon>
                    <polygon id="矩形备份-8" fill="#E3EDFF" points="34.1538462 5.53846154 37.8461538 5.53846154 37.8461538 38.7692308 34.1538462 38.7692308"></polygon>
                    <path d="M53.5384615,33.2307692 C53.5384615,30.1719614 51.0588078,27.6923077 48,27.6923077 L48,-3.55271368e-15 C51.0588078,-3.55271368e-15 53.5384615,2.47965369 53.5384615,5.53846154 L55.3846154,5.53846154 C57.4238206,5.53846154 59.0769231,7.191564 59.0769231,9.23076923 L59.0769231,35.0769231 C59.0769231,37.1161283 57.4238206,38.7692308 55.3846154,38.7692308 L48,38.7692308 C51.0588078,38.7692308 53.5384615,36.2895771 53.5384615,33.2307692 L53.5384615,33.2307692 Z" id="路径" fill="#16357B"></path>
                </g>
            </g>
        </g>
    </g>
</svg>