<?xml version="1.0" standalone="no"?><!DOCTYPE svg PUBLIC "-//W3C//DTD SVG 1.1//EN" "http://www.w3.org/Graphics/SVG/1.1/DTD/svg11.dtd"><svg t="1575378836009" class="icon" viewBox="0 0 1024 1024" version="1.1" xmlns="http://www.w3.org/2000/svg" p-id="3831" width="64" height="64" xmlns:xlink="http://www.w3.org/1999/xlink"><defs><style type="text/css"></style></defs><path d="M512 981.333333C251.733333 981.333333 42.666667 772.266667 42.666667 512S251.733333 42.666667 512 42.666667s469.333333 209.066667 469.333333 469.333333-209.066667 469.333333-469.333333 469.333333z m42.666667-691.2c-12.8 0-21.333333 4.266667-29.866667 12.8l-179.2 179.2c-17.066667 17.066667-17.066667 42.666667 0 59.733334l179.2 179.2c8.533333 8.533333 17.066667 12.8 29.866667 12.8 12.8 0 21.333333-4.266667 29.866666-12.8 8.533333-8.533333 12.8-17.066667 12.8-29.866667 0-12.8-4.266667-21.333333-12.8-29.866667L435.2 512l149.333333-149.333333c17.066667-17.066667 17.066667-42.666667 0-59.733334-8.533333-8.533333-17.066667-12.8-29.866666-12.8z" p-id="3832" fill="#282D4B"></path></svg>