<?xml version="1.0" encoding="UTF-8"?>
<svg width="400px" height="280px" viewBox="0 0 400 280" version="1.1" xmlns="http://www.w3.org/2000/svg" xmlns:xlink="http://www.w3.org/1999/xlink">
    <!-- Generator: Sketch 56.2 (81672) - https://sketch.com -->
    <title>编组 7</title>
    <desc>Created with Sketch.</desc>
    <g id="页面-1" stroke="none" stroke-width="1" fill="none" fill-rule="evenodd">
        <g id="C1" transform="translate(-175.000000, -908.000000)">
            <g id="编组-7" transform="translate(175.000000, 908.000000)">
                <g id="编组-8">
                    <rect id="矩形" fill="#FFFFFF" opacity="0" x="0" y="0" width="400" height="280"></rect>
                    <g id="编组-4" transform="translate(7.000000, 14.000000)">
                        <g id="编组-5">
                            <path d="M149.940269,1.70743032 C163.760139,5.23712768 174.461077,19.5934731 172.5,38.7347912 C171.153727,51.8752432 168.121295,68.2133303 166.352258,77.9540677 C167.091292,77.7844492 167.858502,77.6987363 168.653187,77.6987363 C176.324671,77.6987363 181.667938,81.7949366 179.568237,89.0637825 C177.343102,96.7668612 173.706743,103.96278 169.893122,107.263324 C167.843359,109.037316 164.986749,110.028793 162.276389,110.253917 C162.167138,110.898327 162.055508,111.54118 161.9415,112.182477 C160.091972,122.586074 155.821163,133.39664 149.638196,141.711035 C146.684617,145.682789 143.360884,149.022259 139.684552,151.64422 C139.615303,151.841485 139.54405,152.038382 139.470835,152.234883 C139.455612,156.790319 139.443944,160.895769 139.435831,164.551234 L139.435054,164.811248 C139.41565,173.737428 139.417785,179.796661 139.441457,183.27 C139.5,191.859474 148.157247,197.671579 159.146721,201.84 C170.136194,206.008421 198.1783,206.011579 223.567773,238.98 C235.694089,255.401053 239.609879,264.236842 235.315142,265.5 L118.5,265.5 L1.6848583,265.5 C-2.60987854,264.236842 1.30591093,255.401053 13.4322267,238.98 C38.8217004,206.011579 66.8638057,206.008421 77.8532794,201.84 C88.842753,197.671579 97.5,191.859474 97.5585425,183.27 C97.5815756,179.890535 97.5842188,174.070558 97.5664719,165.529017 L97.5643725,164.64317 C97.558786,162.112622 97.551489,159.365626 97.5424815,156.402133 L97.5419285,156.127131 C97.5410579,155.842068 97.5401716,155.555015 97.5392696,155.26597 L97.5354052,154.13892 C97.5329395,153.370984 97.5303669,152.589516 97.5276874,151.794516 C93.7669398,149.150317 90.3721167,145.75908 87.3618037,141.711035 C81.1788366,133.39664 76.9080284,122.586074 75.0585,112.182477 C74.9444916,111.54118 74.8328622,110.898327 74.7236114,110.253917 C72.0132513,110.028793 69.156641,109.037316 67.1068781,107.263324 C63.293257,103.96278 59.656898,96.7668612 57.4317633,89.0637825 C55.3320624,81.7949366 60.6753291,77.6987363 68.3468132,77.6987363 C69.2944063,77.6987363 70.2029342,77.8206072 71.0712091,78.061285 C68.690403,63.3828065 67.5,51.8980354 67.5,43.6069716 C67.5,30.2084754 70.5,25.5934731 78,19.5934731 C85.5,13.5934731 104.46668,10.9750116 115.519312,5.69681607 C126.571943,0.418620577 136.120398,-1.82226704 149.940269,1.70743032 Z" id="路径" fill="#282D4B" fill-rule="nonzero"></path>
                            <g id="编组" transform="translate(60.000000, 49.500000)">
                                <g id="编组-3备份-4" transform="translate(13.500000, 109.500000)"></g>
                                <path d="M37.5108613,97.5081278 C43.1009799,102.111355 50.0365836,105.090804 58.5,105.090804 C66.9634164,105.090804 73.8990201,102.111355 79.4891387,97.5081278 C90.4185676,88.5082038 96.204816,73.3013129 98.2105263,62.0191925 C98.2988278,61.5224963 98.3856826,61.0248357 98.4710907,60.5262106 C98.6827158,59.2907068 98.8854363,58.0494244 99.0792765,56.8022218 C99.9703876,51.0686517 100.673824,45.2099657 101.189585,39.226163 C101.427455,36.4664218 101.625405,33.6800674 101.783436,30.8670998 C101.790977,30.7328653 101.798427,30.5985701 101.805786,30.4642143 C97.2944601,21.3488645 93.8316354,13.5577915 91.6930036,0.185873609 C85.4114863,2.80681192 72.9041456,4.59347312 58.5,4.59347312 C44.0958544,4.59347312 31.5885137,2.80681192 25.3069964,0.185873609 C23.1683646,13.5577915 19.7055399,21.3488645 15.1942135,30.4642143 C15.2015729,30.5985701 15.2090232,30.7328653 15.2165644,30.8670998 C15.3745948,33.6800674 15.5725451,36.4664218 15.8104151,39.226163 C16.3261763,45.2099657 17.0296124,51.0686517 17.9207234,56.8022212 C18.1145637,58.0494244 18.3172842,59.2907068 18.528885,60.5260689 C18.6143174,61.0248357 18.7011722,61.5224963 18.7894737,62.0191925 C20.795184,73.3013129 26.5814324,88.5082038 37.5108613,97.5081278 L37.5108613,97.5081278 Z" id="路径" fill="#FFF2F1" fill-rule="nonzero"></path>
                                <path d="M30.0344051,19.6636389 L51.0694306,21.7326578 C51.8453673,21.8089795 52.4368421,22.4614864 52.4368421,23.2411676 L52.4368421,24.8987363 C52.4368421,25.7358837 51.7582,26.4145257 50.9210526,26.4145257 L24.3297198,26.4145257 C23.911146,26.4145257 23.571825,26.0752047 23.571825,25.656631 C23.571825,25.4556248 23.6516744,25.2628513 23.7938072,25.1207185 L28.8142021,20.1003237 C29.1350686,19.7794571 29.5828106,19.6192198 30.0344051,19.6636389 Z" id="路径" fill="#282D4B" fill-rule="nonzero"></path>
                                <path d="M86.9655949,19.6636389 C87.4171894,19.6192198 87.8649314,19.7794571 88.1857979,20.1003237 L93.2061928,25.1207185 C93.3483256,25.2628513 93.428175,25.4556248 93.428175,25.656631 C93.428175,26.0752047 93.088854,26.4145257 92.6702802,26.4145257 L66.0789474,26.4145257 C65.2418,26.4145257 64.5631579,25.7358837 64.5631579,24.8987363 L64.5631579,23.2411676 C64.5631579,22.4614864 65.1546327,21.8089795 65.9305694,21.7326578 L86.9655949,19.6636389 Z" id="路径" fill="#282D4B" fill-rule="nonzero"></path>
                                <path d="M38.0877329,40.8145257 C35.5762907,40.8145257 33.5403645,38.7785996 33.5403645,36.2671573 C33.5403645,33.7557151 35.5762907,31.7197889 38.0877329,31.7197889 C40.5991752,31.7197889 42.6351013,33.7557151 42.6351013,36.2671573 C42.6351013,38.7785996 40.5991752,40.8145257 38.0877329,40.8145257 Z" id="路径" fill="#282D4B" fill-rule="nonzero"></path>
                                <path d="M79.0140487,40.8145257 C76.5026065,40.8145257 74.4666803,38.7785996 74.4666803,36.2671573 C74.4666803,33.7557151 76.5026065,31.7197889 79.0140487,31.7197889 C81.5254909,31.7197889 83.5614171,33.7557151 83.5614171,36.2671573 C83.5614171,38.7785996 81.5254909,40.8145257 79.0140487,40.8145257 Z" id="路径" fill="#282D4B" fill-rule="nonzero"></path>
                                <path d="M53.624575,37.4039994 L57.4140487,37.4039994 L57.4140487,57.1684365 C57.4140487,58.6334445 58.6016723,59.8210681 60.0666803,59.8210681 C60.2535047,59.8210681 60.4398064,59.8013312 60.6224838,59.7621861 L65.7328357,58.6671106 L66.5268407,62.3724672 L61.4164887,63.4675426 C60.9728437,63.5626094 60.5203967,63.6105418 60.0666803,63.6105418 C56.5088038,63.6105418 53.624575,60.726313 53.624575,57.1684365 L53.624575,37.4039994 Z" id="路径" fill="#282D4B" fill-rule="nonzero"></path>
                                <path d="M47.4675477,76.7176294 L48.4821927,73.0665191 C51.7323553,73.9697406 55.1099377,74.4325306 58.5508908,74.4325306 C62.7885536,74.4325306 66.9279224,73.7305084 70.8465979,72.3717223 L72.0880688,75.952066 C67.771461,77.4488336 63.2125758,78.2220043 58.5508908,78.2220043 C54.7662007,78.2220043 51.0473248,77.7124509 47.4675477,76.7176294 Z" id="路径" fill="#282D4B" fill-rule="nonzero"></path>
                                <path d="M11.5378872,32.8492817 C10.5463163,32.2686098 9.48519286,31.98821 8.34681323,31.98821 C2.83491783,31.98821 -0.150930891,34.2771907 1.07238949,38.5121401 C3.11193573,45.5727396 6.45435342,52.1869837 9.58674839,54.8979527 C10.7870609,55.9367777 12.4659334,56.5794407 14.0957272,56.8627733 C12.9030021,49.0807711 12.0505018,41.0762113 11.5378869,32.8492883 L11.5378872,32.8492817 Z" id="路径" fill="#FFF2F1" fill-rule="nonzero"></path>
                                <path d="M102.904273,56.8627733 C104.534067,56.5794407 106.212939,55.9367777 107.413252,54.8979527 C110.545647,52.1869837 113.888064,45.5727396 115.927611,38.5121401 C117.150931,34.2771907 114.165082,31.98821 108.653187,31.98821 C107.558757,31.98821 106.535732,32.247377 105.577269,32.7833692 C105.513593,33.1494792 105.454438,33.4944156 105.400187,33.8169058 C104.882058,41.7041777 104.050187,49.386191 102.904273,56.8627733 Z" id="路径" fill="#FFF2F1" fill-rule="nonzero"></path>
                                <path d="M13.6787302,157.736913 C27.7460298,162.5068 42.8209399,165.093473 58.5,165.093473 C74.1790601,165.093473 89.2539702,162.5068 103.32127,157.736913 C102.956523,157.649102 102.682044,157.582243 102.531041,157.543889 C100.592733,157.051569 99.1022839,156.608489 97.8027678,156.115569 C83.7950814,150.802309 75.7190745,143.860591 75.6520718,134.029826 C75.6239713,129.906865 75.6260941,121.973845 75.6584007,110.223321 C68.8285029,120.763266 57.2587462,128.73896 49.3000491,128.73896 C45.7399073,128.73896 43.1909453,128.579906 41.3666988,127.900583 C41.3645648,130.463832 41.3583086,132.506788 41.3479282,134.029826 C41.2809255,143.860591 33.2049186,150.802309 19.1972322,156.115569 C17.8977161,156.608489 16.4072668,157.051569 14.4689593,157.543889 C14.3179563,157.582243 14.0434768,157.649102 13.6787302,157.736913 Z" id="路径" fill="#FFF2F1" fill-rule="nonzero"></path>
                            </g>
                        </g>
                        <path d="M222.054966,240.114653 C213.396518,228.8754 203.959982,220.873223 193.669132,215.308712 C186.149489,211.24266 179.300554,208.893392 169.893746,206.621865 C153.658075,212.959197 136.30571,216.252632 118.5,216.252632 C100.691388,216.252632 83.3389486,212.958116 67.1079938,206.617905 C57.6954948,208.89328 50.8501676,211.24213 43.3311419,215.308168 C33.0351639,220.875889 23.5949265,228.882701 14.9564161,240.099239 C8.96897382,248.207234 5.02211774,254.422756 3.13309925,258.688281 C2.26050776,260.658649 1.86229534,262.143509 1.89668536,263.060576 C1.90927721,263.396359 1.93564578,263.529296 2.03861366,263.604863 L118.502135,263.473659 L234.95973,263.604862 C235.069819,263.525797 235.101973,263.38131 235.105168,262.977752 C235.112733,262.02236 234.689125,260.516775 233.799454,258.537106 C231.885265,254.277709 227.964985,248.118894 222.054966,240.114653 Z" id="路径" stroke="#282D4B" stroke-width="3.78947368" fill="#EAEDF2"></path>
                        <path d="M70.692,264.136711 C70.4519988,264.136711 70.3559998,264.016712 70.404,263.776711 L73.824,244.372711 C73.8480001,244.22871 73.7880007,244.156711 73.644,244.156711 L67.668,244.156711 C67.4039987,244.156711 67.2959998,244.036712 67.344,243.796711 L68.028,240.016711 C68.0760002,239.77671 68.2079989,239.656711 68.424,239.656711 L85.884,239.656711 C86.1480013,239.656711 86.2560002,239.77671 86.208,240.016711 L85.524,243.796711 C85.4759998,244.036712 85.3440011,244.156711 85.128,244.156711 L79.116,244.156711 C78.9719993,244.156711 78.8880001,244.22871 78.864,244.372711 L75.444,263.776711 C75.3959998,264.016712 75.2640011,264.136711 75.048,264.136711 L70.692,264.136711 Z M94.596,264.136711 C94.3559988,264.136711 94.2599998,264.016712 94.308,263.776711 L94.488,262.588711 L94.452,262.588711 C93.9479975,263.164714 93.2880041,263.632709 92.472,263.992711 C91.6559959,264.352713 90.6600059,264.532711 89.484,264.532711 C88.8359968,264.532711 88.2240029,264.430712 87.648,264.226711 C87.0719971,264.02271 86.5680022,263.734713 86.136,263.362711 C85.7039978,262.990709 85.3680012,262.528714 85.128,261.976711 C84.8879988,261.424708 84.768,260.800714 84.768,260.104711 C84.768,257.9927 85.469993,256.390716 86.874,255.298711 C88.278007,254.206705 90.2519873,253.660711 92.796,253.660711 L95.82,253.660711 C95.9640007,253.660711 96.0599998,253.588712 96.108,253.444711 L96.252,252.652711 C96.3960007,251.812707 96.270002,251.194713 95.874,250.798711 C95.477998,250.402709 94.584007,250.204711 93.192,250.204711 C92.3279957,250.204711 91.5660033,250.31871 90.906,250.546711 C90.2459967,250.774712 89.6880023,251.044709 89.232,251.356711 C89.0159989,251.500712 88.8720004,251.464712 88.8,251.248711 L87.72,248.548711 C87.6479996,248.33271 87.707999,248.164712 87.9,248.044711 C88.692004,247.516708 89.6639942,247.096713 90.816,246.784711 C91.9680058,246.472709 93.1799936,246.316711 94.452,246.316711 C97.0200128,246.316711 98.8259948,246.790706 99.87,247.738711 C100.914005,248.686716 101.232002,250.3007 100.824,252.580711 L98.808,263.776711 C98.7599998,264.016712 98.6280011,264.136711 98.412,264.136711 L94.596,264.136711 Z M91.608,260.932711 C92.6400052,260.932711 93.4739968,260.722713 94.11,260.302711 C94.7460032,259.882709 95.1239994,259.252715 95.244,258.412711 L95.46,257.080711 C95.4840001,256.93671 95.4240007,256.864711 95.28,256.864711 L92.832,256.864711 C91.631994,256.864711 90.7680026,257.074709 90.24,257.494711 C89.7119974,257.914713 89.448,258.520707 89.448,259.312711 C89.448,259.792713 89.6279982,260.182709 89.988,260.482711 C90.3480018,260.782712 90.8879964,260.932711 91.608,260.932711 Z M108.132,264.352711 C107.171995,264.352711 106.386003,264.244712 105.774,264.028711 C105.161997,263.81271 104.694002,263.476713 104.37,263.020711 C104.045998,262.564709 103.854,262.000714 103.794,261.328711 C103.734,260.656711 103.787999,259.852716 103.956,258.916711 L107.34,240.016711 C107.388,239.77671 107.507999,239.656711 107.7,239.656711 L111.84,239.656711 C112.104001,239.656711 112.212,239.77671 112.164,240.016711 L108.78,258.628711 C108.684,259.180714 108.725999,259.58271 108.906,259.834711 C109.086001,260.086712 109.439997,260.212711 109.968,260.212711 L110.652,260.212711 C110.892001,260.212711 110.988,260.33271 110.94,260.572711 L110.364,263.992711 C110.316,264.232712 110.172001,264.352711 109.932,264.352711 L108.132,264.352711 Z M124.692,264.136711 C124.451999,264.136711 124.296,264.016712 124.224,263.776711 L121.596,256.324711 L119.328,258.880711 L118.464,263.776711 C118.416,264.016712 118.284001,264.136711 118.068,264.136711 L113.928,264.136711 C113.687999,264.136711 113.592,264.016712 113.64,263.776711 L117.816,240.016711 C117.864,239.77671 117.995999,239.656711 118.212,239.656711 L122.316,239.656711 C122.580001,239.656711 122.688,239.77671 122.64,240.016711 L120.372,252.976711 L126.024,247.036711 C126.216001,246.82071 126.455999,246.712711 126.744,246.712711 L131.28,246.712711 C131.400001,246.712711 131.478,246.748711 131.514,246.820711 C131.55,246.892711 131.532,246.97671 131.46,247.072711 L125.196,253.408711 L129.228,263.776711 C129.324,264.016712 129.240001,264.136711 128.976,264.136711 L124.692,264.136711 Z M135.996,243.796711 C135.755999,243.796711 135.66,243.676712 135.708,243.436711 L136.356,240.016711 C136.404,239.77671 136.535999,239.656711 136.752,239.656711 L140.892,239.656711 C141.132001,239.656711 141.228,239.77671 141.18,240.016711 L140.568,243.436711 C140.52,243.676712 140.388001,243.796711 140.172,243.796711 L135.996,243.796711 Z M132.468,264.136711 C132.203999,264.136711 132.096,264.016712 132.144,263.776711 L135.096,247.072711 C135.144,246.83271 135.275999,246.712711 135.492,246.712711 L139.632,246.712711 C139.872001,246.712711 139.968,246.83271 139.92,247.072711 L136.968,263.776711 C136.92,264.016712 136.800001,264.136711 136.608,264.136711 L132.468,264.136711 Z M145.176,243.796711 C144.935999,243.796711 144.84,243.676712 144.888,243.436711 L145.536,240.016711 C145.584,239.77671 145.715999,239.656711 145.932,239.656711 L150.072,239.656711 C150.312001,239.656711 150.408,239.77671 150.36,240.016711 L149.748,243.436711 C149.7,243.676712 149.568001,243.796711 149.352,243.796711 L145.176,243.796711 Z M141.648,264.136711 C141.383999,264.136711 141.276,264.016712 141.324,263.776711 L144.276,247.072711 C144.324,246.83271 144.455999,246.712711 144.672,246.712711 L148.812,246.712711 C149.052001,246.712711 149.148,246.83271 149.1,247.072711 L146.148,263.776711 C146.1,264.016712 145.980001,264.136711 145.788,264.136711 L141.648,264.136711 Z M160.908,264.136711 C160.667999,264.136711 160.572,264.016712 160.62,263.776711 L162.384,253.768711 C162.552001,252.736706 162.474002,251.920714 162.15,251.320711 C161.825998,250.720708 161.232004,250.420711 160.368,250.420711 C159.527996,250.420711 158.820003,250.714708 158.244,251.302711 C157.667997,251.890714 157.284001,252.688706 157.092,253.696711 L155.328,263.776711 C155.28,264.016712 155.160001,264.136711 154.968,264.136711 L150.828,264.136711 C150.563999,264.136711 150.456,264.016712 150.504,263.776711 L153.456,247.072711 C153.504,246.83271 153.635999,246.712711 153.852,246.712711 L157.992,246.712711 C158.232001,246.712711 158.328,246.83271 158.28,247.072711 L158.028,248.368711 L158.064,248.368711 C158.568003,247.792708 159.215996,247.306713 160.008,246.910711 C160.800004,246.514709 161.735995,246.316711 162.816,246.316711 C163.752005,246.316711 164.549997,246.478709 165.21,246.802711 C165.870003,247.126713 166.385998,247.576708 166.758,248.152711 C167.130002,248.728714 167.369999,249.412707 167.478,250.204711 C167.586001,250.996715 167.556001,251.860706 167.388,252.796711 L165.408,263.776711 C165.36,264.016712 165.228001,264.136711 165.012,264.136711 L160.908,264.136711 Z" id="Talkiin" fill="#282D4B" fill-rule="nonzero"></path>
                    </g>
                    <g id="编组-3" transform="translate(163.000000, 18.000000)">
                        <polygon id="矩形" fill="#FFF2F1" points="64.5 67.9403594 131.874642 40.4730665 175.812208 81.7173861 168 158.204048 64.5 158.204048"></polygon>
                        <path d="M92.606803,257.120877 L98.2573513,257.11459 C98.3148504,256.939501 98.3578325,256.752631 98.3862977,256.55398 L98.6022977,255.22603 C98.6262979,255.082467 98.5662985,255.010687 98.4222977,255.010687 L95.9742977,255.010687 C94.7742917,255.010687 93.9103004,255.220046 93.3822977,255.638771 C92.9305182,255.997049 92.6720216,256.49108 92.606803,257.120877 L92.606803,257.120877 Z M122.456862,257.096459 L125.667802,257.100032 L124.738298,254.472329 L122.470298,257.020557 L122.456862,257.096459 L122.456862,257.096459 Z M159.306577,257.137465 L164.603551,257.143359 L165.526298,251.9241 C165.694299,250.895232 165.616299,250.081721 165.292298,249.483543 C164.968296,248.885364 164.374302,248.586279 163.510298,248.586279 C162.670294,248.586279 161.962301,248.879382 161.386298,249.465597 C160.810295,250.051812 160.426299,250.847378 160.234298,251.852319 L159.306577,257.137465 L159.306577,257.137465 Z M18.5012261,196.437309 C18.5012261,178.374914 31.0183738,163.231002 44.3477212,133.652783 C57.6770687,104.074564 63,83.5555177 63,61.8008088 C63,-13.0574151 131.796431,-3.65532427 149.288618,7.61543553 C166.780805,18.8861953 173.908495,31.71986 176.837823,76.6375157 C179.76715,121.555171 201.151007,135.454892 207.669836,152.367964 C214.188665,169.281036 209.992958,184.958316 193.450681,199.512189 C191.184185,201.50625 188.390407,203.527185 186.318906,205.420957 C197.793276,210.075223 211.005234,218.291378 223.567773,234.554334 C235.694089,250.92546 239.609879,259.740683 235.315142,261 L118.5,260.870011 L1.6848583,261 C-2.60987854,259.740683 1.30591093,250.92546 13.4322267,234.554334 C17.1863353,229.694417 20.9984378,225.553091 24.804834,222.010671 C20.6024288,213.093186 18.5012261,204.568732 18.5012261,196.437309 Z M103.374618,74.0837475 L107.054646,74.53185 C107.665111,74.6061839 108.129576,75.1139254 108.147737,75.7267895 C108.16467,76.2982194 107.713748,76.7751399 107.140576,76.7920214 C107.130359,76.7923223 107.120138,76.7924728 107.109916,76.7924728 L97.9838846,76.7924728 C89.8723233,80.5166806 81.6616301,82.756025 75.3609551,83.0657486 C76.0018036,92.9570773 77.1446431,102.514763 78.7894737,111.738805 C81.8210526,128.73959 96.4894737,154.679464 118.5,154.679464 C140.510526,154.679464 155.178947,128.73959 158.210526,111.738805 C160.047316,101.438277 161.258108,90.7216864 161.842903,79.5890332 C156.46416,69.7160177 139.443762,67.2900014 132.287342,44.5498472 C130.427593,48.8415568 127.021112,53.8340516 120.824575,60.7284368 C116.12749,65.9545034 109.936672,70.489101 103.374618,74.0837475 L103.374618,74.0837475 Z M73.5783392,103.06581 C72.6115197,96.1241955 71.912376,89.00801 71.4806705,81.7173861 C66.6229745,81.8882179 64.07977,83.9663212 65.17589,87.6380879 C67.139172,94.2146618 70.3563146,100.374918 73.3633178,102.893122 C73.4335605,102.951946 73.5052527,103.009512 73.5783392,103.06581 Z M165.516918,81.7580553 C165.065157,89.3691658 164.321876,96.7901336 163.286804,104.020805 C163.970188,103.722327 164.596885,103.345174 165.136682,102.893122 C168.143685,100.374918 171.360828,94.2146618 173.32411,87.6380879 C174.46914,83.8024846 171.642821,81.7059383 166.355362,81.7059383 C166.069322,81.7059383 165.790014,81.7232579 165.516918,81.7580553 L165.516918,81.7580553 Z M147.090926,72.4441013 C147.358547,72.411514 147.630045,72.4506797 147.877424,72.5575602 L154.325824,75.3435949 C154.602982,75.4633413 154.782354,75.7357352 154.782354,76.0368823 C154.782354,76.4541834 154.443033,76.7924728 154.024459,76.7924728 L129.890084,76.7924728 C129.879862,76.7924728 129.869641,76.7923223 129.859424,76.7920214 C129.286252,76.7751399 128.83533,76.2982194 128.852263,75.7267895 C128.870424,75.1139254 129.334889,74.6061839 129.945354,74.53185 L147.090926,72.4441013 Z M98.0131579,90.3322628 C95.5278765,90.3322628 93.5131579,88.3236696 93.5131579,85.8459444 C93.5131579,83.3682191 95.5278765,81.359626 98.0131579,81.359626 C100.498439,81.359626 102.513158,83.3682191 102.513158,85.8459444 C102.513158,88.3236696 100.498439,90.3322628 98.0131579,90.3322628 Z M138.939474,90.3794872 C136.428031,90.3794872 134.392105,88.3497509 134.392105,85.8459444 C134.392105,83.3421378 136.428031,81.3124015 138.939474,81.3124015 C141.450916,81.3124015 143.486842,83.3421378 143.486842,85.8459444 C143.486842,88.3497509 141.450916,90.3794872 138.939474,90.3794872 Z M113.624575,91.7804778 L117.414049,91.7804778 L117.414049,109.989385 C117.414049,111.449938 118.601672,112.633951 120.06668,112.633951 C120.253505,112.633951 120.439806,112.614274 120.622484,112.575248 L125.732836,111.483502 L126.526841,115.177593 L121.416489,116.269339 C120.972844,116.364117 120.520397,116.411904 120.06668,116.411904 C116.508804,116.411904 113.624575,113.536444 113.624575,109.989385 L113.624575,91.7804778 Z M131.362234,128.338547 L129.999814,129.350107 C125.774958,132.48695 122.636223,133.69288 118.237966,133.69288 C115.06744,133.69288 112.075482,132.200729 109.28277,129.264948 L109.163497,129.139565 C109.000638,129.064314 108.845154,128.987435 108.697034,128.90892 C107.00134,128.010066 106.774024,127.873094 106.629189,127.45929 C106.448879,126.944129 106.775065,126.545182 107.184824,126.431835 C107.313729,126.396177 107.435072,126.388377 107.592693,126.391781 C107.688559,126.393851 107.797084,126.400605 107.947609,126.412777 C108.020371,126.418661 108.142091,126.429197 108.355805,126.447525 C108.960114,126.497945 109.395674,126.513446 109.827343,126.485155 C110.021899,126.472405 110.202842,126.450498 110.369642,126.418864 C110.843269,126.329038 111.292106,126.203869 111.904648,126.000983 C112.068182,125.946817 112.687241,125.736612 112.635414,125.754101 C114.482156,125.130917 115.765042,124.86964 117.712825,124.86964 C119.747052,124.86964 121.506697,125.080737 124.455215,125.586368 C128.897695,126.348194 130.200246,126.473949 131.919614,126.094534 C132.27034,126.017138 132.529475,125.971167 132.715361,125.956145 C132.880488,125.9428 133.008563,125.946897 133.157575,125.995451 C133.664322,126.16057 133.860113,126.749575 133.555384,127.183796 C133.363205,127.45764 132.984875,127.649514 131.978519,128.080349 C131.792958,128.15979 131.587535,128.245853 131.362234,128.338547 Z" id="形状" fill="#282D4B"></path>
                        <path d="M163.32127,202.679191 C162.956523,202.591647 162.682044,202.524991 162.531041,202.486754 C160.592733,201.995931 159.102284,201.554198 157.802768,201.062777 C143.795081,195.765671 135.719074,188.845058 135.652072,179.044183 C135.627813,175.495657 135.626078,169.117084 135.646839,159.903248 C128.335496,170.183997 116.894813,178.255721 109.300049,178.255721 C105.733381,178.255721 103.181603,178.096568 101.356673,177.416162 C101.354186,178.012574 101.351271,178.555243 101.347928,179.044183 C101.280926,188.845058 93.2049186,195.765671 79.1972322,201.062777 C77.8977161,201.554198 76.4072668,201.995931 74.4689593,202.486754 C74.3179563,202.524991 74.0434768,202.591647 73.6787302,202.679191 C87.7460298,207.434576 102.82094,210.013385 118.5,210.013385 C134.17906,210.013385 149.25397,207.434576 163.32127,202.679191 L163.32127,202.679191 Z" id="路径" fill="#FFF2F1"></path>
                        <path d="M74.3879097,257.141149 L76.9662977,242.556667 C76.9902979,242.413104 76.9302985,242.341324 76.7862977,242.341324 L70.8102977,242.341324 C70.5462964,242.341324 70.4382975,242.22169 70.4862977,241.982418 L71.1702977,238.213911 C71.218298,237.974639 71.3502967,237.855005 71.5662977,237.855005 L89.0262977,237.855005 C89.2902991,237.855005 89.398298,237.974639 89.3502977,238.213911 L88.6662977,241.982418 C88.6182975,242.22169 88.4862988,242.341324 88.2702977,242.341324 L82.2582977,242.341324 C82.114297,242.341324 82.0302979,242.413104 82.0062977,242.556667 L79.4289014,257.13554 L87.982161,257.126023 C88.1936043,255.562542 88.8716461,254.337026 90.0162977,253.449448 C91.4203048,252.360763 93.394285,251.816428 95.9382977,251.816428 L98.9622977,251.816428 C99.1062985,251.816428 99.2022975,251.744648 99.2502977,251.601085 L99.3942977,250.811493 C99.5382985,249.974042 99.4122997,249.357928 99.0162977,248.96313 C98.6202958,248.568332 97.7263047,248.370936 96.3342977,248.370936 C95.4702934,248.370936 94.708301,248.484588 94.0482977,248.711896 C93.3882944,248.939204 92.8303,249.20838 92.3742977,249.519433 C92.1582967,249.662996 92.0142981,249.627106 91.9422977,249.411761 L90.8622977,246.71997 C90.7902974,246.504626 90.8502968,246.337138 91.0422977,246.217503 C91.8343017,245.691105 92.806292,245.272387 93.9582977,244.961334 C95.1103035,244.650281 96.3222914,244.494756 97.5942977,244.494756 C100.162311,244.494756 101.968293,244.967311 103.012298,245.912433 C104.056303,246.857556 104.3743,248.466632 103.966298,250.739712 L102.815825,257.109517 L107.089681,257.104762 C107.092519,257.088697 107.095391,257.072592 107.098298,257.056448 L110.482298,238.213911 C110.530298,237.974639 110.650297,237.855005 110.842298,237.855005 L114.982298,237.855005 C115.246299,237.855005 115.354298,237.974639 115.306298,238.213911 L111.922298,256.769324 C111.901928,256.886093 111.887772,256.996129 111.879828,257.099432 L117.63003,257.093034 L120.958298,238.213911 C121.006298,237.974639 121.138297,237.855005 121.354298,237.855005 L125.458298,237.855005 C125.722299,237.855005 125.830298,237.974639 125.782298,238.213911 L123.514298,251.134508 L129.166298,245.212567 C129.358299,244.997223 129.598296,244.889552 129.886298,244.889552 L134.422298,244.889552 C134.542298,244.889552 134.620298,244.925443 134.656298,244.997224 C134.692298,245.069006 134.674298,245.152749 134.602298,245.248458 L128.338298,251.565194 L130.499396,257.105409 L136.135386,257.11168 L138.238298,245.248458 C138.286298,245.009186 138.418297,244.889552 138.634298,244.889552 L142.774298,244.889552 C143.014299,244.889552 143.110298,245.009186 143.062298,245.248458 L140.958435,257.117047 L145.313576,257.121894 L147.418298,245.248458 C147.466298,245.009186 147.598297,244.889552 147.814298,244.889552 L151.954298,244.889552 C152.194299,244.889552 152.290298,245.009186 152.242298,245.248458 L150.136625,257.127261 L154.491765,257.132107 L156.598298,245.248458 C156.646298,245.009186 156.778297,244.889552 156.994298,244.889552 L161.134298,244.889552 C161.374299,244.889552 161.470298,245.009186 161.422298,245.248458 L161.170298,246.540518 L161.206298,246.540518 C161.7103,245.966266 162.358294,245.481748 163.150298,245.08695 C163.942302,244.692152 164.878292,244.494756 165.958298,244.494756 C166.894302,244.494756 167.692294,244.656262 168.352298,244.979279 C169.012301,245.302295 169.528296,245.750923 169.900298,246.325174 C170.2723,246.899426 170.512297,247.58134 170.620298,248.370936 C170.728298,249.160532 170.698299,250.021896 170.530298,250.955055 L169.410003,257.148708 L232.982356,257.21945 C232.807349,256.616937 232.528502,255.860978 232.134449,254.973887 C230.314307,250.876384 226.431121,244.779724 220.565429,236.859454 C212.06798,225.859001 202.834016,218.050326 192.772511,212.625011 C189.625907,210.928315 186.597274,209.537431 183.435283,208.326256 L183.422279,208.340726 C181.071914,207.438014 178.716988,206.650296 176.230246,205.920968 C174.713156,205.478937 173.136294,205.053551 171.478996,204.634441 C171.057097,204.529849 170.560308,204.408681 170.020169,204.27809 C153.727804,210.53906 136.336978,213.791337 118.5,213.791337 C100.663022,213.791337 83.2721955,210.53906 66.9798309,204.27809 C66.4396922,204.408681 65.9429028,204.529849 65.5210045,204.634441 C63.8637057,205.053551 62.2868442,205.478937 60.7697539,205.920968 C58.1478964,206.689924 55.6725687,207.523787 53.1946252,208.488898 C50.7450775,209.442949 48.3487735,210.507057 45.9995343,211.695483 C45.411932,211.994982 44.8218147,212.304542 44.2274887,212.625011 C40.6556321,214.55101 37.1880677,216.777375 33.8227825,219.337553 C31.3630586,221.213203 28.9483357,223.275976 26.5699873,225.545784 L26.5660144,225.538246 C23.0871065,228.85819 19.7261529,232.597529 16.4806054,236.7986 C10.5688788,244.779724 6.68569296,250.876384 4.86555072,254.973887 C4.4714981,255.860978 4.19265063,256.616937 4.01764411,257.21945 L74.3879097,257.141149 L74.3879097,257.141149 Z" id="路径" fill="#EAEDF2"></path>
                        <path d="M139.138298,241.982418 C138.898297,241.982418 138.802298,241.862784 138.850298,241.623513 L139.498298,238.213911 C139.546298,237.974639 139.678297,237.855005 139.894298,237.855005 L144.034298,237.855005 C144.274299,237.855005 144.370298,237.974639 144.322298,238.213911 L143.710298,241.623513 C143.662298,241.862784 143.530299,241.982418 143.314298,241.982418 L139.138298,241.982418 Z" id="路径" fill="#282D4B"></path>
                        <path d="M148.318298,241.982418 C148.078297,241.982418 147.982298,241.862784 148.030298,241.623513 L148.678298,238.213911 C148.726298,237.974639 148.858297,237.855005 149.074298,237.855005 L153.214298,237.855005 C153.454299,237.855005 153.550298,237.974639 153.502298,238.213911 L152.890298,241.623513 C152.842298,241.862784 152.710299,241.982418 152.494298,241.982418 L148.318298,241.982418 Z" id="路径" fill="#282D4B"></path>
                    </g>
                </g>
            </g>
        </g>
    </g>
</svg>