<?xml version="1.0" encoding="UTF-8"?>
<svg width="64px" height="64px" viewBox="0 0 64 64" version="1.1" xmlns="http://www.w3.org/2000/svg" xmlns:xlink="http://www.w3.org/1999/xlink">
    <!-- Generator: Sketch 60.1 (88133) - https://sketch.com -->
    <title>编组 2</title>
    <desc>Created with Sketch.</desc>
    <defs>
        <circle id="path-1" cx="22" cy="22" r="22"></circle>
    </defs>
    <g id="页面-1" stroke="none" stroke-width="1" fill="none" fill-rule="evenodd">
        <g id="F3" transform="translate(-344.000000, -1060.000000)">
            <g id="编组-2" transform="translate(344.000000, 1060.000000)">
                <g id="编组">
                    <rect id="矩形" fill="#FFFFFF" opacity="0" x="0" y="0" width="64" height="64"></rect>
                    <g id="编组-9" transform="translate(2.000000, 0.000000)">
                        <path d="M0,34 L0,31 L0.148125728,31 C1.65329902,15.8400319 14.4439557,4 30,4 C45.5560443,4 58.346701,15.8400319 59.8518743,31 L60,31 L60,34 C60,50.5685425 46.5685425,64 30,64 C13.4314575,64 0,50.5685425 0,34 Z" id="路径" fill="#FFAB00"></path>
                        <circle id="椭圆形" fill="#FFD500" cx="30" cy="30" r="30"></circle>
                        <g id="编组-4" transform="translate(8.000000, 8.000000)">
                            <mask id="mask-2" fill="white">
                                <use xlink:href="#path-1"></use>
                            </mask>
                            <use id="椭圆形备份" fill="#FFE74F" xlink:href="#path-1"></use>
                            <path d="M22.1932367,36 C20.9693981,36 19.7777836,35.8534046 18.6183575,35.5602094 C17.3623126,35.234437 16.259264,34.8842369 15.3091787,34.5095986 C14.3590935,34.1349603 13.2560449,33.5892997 12,32.8726003 L14.8985507,27.5951134 C15.9291517,28.1815038 16.7987082,28.62129 17.5072464,28.9144852 C18.2157845,29.2076803 19.0692382,29.4682944 20.0676329,29.6963351 C20.7439647,29.8917985 21.4524923,29.9895288 22.1932367,29.9895288 C23.0306,29.9895288 23.7552304,29.8917985 24.3671498,29.6963351 C25.0112754,29.4682944 25.4541051,29.1669594 25.6956522,28.7923211 C25.9371993,28.4176828 26.057971,28.034906 26.057971,27.6439791 C26.057971,27.1878977 25.9130449,26.7562557 25.6231884,26.3490401 C25.3333319,25.9418246 24.9146565,25.656778 24.3671498,25.4938918 L18.4251208,23.6369983 C16.6537754,23.0831851 15.2528232,22.0895941 14.2222222,20.6561955 C13.2560338,19.2879513 12.7729469,17.7568438 12.7729469,16.0628272 C12.8051531,14.2710789 13.3526517,12.6829621 14.4154589,11.2984293 C15.4782662,9.91389651 16.8953213,8.96102646 18.6666667,8.43979058 C19.6650614,8.14659539 20.8566758,8 22.2415459,8 C23.4975908,8 24.6247937,8.11401864 25.6231884,8.34205934 C27.3623275,8.73298625 29.1175435,9.30307944 30.8888889,10.052356 L28.5217391,15.574171 C27.0724565,14.9552034 25.6715043,14.4991289 24.3188406,14.2059337 C23.8357464,14.0756247 23.1755275,14.0104712 22.3381643,14.0104712 C21.4685947,14.0104712 20.7922729,14.0919131 20.3091787,14.2547993 C19.6972594,14.4176855 19.2785841,14.6782995 19.0531401,15.0366492 C18.8276961,15.3949989 18.7149758,15.7370548 18.7149758,16.0628272 C18.7149758,16.3885997 18.8115932,16.7306556 19.0048309,17.0890052 C19.1980686,17.4473549 19.5845382,17.7079689 20.1642512,17.8708551 L26.057971,19.6788831 C27.8293164,20.2326962 29.2624744,21.2344314 30.3574879,22.6841187 C31.4525014,24.133806 32,25.7707879 32,27.5951134 C32,29.419439 31.4686043,31.0401325 30.4057971,32.4572426 C29.3429899,33.8743526 27.9098319,34.8597994 26.1062802,35.4136126 C24.9468541,35.8045395 23.6425193,36 22.1932367,36 Z" id="s" fill="#FFFFFF" fill-rule="nonzero" mask="url(#mask-2)"></path>
                        </g>
                    </g>
                </g>
            </g>
        </g>
    </g>
</svg>