<?xml version="1.0" encoding="UTF-8"?>
<svg width="360px" height="360px" viewBox="0 0 360 360" version="1.1" xmlns="http://www.w3.org/2000/svg" xmlns:xlink="http://www.w3.org/1999/xlink">
    <!-- Generator: Sketch 56.2 (81672) - https://sketch.com -->
    <title>编组</title>
    <desc>Created with Sketch.</desc>
    <g id="页面-1" stroke="none" stroke-width="1" fill="none" fill-rule="evenodd">
        <g id="A1" transform="translate(-32.000000, -208.000000)">
            <g id="编组" transform="translate(32.000000, 208.000000)">
                <rect id="矩形" fill="#FFFFFF" opacity="0" x="0" y="0" width="360" height="360"></rect>
                <path d="M63.7,302.28 L62.62,307.74 L51.58,307.74 L44.08,345 L37.9,345 L45.4,307.74 L34.12,307.74 L35.26,302.28 L63.7,302.28 Z M87.28,322.44 C87.28,323.22 87.16,324.06 86.98,324.96 L82.96,345 L77.32,345 L77.92,342.18 C75.94,344.16 73.54,345.36 69.94,345.36 C64.9,345.36 61,342.66 61,337.62 C61,334.8 61.9,332.34 63.76,330.48 C66.1,328.14 69.1,327.3 72.64,327.3 L80.68,327.3 L81.22,324.84 C81.34,324.3 81.4,323.7 81.4,323.04 C81.4,320.58 79.6,319.14 76.18,319.14 C72.82,319.14 70.66,320.28 68.8,322.38 L65.62,318.48 C68.2,315.78 71.32,314.22 76.78,314.22 C81.4,314.22 87.28,315.96 87.28,322.44 Z M79.9,331.38 L73.18,331.38 C69.28,331.38 66.76,333.54 66.76,337.14 C66.76,339.3 68.2,340.56 71.62,340.56 C73.96,340.56 75.88,339.84 77.26,338.46 C78.4,337.32 78.94,335.94 79.36,334.08 L79.9,331.38 Z M106,302.28 L99.22,336.3 C99.04,337.02 98.98,337.26 98.98,337.92 C98.98,339.3 99.7,340.08 101.8,340.08 L104.56,340.08 L103.54,345 L99.94,345 C96.4,345 93.16,343.14 93.16,338.82 C93.16,337.92 93.22,337.08 93.4,336.3 L100.18,302.28 L106,302.28 Z M139.9,314.58 L127.42,326.82 L135.52,345 L128.86,345 L122.98,330.48 L117.4,335.76 L115.54,345 L109.72,345 L118.24,302.28 L124.06,302.28 L118.9,328.5 L132.82,314.58 L139.9,314.58 Z M153.04,314.58 L146.92,345 L141.1,345 L147.22,314.58 L153.04,314.58 Z M155.56,302.52 L154.48,307.8 L148.3,307.8 L149.32,302.52 L155.56,302.52 Z M168.1,314.58 L161.98,345 L156.16,345 L162.28,314.58 L168.1,314.58 Z M170.62,302.52 L169.54,307.8 L163.36,307.8 L164.38,302.52 L170.62,302.52 Z M198.82,322.74 C198.82,323.7 198.7,324.96 198.52,325.92 L194.68,345 L188.86,345 L192.58,326.34 C192.76,325.44 192.88,324.66 192.88,323.94 C192.88,320.82 190.78,319.38 188.32,319.38 C186.28,319.38 181.9,320.4 180.76,326.46 L177.04,345 L171.22,345 L177.28,314.58 L182.92,314.58 L182.32,317.7 C184.3,315.54 187.18,314.22 190.78,314.22 C194.86,314.22 198.82,316.92 198.82,322.74 Z M82.6,223.28 L63.76,266 L58.42,266 L56.14,235.76 L41.68,266 L36.34,266 L34.12,223.28 L40.48,223.28 L41.5,254.18 L55.9,223.28 L60.82,223.28 L62.98,254.18 L76,223.28 L82.6,223.28 Z M106.06,245.84 C106.06,247.7 105.7,250.1 105.16,252.44 L86.32,252.44 C86.14,253.4 86.02,254.36 86.02,255.38 C86.02,258.92 87.76,261.44 91.84,261.44 C95.14,261.44 97.36,260.24 99.7,258.08 L102.94,261.92 C99.82,264.86 95.92,266.36 91.3,266.36 C85.66,266.36 80.44,263.24 80.44,255.74 C80.44,246.14 85.12,235.22 95.68,235.22 C102.16,235.22 106.06,239.6 106.06,245.84 Z M100.48,245.84 C100.48,241.94 98.26,240.02 95.38,240.02 C91.6,240.02 88.66,242.6 87.04,248.42 L100.24,248.42 C100.42,247.52 100.48,246.8 100.48,245.84 Z M124.48,223.28 L117.7,257.3 C117.52,258.02 117.46,258.26 117.46,258.92 C117.46,260.3 118.18,261.08 120.28,261.08 L123.04,261.08 L122.02,266 L118.42,266 C114.88,266 111.64,264.14 111.64,259.82 C111.64,258.92 111.7,258.08 111.88,257.3 L118.66,223.28 L124.48,223.28 Z M154,239.6 L149.62,243.38 C148.24,241.4 146.74,240.38 144.52,240.38 C142.6,240.38 140.68,241.16 139.06,242.84 C137.14,244.82 136,247.82 135.46,250.76 C135.16,252.14 135.04,253.58 135.04,255.02 C135.04,259.16 137.32,261.2 140.44,261.2 C142.9,261.2 144.82,260.24 146.8,258.14 L150.1,262.34 C147.28,264.98 143.8,266.36 139.96,266.36 C133.48,266.36 129.22,262.1 129.22,255.44 C129.22,254.06 129.34,252.38 129.64,250.76 C131.74,239.48 138.04,235.22 145.12,235.22 C149.44,235.22 152.14,237.02 154,239.6 Z M182.14,245.24 C182.14,247.1 181.84,249.38 181.6,250.76 C180.28,257.36 178.6,260.54 176.02,262.94 C173.56,265.22 170.5,266.36 166.96,266.36 C161.98,266.36 156.94,263.48 156.94,256.34 C156.94,254.48 157.24,252.14 157.48,250.76 C158.74,244.22 160.48,241.04 163.06,238.64 C165.52,236.36 168.52,235.22 172.12,235.22 C177.1,235.22 182.14,238.1 182.14,245.24 Z M176.38,245.78 C176.38,241.94 174.28,240.38 171.58,240.38 C169.72,240.38 168.16,241.04 166.9,242.3 C165.28,243.92 164.2,246.44 163.3,250.76 C162.82,253.22 162.7,254.84 162.7,255.74 C162.7,259.58 164.86,261.2 167.5,261.2 C169.36,261.2 170.98,260.48 172.18,259.28 C173.8,257.66 174.88,255.32 175.78,250.76 C176.26,248.3 176.38,246.74 176.38,245.78 Z M231.58,243.74 C231.58,244.76 231.4,246.02 231.22,246.92 L227.38,266 L221.56,266 L225.34,247.34 C225.52,246.32 225.64,245.54 225.64,244.94 C225.64,241.82 223.6,240.38 221.02,240.38 C218.98,240.38 214.66,241.4 213.52,247.46 L209.8,266 L203.98,266 L207.7,247.34 C207.88,246.32 208,245.54 208,244.94 C208,241.82 205.9,240.38 203.44,240.38 C201.4,240.38 197.02,241.4 195.88,247.46 L192.16,266 L186.34,266 L192.4,235.58 L198.04,235.58 L197.44,238.7 C199.42,236.54 202.3,235.22 205.9,235.22 C208.72,235.22 211.36,236.54 212.98,239.66 C215.32,237.02 218.02,235.22 223.06,235.22 C227.5,235.22 231.58,238.16 231.58,243.74 Z M262.96,245.84 C262.96,247.7 262.6,250.1 262.06,252.44 L243.22,252.44 C243.04,253.4 242.92,254.36 242.92,255.38 C242.92,258.92 244.66,261.44 248.74,261.44 C252.04,261.44 254.26,260.24 256.6,258.08 L259.84,261.92 C256.72,264.86 252.82,266.36 248.2,266.36 C242.56,266.36 237.34,263.24 237.34,255.74 C237.34,246.14 242.02,235.22 252.58,235.22 C259.06,235.22 262.96,239.6 262.96,245.84 Z M257.38,245.84 C257.38,241.94 255.16,240.02 252.28,240.02 C248.5,240.02 245.56,242.6 243.94,248.42 L257.14,248.42 C257.32,247.52 257.38,246.8 257.38,245.84 Z M299.02,235.58 L298.18,240.02 L292.66,240.02 L289.24,257.36 C289.06,258.02 289,258.38 289,258.86 C289,260.24 289.78,261.08 291.88,261.08 L294.4,261.08 L293.44,266 L289.96,266 C286.42,266 283.18,264.14 283.18,259.82 C283.18,258.86 283.24,257.96 283.42,257.3 L286.84,240.02 L283.42,240.02 L284.32,235.58 L287.74,235.58 L289.48,226.88 L295.3,226.88 L293.56,235.58 L299.02,235.58 Z M326.8,245.24 C326.8,247.1 326.5,249.38 326.26,250.76 C324.94,257.36 323.26,260.54 320.68,262.94 C318.22,265.22 315.16,266.36 311.62,266.36 C306.64,266.36 301.6,263.48 301.6,256.34 C301.6,254.48 301.9,252.14 302.14,250.76 C303.4,244.22 305.14,241.04 307.72,238.64 C310.18,236.36 313.18,235.22 316.78,235.22 C321.76,235.22 326.8,238.1 326.8,245.24 Z M321.04,245.78 C321.04,241.94 318.94,240.38 316.24,240.38 C314.38,240.38 312.82,241.04 311.56,242.3 C309.94,243.92 308.86,246.44 307.96,250.76 C307.48,253.22 307.36,254.84 307.36,255.74 C307.36,259.58 309.52,261.2 312.16,261.2 C314.02,261.2 315.64,260.48 316.84,259.28 C318.46,257.66 319.54,255.32 320.44,250.76 C320.92,248.3 321.04,246.74 321.04,245.78 Z" id="形状" fill="#FFFFFF" fill-rule="nonzero"></path>
                <path d="M151,143.513888 L151,119.904278 L122,126.520411 L122,150.96527 L151,143.513888 L151,143.513888 Z M151,148.622853 L101.344538,159.951375 L100,156.618042 L110,154.0486 L110,115 L122,115 L122,122.534712 L151,115.08333 L151,112 L163,112 L163,152 L151,152 L151,148.622853 L151,148.622853 Z M85,76.7242798 L130,64.8106996 L130,51 L142,51 L142,61.6337449 L176.5,52.5 L176.5,59.5 L85,81.2031332 L85,132 L73,132 L73,84.0494457 L56.3445378,88 L55,84.6666667 L73,79.9012346 L73,58.4319452 L58.9228868,62.4938926 L56.8734763,58.3258985 L93.0920563,37.4718825 L103.531425,49.6221102 L85,54.9693482 L85,76.7242798 Z M48,75.5265994 L48,125 L35,125 L35,79.2777462 L16.9228868,84.4938926 L14.8734763,80.3258985 L51.0920563,59.4718825 L61.5314247,71.6221102 L48,75.5265994 Z M164,74.3402928 L164,79.6796708 L106.344538,92.8333333 L105,89.5 L164,74.3402928 Z M164,92 L164,97.3393781 L106.344538,110.493041 L105,107.159707 L164,92 Z M164.918584,42.7583302 L162.575827,40.8161045 L177.78461,22.4737206 L187.310889,27.9737206 L164.918584,42.7583302 Z M155.066547,37.8225589 L150.73895,39.190517 L148.151515,25.7997459 L156.585596,22.9361702 L155.066547,37.8225589 Z" id="形状" fill="#282D4B"></path>
            </g>
        </g>
    </g>
</svg>