<?xml version="1.0" encoding="UTF-8"?>
<svg width="65px" height="64px" viewBox="0 0 65 64" version="1.1" xmlns="http://www.w3.org/2000/svg" xmlns:xlink="http://www.w3.org/1999/xlink">
    <!-- Generator: Sketch 56.2 (81672) - https://sketch.com -->
    <title>编组 6</title>
    <desc>Created with Sketch.</desc>
    <g id="页面-1" stroke="none" stroke-width="1" fill="none" fill-rule="evenodd">
        <g id="F1" transform="translate(-605.000000, -348.000000)">
            <g id="编组-6" transform="translate(606.000000, 348.000000)">
                <rect id="矩形" fill="#FFFFFF" opacity="0" x="0" y="0" width="64" height="64"></rect>
                <path d="M43.8684304,46.0994522 C40.5486149,48.5508831 36.4435371,50 32,50 C20.954305,50 12,41.045695 12,30 C12,18.954305 20.954305,10 32,10 C43.045695,10 52,18.954305 52,30 C52,34.4435371 50.5508831,38.5486149 48.0994522,41.8684304 C48.1555308,41.9168086 48.2102442,41.9676035 48.263456,42.0208153 L57.4558441,51.2132034 C58.627417,52.3847763 58.627417,54.2842712 57.4558441,55.4558441 C56.2842712,56.627417 54.3847763,56.627417 53.2132034,55.4558441 L44.0208153,46.263456 C43.9676035,46.2102442 43.9168086,46.1555308 43.8684304,46.0994522 L43.8684304,46.0994522 Z M32,45 C40.2842712,45 47,38.2842712 47,30 C47,21.7157288 40.2842712,15 32,15 C23.7157288,15 17,21.7157288 17,30 C17,38.2842712 23.7157288,45 32,45 Z" id="形状" fill="#90A4AE" fill-rule="nonzero"></path>
            </g>
        </g>
    </g>
</svg>