<?xml version="1.0" encoding="UTF-8"?>
<svg width="65px" height="64px" viewBox="0 0 65 64" version="1.1" xmlns="http://www.w3.org/2000/svg" xmlns:xlink="http://www.w3.org/1999/xlink">
    <!-- Generator: Sketch 60.1 (88133) - https://sketch.com -->
    <title>编组 3</title>
    <desc>Created with Sketch.</desc>
    <g id="页面-1" stroke="none" stroke-width="1" fill="none" fill-rule="evenodd">
        <g id="G1" transform="translate(-645.000000, -228.000000)">
            <g id="编组-3" transform="translate(646.000000, 228.000000)">
                <rect id="矩形" fill="#FFFFFF" opacity="0" x="0" y="0" width="64" height="64"></rect>
                <path d="M34,10.0606898 L50,19.2982941 C51.2376043,20.0128253 52,21.3333333 52,22.7623957 L52,41.2376043 C52,42.6666667 51.2376043,43.9871747 50,44.7017059 L34,53.9393102 C32.7623957,54.6538414 31.2376043,54.6538414 30,53.9393102 L14,44.7017059 C12.7623957,43.9871747 12,42.6666667 12,41.2376043 L12,22.7623957 C12,21.3333333 12.7623957,20.0128253 14,19.2982941 L30,10.0606898 C31.2376043,9.34615859 32.7623957,9.34615859 34,10.0606898 Z M32,23.2022816 C27.1411543,23.2022816 23.2022816,27.1411543 23.2022816,32 C23.2022816,36.8588457 27.1411543,40.7977184 32,40.7977184 C36.8588457,40.7977184 40.7977184,36.8588457 40.7977184,32 C40.7977184,27.1411543 36.8588457,23.2022816 32,23.2022816 Z" id="形状结合" fill="#90A4AE"></path>
            </g>
        </g>
    </g>
</svg>