<?xml version="1.0" encoding="UTF-8"?>
<svg width="96px" height="96px" viewBox="0 0 96 96" version="1.1" xmlns="http://www.w3.org/2000/svg" xmlns:xlink="http://www.w3.org/1999/xlink">
    <!-- Generator: Sketch 56.2 (81672) - https://sketch.com -->
    <title>编组 6</title>
    <desc>Created with Sketch.</desc>
    <defs>
        <polygon id="path-1" points="42 0 71.6984848 12.3015152 84 42 71.6984848 71.6984848 42 84 12.3015152 71.6984848 0 42 12.3015152 12.3015152"></polygon>
        <polygon id="path-3" points="42 18 58.9705627 25.0294373 66 42 58.9705627 58.9705627 42 66 25.0294373 58.9705627 18 42 25.0294373 25.0294373"></polygon>
    </defs>
    <g id="页面-1" stroke="none" stroke-width="1" fill="none" fill-rule="evenodd">
        <g id="D2" transform="translate(-152.000000, -284.000000)">
            <g id="编组-6" transform="translate(152.000000, 284.000000)">
                <rect id="矩形" fill="#FFFFFF" opacity="0" x="0" y="0" width="96" height="96"></rect>
                <g id="编组-10" transform="translate(6.000000, 6.000000)">
                    <g id="编组-36备份">
                        <mask id="mask-2" fill="white">
                            <use xlink:href="#path-1"></use>
                        </mask>
                        <use id="多边形" fill="#D8D8D8" xlink:href="#path-1"></use>
                        <path d="M84,0 L84,84 L42,42 L84,0 Z M0,84 L0,42 L42,42 L0,84 Z" id="形状" fill="#449C80" mask="url(#mask-2)"></path>
                        <polygon id="路径" fill="#60D818" mask="url(#mask-2)" points="0 0 42 0 42 42 0 42"></polygon>
                        <polygon id="矩形" fill="#2C6484" mask="url(#mask-2)" points="42 0 84 0 42 42"></polygon>
                        <path d="M42,84 L0,84 L42,42 L84,84 L42,84 Z" id="形状结合" fill="#2C6484" mask="url(#mask-2)"></path>
                        <mask id="mask-4" fill="white">
                            <use xlink:href="#path-3"></use>
                        </mask>
                        <use id="多边形" fill="#C0F424" xlink:href="#path-3"></use>
                    </g>
                    <polygon id="路径" fill="#FFFFFF" points="28.5 22.5 39 24 39 27 28.5 28.5 27 39 24 39 22.5 28.5 12 27 12 24 22.5 22.5 24 12 27 12"></polygon>
                </g>
            </g>
        </g>
    </g>
</svg>