<?xml version="1.0" encoding="UTF-8"?>
<svg width="48px" height="48px" viewBox="0 0 48 48" version="1.1" xmlns="http://www.w3.org/2000/svg" xmlns:xlink="http://www.w3.org/1999/xlink">
    <!-- Generator: Sketch 56.2 (81672) - https://sketch.com -->
    <title>编组 4备份 4</title>
    <desc>Created with Sketch.</desc>
    <g id="页面-1" stroke="none" stroke-width="1" fill="none" fill-rule="evenodd">
        <g id="D2" transform="translate(-548.000000, -836.000000)">
            <g id="编组-4备份-4" transform="translate(548.000000, 836.000000)">
                <rect id="矩形" fill="#FFFFFF" opacity="0" x="0" y="0" width="48" height="48"></rect>
                <g id="编组-9" transform="translate(24.000000, 22.750000) rotate(-360.000000) translate(-24.000000, -22.750000) translate(1.500000, 3.750000)">
                    <path d="M2.76923077,12.4615385 L41.5384615,12.4615385 C43.0678655,12.4615385 44.3076923,13.7013653 44.3076923,15.2307692 L44.3076923,34.6153846 C44.3076923,36.1447885 43.0678655,37.3846154 41.5384615,37.3846154 L2.76923077,37.3846154 C1.23982685,37.3846154 0,36.1447885 0,34.6153846 L0,15.2307692 C0,13.7013653 1.23982685,12.4615385 2.76923077,12.4615385 Z" id="矩形备份-4" fill="#16357B"></path>
                    <path d="M2.76923077,10.3846154 L41.5384615,10.3846154 C43.0678655,10.3846154 44.3076923,11.6244422 44.3076923,13.1538462 L44.3076923,32.5384615 C44.3076923,34.0678655 43.0678655,35.3076923 41.5384615,35.3076923 L2.76923077,35.3076923 C1.23982685,35.3076923 0,34.0678655 0,32.5384615 L0,13.1538462 C0,11.6244422 1.23982685,10.3846154 2.76923077,10.3846154 Z" id="矩形备份-4" fill="#2265D5"></path>
                    <path d="M2.76923077,8.30769231 L41.5384615,8.30769231 C43.0678655,8.30769231 44.3076923,9.54751915 44.3076923,11.0769231 L44.3076923,30.4615385 C44.3076923,31.9909424 43.0678655,33.2307692 41.5384615,33.2307692 L2.76923077,33.2307692 C1.23982685,33.2307692 0,31.9909424 0,30.4615385 L0,11.0769231 C0,9.54751915 1.23982685,8.30769231 2.76923077,8.30769231 Z" id="矩形备份-3" fill="#16357B"></path>
                    <path d="M2.76923077,6.23076923 L41.5384615,6.23076923 C43.0678655,6.23076923 44.3076923,7.47059608 44.3076923,9 L44.3076923,28.3846154 C44.3076923,29.9140193 43.0678655,31.1538462 41.5384615,31.1538462 L2.76923077,31.1538462 C1.23982685,31.1538462 0,29.9140193 0,28.3846154 L0,9 C0,7.47059608 1.23982685,6.23076923 2.76923077,6.23076923 Z" id="矩形备份-2" fill="#2265D5"></path>
                    <g id="编组-5" transform="translate(0.000000, 4.153846)">
                        <path d="M2.76923077,0 L40.1538462,0 L40.1538462,20.7692308 C40.1538462,23.0633367 38.2941059,24.9230769 36,24.9230769 L2.76923077,24.9230769 C1.23982685,24.9230769 0,23.6832501 0,22.1538462 L0,2.76923077 C0,1.23982685 1.23982685,0 2.76923077,0 Z" id="矩形" fill="#3480FF"></path>
                        <path d="M22.1538462,4.41557478 C21.4900202,4.24471778 20.7940837,4.15384615 20.0769231,4.15384615 C15.4887113,4.15384615 11.7692308,7.87332669 11.7692308,12.4615385 C11.7692308,17.0497502 15.4887113,20.7692308 20.0769231,20.7692308 C20.7940837,20.7692308 21.4900202,20.6783591 22.1538462,20.5075021 C22.8176721,20.6783591 23.5136086,20.7692308 24.2307692,20.7692308 C28.818981,20.7692308 32.5384615,17.0497502 32.5384615,12.4615385 C32.5384615,7.87332669 28.818981,4.15384615 24.2307692,4.15384615 C23.5136086,4.15384615 22.8176721,4.24471778 22.1538462,4.41557478 L22.1538462,4.41557478 Z M2.07692308,18.8667934 L2.07692308,6.05628348 C4.02314856,5.55535967 5.55535967,4.02314856 6.05628348,2.07692308 L40.1538462,2.07692308 L40.1538462,20.7692308 C40.1538462,21.9162837 39.223976,22.8461538 38.0769231,22.8461538 L6.05628348,22.8461538 C5.55535967,20.8999284 4.02314856,19.3677173 2.07692308,18.8667934 Z" id="形状" fill="#2265D5" fill-rule="nonzero"></path>
                    </g>
                    <path d="M18.0432692,22.2485883 C17.5462533,22.1239413 17.1051337,21.9909955 16.7198997,21.8497475 C16.2923613,21.6929885 15.7959894,21.4646689 15.2307692,21.1647821 L16.5351171,18.9565352 C16.9988875,19.2018972 17.3901879,19.3859159 17.7090301,19.5085969 C18.0278723,19.6312779 18.4119264,19.7403261 18.861204,19.8357446 C19.1655534,19.9175319 19.4843908,19.958425 19.8177258,19.958425 C20.1945392,19.958425 20.5206229,19.9175319 20.7959866,19.8357446 C21.0858431,19.7403261 21.2851165,19.6142391 21.3938127,19.4574801 C21.5025089,19.300721 21.5568562,19.1405566 21.5568562,18.9769819 C21.5568562,18.7861448 21.4916394,18.6055339 21.361204,18.4351436 C21.2307692,18.2647533 21.0423647,18.1454819 20.7959866,18.0773258 L18.1220736,17.3003501 C17.3249681,17.0686193 16.6945397,16.6528733 16.2307692,16.0530995 C15.7959844,15.4805882 15.5785953,14.8399304 15.5785953,14.1311069 C15.5930881,13.3813897 15.8394625,12.7168776 16.3177258,12.1375507 C16.7578817,11.6043837 17.3330579,11.2242001 18.0432692,10.9969904 L18.0432692,9.69230769 L20.8557692,9.69230769 L20.8557692,10.8163103 C21.0316944,10.8382523 21.2001724,10.8663233 21.361204,10.9005236 C22.1438166,11.0640982 22.9336638,11.302641 23.7307692,11.6161591 L22.6655518,13.9266396 C22.0133747,13.6676464 21.3829462,13.4768122 20.7742475,13.3541312 C20.5568551,13.2996063 20.2597566,13.2723442 19.8829431,13.2723442 C19.4916368,13.2723442 19.1872921,13.3064218 18.9698997,13.3745779 C18.694536,13.442734 18.5061321,13.5517821 18.4046823,13.7017256 C18.3032325,13.851669 18.2525084,13.9947947 18.2525084,14.1311069 C18.2525084,14.2674191 18.2959862,14.4105448 18.3829431,14.5604882 C18.4699001,14.7104317 18.6438114,14.8194798 18.9046823,14.8876359 L21.5568562,15.6441649 C22.3539616,15.8758957 22.9988827,16.2950495 23.4916388,16.9016388 C23.9843949,17.5082282 24.2307692,18.1931868 24.2307692,18.9565352 C24.2307692,19.7198836 23.9916412,20.3980267 23.5133779,20.9909849 C23.0351147,21.583943 22.3901936,21.9962813 21.5785953,22.228012 C21.3501547,22.2996319 21.1092132,22.3555725 20.8557692,22.3958339 L20.8557692,23.5384615 L18.0432692,23.5384615 L18.0432692,22.2485897 L18.0432692,22.2485883 Z" id="路径" fill-rule="nonzero"></path>
                    <polygon id="矩形" fill="#FFFFFF" points="16.6153846 4.15384615 27.6923077 4.15384615 27.6923077 29.0769231 16.6153846 29.0769231"></polygon>
                    <polygon id="矩形备份-5" fill="#E3EDFF" points="16.6153846 29.0769231 27.6923077 29.0769231 27.6923077 37.3846154 16.6153846 37.3846154"></polygon>
                    <polygon id="矩形备份-5" fill="#95BCFE" points="15.9230769 29.0769231 18.6923077 29.0769231 18.6923077 37.3846154 15.9230769 37.3846154"></polygon>
                    <polygon id="矩形备份-7" fill="#E3EDFF" points="15.9230769 4.15384615 18.6923077 4.15384615 18.6923077 29.0769231 15.9230769 29.0769231"></polygon>
                    <polygon id="矩形备份-6" fill="#95BCFE" points="25.6153846 29.0769231 28.3846154 29.0769231 28.3846154 37.3846154 25.6153846 37.3846154"></polygon>
                    <polygon id="矩形备份-8" fill="#E3EDFF" points="25.6153846 4.15384615 28.3846154 4.15384615 28.3846154 29.0769231 25.6153846 29.0769231"></polygon>
                    <path d="M40.1538462,24.9230769 C40.1538462,22.628971 38.2941059,20.7692308 36,20.7692308 L36,-3.55271368e-15 C38.2941059,-3.55271368e-15 40.1538462,1.85974027 40.1538462,4.15384615 L41.5384615,4.15384615 C43.0678655,4.15384615 44.3076923,5.393673 44.3076923,6.92307692 L44.3076923,26.3076923 C44.3076923,27.8370962 43.0678655,29.0769231 41.5384615,29.0769231 L36,29.0769231 C38.2941059,29.0769231 40.1538462,27.2171828 40.1538462,24.9230769 L40.1538462,24.9230769 Z" id="路径" fill="#16357B"></path>
                </g>
            </g>
        </g>
    </g>
</svg>